{"glyphs":{"0":{"ha":908,"x_min":33,"x_max":876,"o":"m 456 -22 q 142 120 250 -22 q 33 479 33 263 q 78 731 33 619 q 219 912 122 842 q 456 982 317 982 q 692 912 594 982 q 833 731 789 842 q 876 479 876 619 q 833 228 876 339 q 692 47 789 117 q 456 -22 594 -22 m 313 248 q 334 208 313 248 q 456 168 356 168 q 598 248 556 168 q 640 479 640 328 q 598 712 640 632 q 456 792 556 792 q 313 711 356 792 q 269 479 269 631 q 313 248 269 328 z "},"1":{"ha":564,"x_min":36,"x_max":475,"o":"m 281 960 l 475 960 l 475 0 l 239 0 l 239 649 q 175 610 214 622 q 110 595 136 597 q 36 593 83 593 l 36 760 q 222 816 164 760 q 281 960 281 872 z "},"2":{"ha":807,"x_min":31,"x_max":769,"o":"m 267 610 l 44 610 q 140 883 44 785 q 424 982 235 982 q 675 904 581 982 q 769 690 769 826 q 721 522 769 603 q 615 394 672 442 q 476 286 557 347 q 363 193 394 225 l 363 190 l 769 190 l 769 0 l 31 0 q 199 329 31 189 q 320 424 243 367 q 434 510 397 481 q 502 585 471 540 q 533 674 533 629 q 503 760 533 729 q 417 792 472 792 q 267 610 267 792 z "},"3":{"ha":831,"x_min":19,"x_max":800,"o":"m 269 665 l 47 665 q 148 894 47 807 q 429 982 249 982 q 672 911 571 982 q 772 718 772 840 q 633 508 772 581 l 633 506 q 800 269 800 453 q 699 55 800 132 q 433 -22 597 -22 q 126 72 232 -22 q 19 339 19 165 l 242 339 q 417 168 242 168 q 564 283 564 168 q 388 411 564 411 l 339 411 l 339 574 l 382 574 q 536 679 536 574 q 411 792 536 792 q 310 760 350 792 q 269 665 269 729 z "},"4":{"ha":865,"x_min":29,"x_max":842,"o":"m 700 0 l 464 0 l 464 203 l 29 203 l 29 435 l 464 960 l 700 960 l 700 393 l 842 393 l 842 203 l 700 203 l 700 0 m 464 703 l 203 393 l 464 393 l 464 703 z "},"5":{"ha":838,"x_min":18,"x_max":806,"o":"m 488 651 q 719 565 632 651 q 806 325 806 478 q 702 68 806 158 q 432 -22 599 -22 q 130 65 236 -22 q 18 297 24 151 l 254 297 q 303 205 260 242 q 418 168 346 168 q 528 209 486 168 q 569 328 569 250 q 529 447 569 404 q 414 489 489 489 q 268 419 324 489 l 46 419 l 157 960 l 764 960 l 764 769 l 318 769 l 282 586 l 282 583 q 488 651 368 651 z "},"6":{"ha":858,"x_min":35,"x_max":831,"o":"m 271 567 q 500 654 364 654 q 739 562 647 654 q 831 329 831 469 q 728 74 831 169 q 454 -22 626 -22 q 256 18 340 -22 q 125 129 172 58 q 56 284 78 200 q 35 467 35 368 q 145 851 35 719 q 446 982 256 982 q 681 908 583 982 q 803 717 779 833 l 567 717 q 530 778 560 750 q 442 806 500 806 q 315 742 356 806 q 271 569 274 679 l 271 567 m 317 200 q 341 177 317 200 q 440 154 364 154 q 563 200 517 154 q 608 317 608 246 q 563 432 608 386 q 440 478 517 478 q 317 432 364 478 q 271 317 271 386 q 317 200 271 246 z "},"7":{"ha":757,"x_min":24,"x_max":728,"o":"m 24 960 l 728 960 l 728 783 q 500 449 574 658 q 426 0 426 240 l 176 0 q 262 441 176 226 q 478 767 347 656 l 478 769 l 24 769 l 24 960 z "},"8":{"ha":846,"x_min":26,"x_max":821,"o":"m 26 275 q 207 517 26 438 l 207 519 q 68 722 68 593 q 169 913 68 843 q 424 982 271 982 q 678 913 576 982 q 779 722 779 843 q 640 519 779 594 l 640 517 q 821 275 821 436 q 708 56 821 133 q 424 -22 596 -22 q 139 56 251 -22 q 26 275 26 133 m 315 616 q 335 599 315 616 q 424 582 354 582 q 532 616 493 582 q 571 701 571 650 q 532 785 571 751 q 424 819 493 819 q 315 785 354 819 q 276 701 276 751 q 315 616 276 650 m 306 195 q 328 175 306 195 q 424 154 350 154 q 541 195 497 154 q 585 297 585 236 q 541 397 585 356 q 424 438 497 438 q 306 397 350 438 q 263 297 263 356 q 306 195 263 236 z "},"9":{"ha":858,"x_min":29,"x_max":825,"o":"m 589 393 q 360 306 496 306 q 121 398 213 306 q 29 631 29 490 q 131 886 29 790 q 406 982 233 982 q 603 942 519 982 q 735 831 688 901 q 803 676 782 760 q 825 493 825 592 q 715 109 825 240 q 414 -22 604 -22 q 178 52 276 -22 q 57 243 81 126 l 293 243 q 330 182 300 210 q 418 154 360 154 q 545 217 504 154 q 589 390 586 281 l 589 393 m 542 760 q 519 783 542 760 q 419 806 496 806 q 297 760 343 806 q 251 643 251 714 q 297 528 251 574 q 419 482 343 482 q 542 528 496 482 q 589 643 589 574 q 542 760 589 714 z "},"­":{"ha":694,"x_min":129,"x_max":569,"o":"m 569 1069 l 569 -319 l 129 -319 l 129 1069 l 569 1069 m 463 976 l 233 976 l 233 931 l 324 931 l 324 879 l 232 879 l 232 833 l 463 833 l 463 879 l 371 879 l 371 931 l 463 931 l 463 976 m 371 797 l 232 797 l 232 653 l 463 653 l 463 700 l 371 700 l 371 797 m 324 750 l 324 700 l 278 700 l 278 750 l 324 750 m 463 615 l 232 615 l 232 569 l 324 569 l 324 518 l 232 518 l 232 472 l 371 472 l 371 569 l 463 569 l 463 615 m 463 532 l 417 532 l 417 440 l 232 440 l 232 393 l 463 393 l 463 532 m 463 363 l 324 363 l 324 285 l 371 285 l 371 317 l 417 317 l 417 251 l 278 251 l 278 363 l 232 363 l 232 206 l 463 206 l 463 363 m 463 122 l 232 122 l 232 -35 l 463 -35 l 463 122 m 417 76 l 417 11 l 278 11 l 278 76 l 417 76 m 463 -67 l 232 -67 l 232 -112 l 329 -112 l 232 -178 l 232 -224 l 463 -224 l 463 -178 l 321 -178 l 418 -112 l 463 -112 l 463 -67 z "},"²":{"ha":694,"x_min":129,"x_max":569,"o":"m 569 1069 l 569 -319 l 129 -319 l 129 1069 l 569 1069 m 463 976 l 233 976 l 233 931 l 324 931 l 324 879 l 232 879 l 232 833 l 463 833 l 463 879 l 371 879 l 371 931 l 463 931 l 463 976 m 371 797 l 232 797 l 232 653 l 463 653 l 463 700 l 371 700 l 371 797 m 324 750 l 324 700 l 278 700 l 278 750 l 324 750 m 463 615 l 232 615 l 232 569 l 324 569 l 324 518 l 232 518 l 232 472 l 371 472 l 371 569 l 463 569 l 463 615 m 463 532 l 417 532 l 417 440 l 232 440 l 232 393 l 463 393 l 463 532 m 463 363 l 324 363 l 324 285 l 371 285 l 371 317 l 417 317 l 417 251 l 278 251 l 278 363 l 232 363 l 232 206 l 463 206 l 463 363 m 463 122 l 232 122 l 232 -35 l 463 -35 l 463 122 m 417 76 l 417 11 l 278 11 l 278 76 l 417 76 m 463 -67 l 232 -67 l 232 -112 l 329 -112 l 232 -178 l 232 -224 l 463 -224 l 463 -178 l 321 -178 l 418 -112 l 463 -112 l 463 -67 z "},"³":{"ha":694,"x_min":129,"x_max":569,"o":"m 569 1069 l 569 -319 l 129 -319 l 129 1069 l 569 1069 m 463 976 l 233 976 l 233 931 l 324 931 l 324 879 l 232 879 l 232 833 l 463 833 l 463 879 l 371 879 l 371 931 l 463 931 l 463 976 m 371 797 l 232 797 l 232 653 l 463 653 l 463 700 l 371 700 l 371 797 m 324 750 l 324 700 l 278 700 l 278 750 l 324 750 m 463 615 l 232 615 l 232 569 l 324 569 l 324 518 l 232 518 l 232 472 l 371 472 l 371 569 l 463 569 l 463 615 m 463 532 l 417 532 l 417 440 l 232 440 l 232 393 l 463 393 l 463 532 m 463 363 l 324 363 l 324 285 l 371 285 l 371 317 l 417 317 l 417 251 l 278 251 l 278 363 l 232 363 l 232 206 l 463 206 l 463 363 m 463 122 l 232 122 l 232 -35 l 463 -35 l 463 122 m 417 76 l 417 11 l 278 11 l 278 76 l 417 76 m 463 -67 l 232 -67 l 232 -112 l 329 -112 l 232 -178 l 232 -224 l 463 -224 l 463 -178 l 321 -178 l 418 -112 l 463 -112 l 463 -67 z "},"µ":{"ha":694,"x_min":129,"x_max":569,"o":"m 569 1069 l 569 -319 l 129 -319 l 129 1069 l 569 1069 m 463 976 l 233 976 l 233 931 l 324 931 l 324 879 l 232 879 l 232 833 l 463 833 l 463 879 l 371 879 l 371 931 l 463 931 l 463 976 m 371 797 l 232 797 l 232 653 l 463 653 l 463 700 l 371 700 l 371 797 m 324 750 l 324 700 l 278 700 l 278 750 l 324 750 m 463 615 l 232 615 l 232 569 l 324 569 l 324 518 l 232 518 l 232 472 l 371 472 l 371 569 l 463 569 l 463 615 m 463 532 l 417 532 l 417 440 l 232 440 l 232 393 l 463 393 l 463 532 m 463 363 l 324 363 l 324 285 l 371 285 l 371 317 l 417 317 l 417 251 l 278 251 l 278 363 l 232 363 l 232 206 l 463 206 l 463 363 m 463 122 l 232 122 l 232 -35 l 463 -35 l 463 122 m 417 76 l 417 11 l 278 11 l 278 76 l 417 76 m 463 -67 l 232 -67 l 232 -112 l 329 -112 l 232 -178 l 232 -224 l 463 -224 l 463 -178 l 321 -178 l 418 -112 l 463 -112 l 463 -67 z "},"¹":{"ha":694,"x_min":129,"x_max":569,"o":"m 569 1069 l 569 -319 l 129 -319 l 129 1069 l 569 1069 m 463 976 l 233 976 l 233 931 l 324 931 l 324 879 l 232 879 l 232 833 l 463 833 l 463 879 l 371 879 l 371 931 l 463 931 l 463 976 m 371 797 l 232 797 l 232 653 l 463 653 l 463 700 l 371 700 l 371 797 m 324 750 l 324 700 l 278 700 l 278 750 l 324 750 m 463 615 l 232 615 l 232 569 l 324 569 l 324 518 l 232 518 l 232 472 l 371 472 l 371 569 l 463 569 l 463 615 m 463 532 l 417 532 l 417 440 l 232 440 l 232 393 l 463 393 l 463 532 m 463 363 l 324 363 l 324 285 l 371 285 l 371 317 l 417 317 l 417 251 l 278 251 l 278 363 l 232 363 l 232 206 l 463 206 l 463 363 m 463 122 l 232 122 l 232 -35 l 463 -35 l 463 122 m 417 76 l 417 11 l 278 11 l 278 76 l 417 76 m 463 -67 l 232 -67 l 232 -112 l 329 -112 l 232 -178 l 232 -224 l 463 -224 l 463 -178 l 321 -178 l 418 -112 l 463 -112 l 463 -67 z "},"º":{"ha":694,"x_min":129,"x_max":569,"o":"m 569 1069 l 569 -319 l 129 -319 l 129 1069 l 569 1069 m 463 976 l 233 976 l 233 931 l 324 931 l 324 879 l 232 879 l 232 833 l 463 833 l 463 879 l 371 879 l 371 931 l 463 931 l 463 976 m 371 797 l 232 797 l 232 653 l 463 653 l 463 700 l 371 700 l 371 797 m 324 750 l 324 700 l 278 700 l 278 750 l 324 750 m 463 615 l 232 615 l 232 569 l 324 569 l 324 518 l 232 518 l 232 472 l 371 472 l 371 569 l 463 569 l 463 615 m 463 532 l 417 532 l 417 440 l 232 440 l 232 393 l 463 393 l 463 532 m 463 363 l 324 363 l 324 285 l 371 285 l 371 317 l 417 317 l 417 251 l 278 251 l 278 363 l 232 363 l 232 206 l 463 206 l 463 363 m 463 122 l 232 122 l 232 -35 l 463 -35 l 463 122 m 417 76 l 417 11 l 278 11 l 278 76 l 417 76 m 463 -67 l 232 -67 l 232 -112 l 329 -112 l 232 -178 l 232 -224 l 463 -224 l 463 -178 l 321 -178 l 418 -112 l 463 -112 l 463 -67 z "},"Ĩ":{"ha":694,"x_min":129,"x_max":569,"o":"m 569 1069 l 569 -319 l 129 -319 l 129 1069 l 569 1069 m 463 976 l 233 976 l 233 931 l 324 931 l 324 879 l 232 879 l 232 833 l 463 833 l 463 879 l 371 879 l 371 931 l 463 931 l 463 976 m 371 797 l 232 797 l 232 653 l 463 653 l 463 700 l 371 700 l 371 797 m 324 750 l 324 700 l 278 700 l 278 750 l 324 750 m 463 615 l 232 615 l 232 569 l 324 569 l 324 518 l 232 518 l 232 472 l 371 472 l 371 569 l 463 569 l 463 615 m 463 532 l 417 532 l 417 440 l 232 440 l 232 393 l 463 393 l 463 532 m 463 363 l 324 363 l 324 285 l 371 285 l 371 317 l 417 317 l 417 251 l 278 251 l 278 363 l 232 363 l 232 206 l 463 206 l 463 363 m 463 122 l 232 122 l 232 -35 l 463 -35 l 463 122 m 417 76 l 417 11 l 278 11 l 278 76 l 417 76 m 463 -67 l 232 -67 l 232 -112 l 329 -112 l 232 -178 l 232 -224 l 463 -224 l 463 -178 l 321 -178 l 418 -112 l 463 -112 l 463 -67 z "},"ĩ":{"ha":694,"x_min":129,"x_max":569,"o":"m 569 1069 l 569 -319 l 129 -319 l 129 1069 l 569 1069 m 463 976 l 233 976 l 233 931 l 324 931 l 324 879 l 232 879 l 232 833 l 463 833 l 463 879 l 371 879 l 371 931 l 463 931 l 463 976 m 371 797 l 232 797 l 232 653 l 463 653 l 463 700 l 371 700 l 371 797 m 324 750 l 324 700 l 278 700 l 278 750 l 324 750 m 463 615 l 232 615 l 232 569 l 324 569 l 324 518 l 232 518 l 232 472 l 371 472 l 371 569 l 463 569 l 463 615 m 463 532 l 417 532 l 417 440 l 232 440 l 232 393 l 463 393 l 463 532 m 463 363 l 324 363 l 324 285 l 371 285 l 371 317 l 417 317 l 417 251 l 278 251 l 278 363 l 232 363 l 232 206 l 463 206 l 463 363 m 463 122 l 232 122 l 232 -35 l 463 -35 l 463 122 m 417 76 l 417 11 l 278 11 l 278 76 l 417 76 m 463 -67 l 232 -67 l 232 -112 l 329 -112 l 232 -178 l 232 -224 l 463 -224 l 463 -178 l 321 -178 l 418 -112 l 463 -112 l 463 -67 z "},"Ĭ":{"ha":694,"x_min":129,"x_max":569,"o":"m 569 1069 l 569 -319 l 129 -319 l 129 1069 l 569 1069 m 463 976 l 233 976 l 233 931 l 324 931 l 324 879 l 232 879 l 232 833 l 463 833 l 463 879 l 371 879 l 371 931 l 463 931 l 463 976 m 371 797 l 232 797 l 232 653 l 463 653 l 463 700 l 371 700 l 371 797 m 324 750 l 324 700 l 278 700 l 278 750 l 324 750 m 463 615 l 232 615 l 232 569 l 324 569 l 324 518 l 232 518 l 232 472 l 371 472 l 371 569 l 463 569 l 463 615 m 463 532 l 417 532 l 417 440 l 232 440 l 232 393 l 463 393 l 463 532 m 463 363 l 324 363 l 324 285 l 371 285 l 371 317 l 417 317 l 417 251 l 278 251 l 278 363 l 232 363 l 232 206 l 463 206 l 463 363 m 463 122 l 232 122 l 232 -35 l 463 -35 l 463 122 m 417 76 l 417 11 l 278 11 l 278 76 l 417 76 m 463 -67 l 232 -67 l 232 -112 l 329 -112 l 232 -178 l 232 -224 l 463 -224 l 463 -178 l 321 -178 l 418 -112 l 463 -112 l 463 -67 z "},"ĭ":{"ha":694,"x_min":129,"x_max":569,"o":"m 569 1069 l 569 -319 l 129 -319 l 129 1069 l 569 1069 m 463 976 l 233 976 l 233 931 l 324 931 l 324 879 l 232 879 l 232 833 l 463 833 l 463 879 l 371 879 l 371 931 l 463 931 l 463 976 m 371 797 l 232 797 l 232 653 l 463 653 l 463 700 l 371 700 l 371 797 m 324 750 l 324 700 l 278 700 l 278 750 l 324 750 m 463 615 l 232 615 l 232 569 l 324 569 l 324 518 l 232 518 l 232 472 l 371 472 l 371 569 l 463 569 l 463 615 m 463 532 l 417 532 l 417 440 l 232 440 l 232 393 l 463 393 l 463 532 m 463 363 l 324 363 l 324 285 l 371 285 l 371 317 l 417 317 l 417 251 l 278 251 l 278 363 l 232 363 l 232 206 l 463 206 l 463 363 m 463 122 l 232 122 l 232 -35 l 463 -35 l 463 122 m 417 76 l 417 11 l 278 11 l 278 76 l 417 76 m 463 -67 l 232 -67 l 232 -112 l 329 -112 l 232 -178 l 232 -224 l 463 -224 l 463 -178 l 321 -178 l 418 -112 l 463 -112 l 463 -67 z "},"̉":{"ha":694,"x_min":129,"x_max":569,"o":"m 569 1069 l 569 -319 l 129 -319 l 129 1069 l 569 1069 m 463 976 l 233 976 l 233 931 l 324 931 l 324 879 l 232 879 l 232 833 l 463 833 l 463 879 l 371 879 l 371 931 l 463 931 l 463 976 m 371 797 l 232 797 l 232 653 l 463 653 l 463 700 l 371 700 l 371 797 m 324 750 l 324 700 l 278 700 l 278 750 l 324 750 m 463 615 l 232 615 l 232 569 l 324 569 l 324 518 l 232 518 l 232 472 l 371 472 l 371 569 l 463 569 l 463 615 m 463 532 l 417 532 l 417 440 l 232 440 l 232 393 l 463 393 l 463 532 m 463 363 l 324 363 l 324 285 l 371 285 l 371 317 l 417 317 l 417 251 l 278 251 l 278 363 l 232 363 l 232 206 l 463 206 l 463 363 m 463 122 l 232 122 l 232 -35 l 463 -35 l 463 122 m 417 76 l 417 11 l 278 11 l 278 76 l 417 76 m 463 -67 l 232 -67 l 232 -112 l 329 -112 l 232 -178 l 232 -224 l 463 -224 l 463 -178 l 321 -178 l 418 -112 l 463 -112 l 463 -67 z "},"―":{"ha":694,"x_min":129,"x_max":569,"o":"m 569 1069 l 569 -319 l 129 -319 l 129 1069 l 569 1069 m 463 976 l 233 976 l 233 931 l 324 931 l 324 879 l 232 879 l 232 833 l 463 833 l 463 879 l 371 879 l 371 931 l 463 931 l 463 976 m 371 797 l 232 797 l 232 653 l 463 653 l 463 700 l 371 700 l 371 797 m 324 750 l 324 700 l 278 700 l 278 750 l 324 750 m 463 615 l 232 615 l 232 569 l 324 569 l 324 518 l 232 518 l 232 472 l 371 472 l 371 569 l 463 569 l 463 615 m 463 532 l 417 532 l 417 440 l 232 440 l 232 393 l 463 393 l 463 532 m 463 363 l 324 363 l 324 285 l 371 285 l 371 317 l 417 317 l 417 251 l 278 251 l 278 363 l 232 363 l 232 206 l 463 206 l 463 363 m 463 122 l 232 122 l 232 -35 l 463 -35 l 463 122 m 417 76 l 417 11 l 278 11 l 278 76 l 417 76 m 463 -67 l 232 -67 l 232 -112 l 329 -112 l 232 -178 l 232 -224 l 463 -224 l 463 -178 l 321 -178 l 418 -112 l 463 -112 l 463 -67 z "},"‖":{"ha":694,"x_min":129,"x_max":569,"o":"m 569 1069 l 569 -319 l 129 -319 l 129 1069 l 569 1069 m 463 976 l 233 976 l 233 931 l 324 931 l 324 879 l 232 879 l 232 833 l 463 833 l 463 879 l 371 879 l 371 931 l 463 931 l 463 976 m 371 797 l 232 797 l 232 653 l 463 653 l 463 700 l 371 700 l 371 797 m 324 750 l 324 700 l 278 700 l 278 750 l 324 750 m 463 615 l 232 615 l 232 569 l 324 569 l 324 518 l 232 518 l 232 472 l 371 472 l 371 569 l 463 569 l 463 615 m 463 532 l 417 532 l 417 440 l 232 440 l 232 393 l 463 393 l 463 532 m 463 363 l 324 363 l 324 285 l 371 285 l 371 317 l 417 317 l 417 251 l 278 251 l 278 363 l 232 363 l 232 206 l 463 206 l 463 363 m 463 122 l 232 122 l 232 -35 l 463 -35 l 463 122 m 417 76 l 417 11 l 278 11 l 278 76 l 417 76 m 463 -67 l 232 -67 l 232 -112 l 329 -112 l 232 -178 l 232 -224 l 463 -224 l 463 -178 l 321 -178 l 418 -112 l 463 -112 l 463 -67 z "},"‗":{"ha":694,"x_min":129,"x_max":569,"o":"m 569 1069 l 569 -319 l 129 -319 l 129 1069 l 569 1069 m 463 976 l 233 976 l 233 931 l 324 931 l 324 879 l 232 879 l 232 833 l 463 833 l 463 879 l 371 879 l 371 931 l 463 931 l 463 976 m 371 797 l 232 797 l 232 653 l 463 653 l 463 700 l 371 700 l 371 797 m 324 750 l 324 700 l 278 700 l 278 750 l 324 750 m 463 615 l 232 615 l 232 569 l 324 569 l 324 518 l 232 518 l 232 472 l 371 472 l 371 569 l 463 569 l 463 615 m 463 532 l 417 532 l 417 440 l 232 440 l 232 393 l 463 393 l 463 532 m 463 363 l 324 363 l 324 285 l 371 285 l 371 317 l 417 317 l 417 251 l 278 251 l 278 363 l 232 363 l 232 206 l 463 206 l 463 363 m 463 122 l 232 122 l 232 -35 l 463 -35 l 463 122 m 417 76 l 417 11 l 278 11 l 278 76 l 417 76 m 463 -67 l 232 -67 l 232 -112 l 329 -112 l 232 -178 l 232 -224 l 463 -224 l 463 -178 l 321 -178 l 418 -112 l 463 -112 l 463 -67 z "},"‛":{"ha":694,"x_min":129,"x_max":569,"o":"m 569 1069 l 569 -319 l 129 -319 l 129 1069 l 569 1069 m 463 976 l 233 976 l 233 931 l 324 931 l 324 879 l 232 879 l 232 833 l 463 833 l 463 879 l 371 879 l 371 931 l 463 931 l 463 976 m 371 797 l 232 797 l 232 653 l 463 653 l 463 700 l 371 700 l 371 797 m 324 750 l 324 700 l 278 700 l 278 750 l 324 750 m 463 615 l 232 615 l 232 569 l 324 569 l 324 518 l 232 518 l 232 472 l 371 472 l 371 569 l 463 569 l 463 615 m 463 532 l 417 532 l 417 440 l 232 440 l 232 393 l 463 393 l 463 532 m 463 363 l 324 363 l 324 285 l 371 285 l 371 317 l 417 317 l 417 251 l 278 251 l 278 363 l 232 363 l 232 206 l 463 206 l 463 363 m 463 122 l 232 122 l 232 -35 l 463 -35 l 463 122 m 417 76 l 417 11 l 278 11 l 278 76 l 417 76 m 463 -67 l 232 -67 l 232 -112 l 329 -112 l 232 -178 l 232 -224 l 463 -224 l 463 -178 l 321 -178 l 418 -112 l 463 -112 l 463 -67 z "},"‟":{"ha":694,"x_min":129,"x_max":569,"o":"m 569 1069 l 569 -319 l 129 -319 l 129 1069 l 569 1069 m 463 976 l 233 976 l 233 931 l 324 931 l 324 879 l 232 879 l 232 833 l 463 833 l 463 879 l 371 879 l 371 931 l 463 931 l 463 976 m 371 797 l 232 797 l 232 653 l 463 653 l 463 700 l 371 700 l 371 797 m 324 750 l 324 700 l 278 700 l 278 750 l 324 750 m 463 615 l 232 615 l 232 569 l 324 569 l 324 518 l 232 518 l 232 472 l 371 472 l 371 569 l 463 569 l 463 615 m 463 532 l 417 532 l 417 440 l 232 440 l 232 393 l 463 393 l 463 532 m 463 363 l 324 363 l 324 285 l 371 285 l 371 317 l 417 317 l 417 251 l 278 251 l 278 363 l 232 363 l 232 206 l 463 206 l 463 363 m 463 122 l 232 122 l 232 -35 l 463 -35 l 463 122 m 417 76 l 417 11 l 278 11 l 278 76 l 417 76 m 463 -67 l 232 -67 l 232 -112 l 329 -112 l 232 -178 l 232 -224 l 463 -224 l 463 -178 l 321 -178 l 418 -112 l 463 -112 l 463 -67 z "},"‣":{"ha":694,"x_min":129,"x_max":569,"o":"m 569 1069 l 569 -319 l 129 -319 l 129 1069 l 569 1069 m 463 976 l 233 976 l 233 931 l 324 931 l 324 879 l 232 879 l 232 833 l 463 833 l 463 879 l 371 879 l 371 931 l 463 931 l 463 976 m 371 797 l 232 797 l 232 653 l 463 653 l 463 700 l 371 700 l 371 797 m 324 750 l 324 700 l 278 700 l 278 750 l 324 750 m 463 615 l 232 615 l 232 569 l 324 569 l 324 518 l 232 518 l 232 472 l 371 472 l 371 569 l 463 569 l 463 615 m 463 532 l 417 532 l 417 440 l 232 440 l 232 393 l 463 393 l 463 532 m 463 363 l 324 363 l 324 285 l 371 285 l 371 317 l 417 317 l 417 251 l 278 251 l 278 363 l 232 363 l 232 206 l 463 206 l 463 363 m 463 122 l 232 122 l 232 -35 l 463 -35 l 463 122 m 417 76 l 417 11 l 278 11 l 278 76 l 417 76 m 463 -67 l 232 -67 l 232 -112 l 329 -112 l 232 -178 l 232 -224 l 463 -224 l 463 -178 l 321 -178 l 418 -112 l 463 -112 l 463 -67 z "},"․":{"ha":694,"x_min":129,"x_max":569,"o":"m 569 1069 l 569 -319 l 129 -319 l 129 1069 l 569 1069 m 463 976 l 233 976 l 233 931 l 324 931 l 324 879 l 232 879 l 232 833 l 463 833 l 463 879 l 371 879 l 371 931 l 463 931 l 463 976 m 371 797 l 232 797 l 232 653 l 463 653 l 463 700 l 371 700 l 371 797 m 324 750 l 324 700 l 278 700 l 278 750 l 324 750 m 463 615 l 232 615 l 232 569 l 324 569 l 324 518 l 232 518 l 232 472 l 371 472 l 371 569 l 463 569 l 463 615 m 463 532 l 417 532 l 417 440 l 232 440 l 232 393 l 463 393 l 463 532 m 463 363 l 324 363 l 324 285 l 371 285 l 371 317 l 417 317 l 417 251 l 278 251 l 278 363 l 232 363 l 232 206 l 463 206 l 463 363 m 463 122 l 232 122 l 232 -35 l 463 -35 l 463 122 m 417 76 l 417 11 l 278 11 l 278 76 l 417 76 m 463 -67 l 232 -67 l 232 -112 l 329 -112 l 232 -178 l 232 -224 l 463 -224 l 463 -178 l 321 -178 l 418 -112 l 463 -112 l 463 -67 z "},"‥":{"ha":694,"x_min":129,"x_max":569,"o":"m 569 1069 l 569 -319 l 129 -319 l 129 1069 l 569 1069 m 463 976 l 233 976 l 233 931 l 324 931 l 324 879 l 232 879 l 232 833 l 463 833 l 463 879 l 371 879 l 371 931 l 463 931 l 463 976 m 371 797 l 232 797 l 232 653 l 463 653 l 463 700 l 371 700 l 371 797 m 324 750 l 324 700 l 278 700 l 278 750 l 324 750 m 463 615 l 232 615 l 232 569 l 324 569 l 324 518 l 232 518 l 232 472 l 371 472 l 371 569 l 463 569 l 463 615 m 463 532 l 417 532 l 417 440 l 232 440 l 232 393 l 463 393 l 463 532 m 463 363 l 324 363 l 324 285 l 371 285 l 371 317 l 417 317 l 417 251 l 278 251 l 278 363 l 232 363 l 232 206 l 463 206 l 463 363 m 463 122 l 232 122 l 232 -35 l 463 -35 l 463 122 m 417 76 l 417 11 l 278 11 l 278 76 l 417 76 m 463 -67 l 232 -67 l 232 -112 l 329 -112 l 232 -178 l 232 -224 l 463 -224 l 463 -178 l 321 -178 l 418 -112 l 463 -112 l 463 -67 z "},"∃":{"ha":694,"x_min":129,"x_max":569,"o":"m 569 1069 l 569 -319 l 129 -319 l 129 1069 l 569 1069 m 463 976 l 233 976 l 233 931 l 324 931 l 324 879 l 232 879 l 232 833 l 463 833 l 463 879 l 371 879 l 371 931 l 463 931 l 463 976 m 371 797 l 232 797 l 232 653 l 463 653 l 463 700 l 371 700 l 371 797 m 324 750 l 324 700 l 278 700 l 278 750 l 324 750 m 463 615 l 232 615 l 232 569 l 324 569 l 324 518 l 232 518 l 232 472 l 371 472 l 371 569 l 463 569 l 463 615 m 463 532 l 417 532 l 417 440 l 232 440 l 232 393 l 463 393 l 463 532 m 463 363 l 324 363 l 324 285 l 371 285 l 371 317 l 417 317 l 417 251 l 278 251 l 278 363 l 232 363 l 232 206 l 463 206 l 463 363 m 463 122 l 232 122 l 232 -35 l 463 -35 l 463 122 m 417 76 l 417 11 l 278 11 l 278 76 l 417 76 m 463 -67 l 232 -67 l 232 -112 l 329 -112 l 232 -178 l 232 -224 l 463 -224 l 463 -178 l 321 -178 l 418 -112 l 463 -112 l 463 -67 z "},"∄":{"ha":694,"x_min":129,"x_max":569,"o":"m 569 1069 l 569 -319 l 129 -319 l 129 1069 l 569 1069 m 463 976 l 233 976 l 233 931 l 324 931 l 324 879 l 232 879 l 232 833 l 463 833 l 463 879 l 371 879 l 371 931 l 463 931 l 463 976 m 371 797 l 232 797 l 232 653 l 463 653 l 463 700 l 371 700 l 371 797 m 324 750 l 324 700 l 278 700 l 278 750 l 324 750 m 463 615 l 232 615 l 232 569 l 324 569 l 324 518 l 232 518 l 232 472 l 371 472 l 371 569 l 463 569 l 463 615 m 463 532 l 417 532 l 417 440 l 232 440 l 232 393 l 463 393 l 463 532 m 463 363 l 324 363 l 324 285 l 371 285 l 371 317 l 417 317 l 417 251 l 278 251 l 278 363 l 232 363 l 232 206 l 463 206 l 463 363 m 463 122 l 232 122 l 232 -35 l 463 -35 l 463 122 m 417 76 l 417 11 l 278 11 l 278 76 l 417 76 m 463 -67 l 232 -67 l 232 -112 l 329 -112 l 232 -178 l 232 -224 l 463 -224 l 463 -178 l 321 -178 l 418 -112 l 463 -112 l 463 -67 z "},"∐":{"ha":694,"x_min":129,"x_max":569,"o":"m 569 1069 l 569 -319 l 129 -319 l 129 1069 l 569 1069 m 463 976 l 233 976 l 233 931 l 324 931 l 324 879 l 232 879 l 232 833 l 463 833 l 463 879 l 371 879 l 371 931 l 463 931 l 463 976 m 371 797 l 232 797 l 232 653 l 463 653 l 463 700 l 371 700 l 371 797 m 324 750 l 324 700 l 278 700 l 278 750 l 324 750 m 463 615 l 232 615 l 232 569 l 324 569 l 324 518 l 232 518 l 232 472 l 371 472 l 371 569 l 463 569 l 463 615 m 463 532 l 417 532 l 417 440 l 232 440 l 232 393 l 463 393 l 463 532 m 463 363 l 324 363 l 324 285 l 371 285 l 371 317 l 417 317 l 417 251 l 278 251 l 278 363 l 232 363 l 232 206 l 463 206 l 463 363 m 463 122 l 232 122 l 232 -35 l 463 -35 l 463 122 m 417 76 l 417 11 l 278 11 l 278 76 l 417 76 m 463 -67 l 232 -67 l 232 -112 l 329 -112 l 232 -178 l 232 -224 l 463 -224 l 463 -178 l 321 -178 l 418 -112 l 463 -112 l 463 -67 z "},"∛":{"ha":694,"x_min":129,"x_max":569,"o":"m 569 1069 l 569 -319 l 129 -319 l 129 1069 l 569 1069 m 463 976 l 233 976 l 233 931 l 324 931 l 324 879 l 232 879 l 232 833 l 463 833 l 463 879 l 371 879 l 371 931 l 463 931 l 463 976 m 371 797 l 232 797 l 232 653 l 463 653 l 463 700 l 371 700 l 371 797 m 324 750 l 324 700 l 278 700 l 278 750 l 324 750 m 463 615 l 232 615 l 232 569 l 324 569 l 324 518 l 232 518 l 232 472 l 371 472 l 371 569 l 463 569 l 463 615 m 463 532 l 417 532 l 417 440 l 232 440 l 232 393 l 463 393 l 463 532 m 463 363 l 324 363 l 324 285 l 371 285 l 371 317 l 417 317 l 417 251 l 278 251 l 278 363 l 232 363 l 232 206 l 463 206 l 463 363 m 463 122 l 232 122 l 232 -35 l 463 -35 l 463 122 m 417 76 l 417 11 l 278 11 l 278 76 l 417 76 m 463 -67 l 232 -67 l 232 -112 l 329 -112 l 232 -178 l 232 -224 l 463 -224 l 463 -178 l 321 -178 l 418 -112 l 463 -112 l 463 -67 z "},"∜":{"ha":694,"x_min":129,"x_max":569,"o":"m 569 1069 l 569 -319 l 129 -319 l 129 1069 l 569 1069 m 463 976 l 233 976 l 233 931 l 324 931 l 324 879 l 232 879 l 232 833 l 463 833 l 463 879 l 371 879 l 371 931 l 463 931 l 463 976 m 371 797 l 232 797 l 232 653 l 463 653 l 463 700 l 371 700 l 371 797 m 324 750 l 324 700 l 278 700 l 278 750 l 324 750 m 463 615 l 232 615 l 232 569 l 324 569 l 324 518 l 232 518 l 232 472 l 371 472 l 371 569 l 463 569 l 463 615 m 463 532 l 417 532 l 417 440 l 232 440 l 232 393 l 463 393 l 463 532 m 463 363 l 324 363 l 324 285 l 371 285 l 371 317 l 417 317 l 417 251 l 278 251 l 278 363 l 232 363 l 232 206 l 463 206 l 463 363 m 463 122 l 232 122 l 232 -35 l 463 -35 l 463 122 m 417 76 l 417 11 l 278 11 l 278 76 l 417 76 m 463 -67 l 232 -67 l 232 -112 l 329 -112 l 232 -178 l 232 -224 l 463 -224 l 463 -178 l 321 -178 l 418 -112 l 463 -112 l 463 -67 z "},"∝":{"ha":694,"x_min":129,"x_max":569,"o":"m 569 1069 l 569 -319 l 129 -319 l 129 1069 l 569 1069 m 463 976 l 233 976 l 233 931 l 324 931 l 324 879 l 232 879 l 232 833 l 463 833 l 463 879 l 371 879 l 371 931 l 463 931 l 463 976 m 371 797 l 232 797 l 232 653 l 463 653 l 463 700 l 371 700 l 371 797 m 324 750 l 324 700 l 278 700 l 278 750 l 324 750 m 463 615 l 232 615 l 232 569 l 324 569 l 324 518 l 232 518 l 232 472 l 371 472 l 371 569 l 463 569 l 463 615 m 463 532 l 417 532 l 417 440 l 232 440 l 232 393 l 463 393 l 463 532 m 463 363 l 324 363 l 324 285 l 371 285 l 371 317 l 417 317 l 417 251 l 278 251 l 278 363 l 232 363 l 232 206 l 463 206 l 463 363 m 463 122 l 232 122 l 232 -35 l 463 -35 l 463 122 m 417 76 l 417 11 l 278 11 l 278 76 l 417 76 m 463 -67 l 232 -67 l 232 -112 l 329 -112 l 232 -178 l 232 -224 l 463 -224 l 463 -178 l 321 -178 l 418 -112 l 463 -112 l 463 -67 z "},"≡":{"ha":694,"x_min":129,"x_max":569,"o":"m 569 1069 l 569 -319 l 129 -319 l 129 1069 l 569 1069 m 463 976 l 233 976 l 233 931 l 324 931 l 324 879 l 232 879 l 232 833 l 463 833 l 463 879 l 371 879 l 371 931 l 463 931 l 463 976 m 371 797 l 232 797 l 232 653 l 463 653 l 463 700 l 371 700 l 371 797 m 324 750 l 324 700 l 278 700 l 278 750 l 324 750 m 463 615 l 232 615 l 232 569 l 324 569 l 324 518 l 232 518 l 232 472 l 371 472 l 371 569 l 463 569 l 463 615 m 463 532 l 417 532 l 417 440 l 232 440 l 232 393 l 463 393 l 463 532 m 463 363 l 324 363 l 324 285 l 371 285 l 371 317 l 417 317 l 417 251 l 278 251 l 278 363 l 232 363 l 232 206 l 463 206 l 463 363 m 463 122 l 232 122 l 232 -35 l 463 -35 l 463 122 m 417 76 l 417 11 l 278 11 l 278 76 l 417 76 m 463 -67 l 232 -67 l 232 -112 l 329 -112 l 232 -178 l 232 -224 l 463 -224 l 463 -178 l 321 -178 l 418 -112 l 463 -112 l 463 -67 z "},"≢":{"ha":694,"x_min":129,"x_max":569,"o":"m 569 1069 l 569 -319 l 129 -319 l 129 1069 l 569 1069 m 463 976 l 233 976 l 233 931 l 324 931 l 324 879 l 232 879 l 232 833 l 463 833 l 463 879 l 371 879 l 371 931 l 463 931 l 463 976 m 371 797 l 232 797 l 232 653 l 463 653 l 463 700 l 371 700 l 371 797 m 324 750 l 324 700 l 278 700 l 278 750 l 324 750 m 463 615 l 232 615 l 232 569 l 324 569 l 324 518 l 232 518 l 232 472 l 371 472 l 371 569 l 463 569 l 463 615 m 463 532 l 417 532 l 417 440 l 232 440 l 232 393 l 463 393 l 463 532 m 463 363 l 324 363 l 324 285 l 371 285 l 371 317 l 417 317 l 417 251 l 278 251 l 278 363 l 232 363 l 232 206 l 463 206 l 463 363 m 463 122 l 232 122 l 232 -35 l 463 -35 l 463 122 m 417 76 l 417 11 l 278 11 l 278 76 l 417 76 m 463 -67 l 232 -67 l 232 -112 l 329 -112 l 232 -178 l 232 -224 l 463 -224 l 463 -178 l 321 -178 l 418 -112 l 463 -112 l 463 -67 z "},"≣":{"ha":694,"x_min":129,"x_max":569,"o":"m 569 1069 l 569 -319 l 129 -319 l 129 1069 l 569 1069 m 463 976 l 233 976 l 233 931 l 324 931 l 324 879 l 232 879 l 232 833 l 463 833 l 463 879 l 371 879 l 371 931 l 463 931 l 463 976 m 371 797 l 232 797 l 232 653 l 463 653 l 463 700 l 371 700 l 371 797 m 324 750 l 324 700 l 278 700 l 278 750 l 324 750 m 463 615 l 232 615 l 232 569 l 324 569 l 324 518 l 232 518 l 232 472 l 371 472 l 371 569 l 463 569 l 463 615 m 463 532 l 417 532 l 417 440 l 232 440 l 232 393 l 463 393 l 463 532 m 463 363 l 324 363 l 324 285 l 371 285 l 371 317 l 417 317 l 417 251 l 278 251 l 278 363 l 232 363 l 232 206 l 463 206 l 463 363 m 463 122 l 232 122 l 232 -35 l 463 -35 l 463 122 m 417 76 l 417 11 l 278 11 l 278 76 l 417 76 m 463 -67 l 232 -67 l 232 -112 l 329 -112 l 232 -178 l 232 -224 l 463 -224 l 463 -178 l 321 -178 l 418 -112 l 463 -112 l 463 -67 z "}," ":{"ha":236,"x_min":0,"x_max":0,"o":""},"!":{"ha":367,"x_min":65,"x_max":301,"o":"m 65 993 l 301 993 l 301 776 l 239 325 l 128 325 l 65 776 l 65 993 m 183 -12 q 99 20 132 -12 q 65 106 65 53 q 99 191 65 158 q 183 224 132 224 q 267 191 233 224 q 301 106 301 158 q 267 20 301 53 q 183 -12 233 -12 z "},"\"":{"ha":586,"x_min":57,"x_max":529,"o":"m 57 993 l 251 993 l 224 619 l 85 619 l 57 993 m 335 993 l 529 993 l 501 619 l 363 619 l 335 993 z "},"#":{"ha":833,"x_min":33,"x_max":806,"o":"m 769 544 l 671 544 l 635 374 l 733 374 l 699 207 l 599 207 l 554 0 l 388 0 l 432 207 l 304 207 l 260 0 l 93 0 l 138 207 l 33 207 l 68 374 l 174 374 l 210 544 l 104 544 l 140 711 l 246 711 l 299 960 l 465 960 l 413 711 l 540 711 l 593 960 l 760 960 l 707 711 l 806 711 l 769 544 m 468 374 l 504 544 l 376 544 l 340 374 l 468 374 z "},"$":{"ha":868,"x_min":22,"x_max":826,"o":"m 826 264 q 732 63 826 143 q 474 -22 638 -17 l 474 -143 l 390 -143 l 390 -19 q 121 78 219 -7 q 22 313 22 164 l 258 313 q 390 174 258 197 l 390 382 q 350 393 378 385 q 230 435 278 414 q 138 489 182 456 q 72 571 93 522 q 50 686 50 619 q 144 890 50 813 q 390 974 238 967 l 390 1056 l 474 1056 l 474 971 q 715 874 624 956 q 813 664 807 792 l 576 664 q 474 775 564 747 l 474 588 q 609 543 557 564 q 717 486 661 522 q 799 394 772 450 q 826 264 826 339 m 286 704 q 310 649 286 669 q 390 611 333 629 l 390 782 q 286 704 286 775 m 474 168 q 590 254 590 175 q 562 315 590 292 q 474 357 533 338 l 474 168 z "},"%":{"ha":1206,"x_min":28,"x_max":1179,"o":"m 283 425 q 94 504 160 425 q 28 703 28 583 q 94 903 28 824 q 283 982 160 982 q 473 903 408 982 q 538 703 538 824 q 473 503 538 582 q 283 425 408 425 m 925 960 l 421 0 l 282 0 l 786 960 l 925 960 m 225 585 q 233 568 225 585 q 283 550 242 550 q 341 585 325 550 q 357 703 357 621 q 341 821 357 785 q 283 857 325 857 q 225 821 242 857 q 208 703 208 785 q 225 585 208 621 m 925 -22 q 735 57 801 -22 q 669 256 669 136 q 735 456 669 376 q 925 535 801 535 q 1115 456 1050 535 q 1179 256 1179 376 q 1115 56 1179 135 q 925 -22 1050 -22 m 867 138 q 875 120 867 138 q 925 103 883 103 q 983 138 967 103 q 999 256 999 174 q 983 374 999 338 q 925 410 967 410 q 867 374 883 410 q 850 256 850 338 q 867 138 850 174 z "},"&":{"ha":968,"x_min":31,"x_max":965,"o":"m 965 0 l 688 0 l 642 56 q 374 -22 524 -22 q 119 52 208 -22 q 31 244 31 126 q 48 344 31 300 q 101 422 65 389 q 169 477 136 456 q 253 524 203 499 q 190 601 211 572 q 153 674 169 631 q 136 763 136 717 q 217 939 136 864 q 435 1015 297 1014 q 649 940 565 1017 q 733 763 732 863 q 684 625 735 682 q 525 513 633 568 l 661 356 q 708 497 696 431 l 903 497 q 792 203 885 339 l 965 0 m 435 825 q 368 803 392 825 q 344 749 344 781 q 357 705 344 728 q 383 668 369 682 q 429 621 396 654 q 525 749 525 685 q 503 803 525 782 q 435 825 481 825 m 401 168 q 522 199 468 168 l 343 417 q 267 289 267 363 q 301 202 267 236 q 401 168 336 168 z "},"'":{"ha":308,"x_min":57,"x_max":251,"o":"m 57 993 l 251 993 l 224 619 l 85 619 l 57 993 z "},"(":{"ha":474,"x_min":79,"x_max":450,"o":"m 256 1069 l 450 1069 q 315 440 315 763 q 450 -190 315 117 l 256 -190 q 131 97 182 -72 q 79 440 79 265 q 130 785 79 621 q 256 1069 181 950 z "},")":{"ha":474,"x_min":24,"x_max":394,"o":"m 218 1069 q 344 785 293 950 q 394 440 394 621 q 343 97 394 265 q 218 -190 292 -72 l 24 -190 q 158 440 158 117 q 24 1069 158 763 l 218 1069 z "},"*":{"ha":606,"x_min":43,"x_max":564,"o":"m 564 753 l 408 713 l 507 579 l 394 497 l 303 638 l 211 497 l 99 579 l 197 713 l 43 753 l 86 885 l 235 824 l 235 993 l 374 993 l 374 824 l 521 885 l 564 753 z "},"+":{"ha":786,"x_min":56,"x_max":731,"o":"m 297 361 l 56 361 l 56 553 l 297 553 l 297 804 l 489 804 l 489 553 l 731 553 l 731 361 l 489 361 l 489 110 l 297 110 l 297 361 z "},",":{"ha":339,"x_min":44,"x_max":294,"o":"m 176 -12 q 81 19 117 -12 q 44 106 44 50 q 79 192 44 160 q 168 224 114 224 q 263 180 231 224 q 294 57 294 136 q 232 -140 294 -64 q 58 -232 169 -217 l 58 -135 q 143 -92 110 -128 q 176 -12 176 -56 z "},"-":{"ha":465,"x_min":44,"x_max":422,"o":"m 44 446 l 422 446 l 422 256 l 44 256 l 44 446 z "},".":{"ha":325,"x_min":44,"x_max":281,"o":"m 163 -12 q 78 20 111 -12 q 44 106 44 53 q 78 191 44 158 q 163 224 111 224 q 247 191 213 224 q 281 106 281 158 q 247 20 281 53 q 163 -12 213 -12 z "},"/":{"ha":582,"x_min":17,"x_max":582,"o":"m 582 993 l 197 0 l 17 0 l 401 993 l 582 993 z "},":":{"ha":333,"x_min":49,"x_max":285,"o":"m 167 418 q 82 451 115 418 q 49 536 49 483 q 82 622 49 589 q 167 654 115 654 q 251 622 217 654 q 285 536 285 589 q 251 451 285 483 q 167 418 217 418 m 167 -12 q 82 20 115 -12 q 49 106 49 53 q 82 191 49 158 q 167 224 115 224 q 251 191 217 224 q 285 106 285 158 q 251 20 285 53 q 167 -12 217 -12 z "},";":{"ha":347,"x_min":49,"x_max":299,"o":"m 174 418 q 89 451 122 418 q 56 536 56 483 q 89 622 56 589 q 174 654 122 654 q 258 622 224 654 q 292 536 292 589 q 258 451 292 483 q 174 418 224 418 m 181 -12 q 85 19 121 -12 q 49 106 49 50 q 83 192 49 160 q 172 224 118 224 q 267 180 235 224 q 299 57 299 136 q 236 -140 299 -64 q 63 -232 174 -217 l 63 -135 q 147 -92 114 -128 q 181 -12 181 -56 z "},"<":{"ha":721,"x_min":60,"x_max":632,"o":"m 632 86 l 60 325 l 60 533 l 632 772 l 632 582 l 247 431 l 247 428 l 632 276 l 632 86 z "},"=":{"ha":782,"x_min":71,"x_max":721,"o":"m 71 672 l 721 672 l 721 482 l 71 482 l 71 672 m 71 378 l 721 378 l 721 188 l 71 188 l 71 378 z "},">":{"ha":697,"x_min":65,"x_max":638,"o":"m 65 86 l 65 276 l 450 428 l 450 431 l 65 582 l 65 772 l 638 533 l 638 325 l 65 86 z "},"?":{"ha":768,"x_min":19,"x_max":739,"o":"m 256 685 l 19 685 q 119 922 19 829 q 407 1015 219 1015 q 646 940 553 1015 q 739 746 739 865 q 701 610 739 665 q 588 513 664 556 q 482 433 510 469 q 454 325 454 397 l 274 325 q 273 372 274 340 q 273 416 272 404 q 275 451 274 428 q 281 488 276 475 q 295 517 286 500 q 318 549 304 535 q 351 579 332 564 q 405 616 371 594 q 456 649 439 638 q 488 684 474 661 q 503 735 503 707 q 474 799 503 772 q 393 825 446 825 q 256 685 256 825 m 365 -12 q 281 20 314 -12 q 247 106 247 53 q 281 191 247 158 q 365 224 314 224 q 449 191 415 224 q 483 106 483 158 q 449 20 483 53 q 365 -12 415 -12 z "},"@":{"ha":1263,"x_min":49,"x_max":1221,"o":"m 939 110 q 801 140 867 110 q 708 222 736 171 l 706 222 q 542 115 660 115 q 385 193 447 115 q 322 410 322 271 q 394 633 322 549 q 569 718 465 718 q 664 694 631 718 q 719 625 697 669 l 722 625 l 732 708 l 922 708 l 878 360 q 953 235 861 235 q 1082 444 1082 235 q 967 745 1082 622 q 649 868 853 868 q 328 738 456 868 q 201 421 201 608 q 316 94 201 214 q 635 -25 431 -25 q 883 19 771 -25 l 928 -90 q 635 -150 817 -150 q 206 6 363 -150 q 49 421 49 161 q 219 827 49 661 q 649 993 389 993 q 897 949 786 993 q 1077 828 1007 904 q 1184 656 1147 753 q 1221 449 1221 558 q 939 110 1221 110 m 590 268 q 704 438 704 268 q 618 565 704 565 q 540 521 569 565 q 510 396 510 476 q 590 268 510 268 z "},"A":{"ha":968,"x_min":-1,"x_max":967,"o":"m 653 207 l 313 207 l 249 0 l -1 0 l 358 993 l 608 993 l 967 0 l 717 0 l 653 207 m 369 397 l 597 397 l 485 764 l 482 764 l 369 397 z "},"B":{"ha":932,"x_min":68,"x_max":904,"o":"m 865 743 q 711 532 865 585 l 711 529 q 851 456 797 514 q 904 293 904 397 q 564 0 904 0 l 68 0 l 68 993 l 550 993 q 865 743 865 993 m 318 592 l 490 592 q 583 613 550 592 q 615 690 615 633 q 583 768 615 747 q 490 789 550 789 l 318 789 l 318 592 m 318 439 l 318 204 l 497 204 q 617 230 579 204 q 654 322 654 256 q 617 414 654 389 q 497 439 579 439 l 318 439 z "},"C":{"ha":968,"x_min":28,"x_max":949,"o":"m 699 624 q 638 762 683 713 q 499 811 592 811 q 278 497 278 811 q 499 182 278 182 q 639 232 593 182 q 699 372 685 282 l 949 372 q 820 84 932 190 q 510 -22 708 -22 q 154 122 281 -22 q 28 497 28 265 q 154 872 28 728 q 510 1015 281 1015 q 819 909 707 1015 q 949 624 931 803 l 699 624 z "},"D":{"ha":979,"x_min":68,"x_max":951,"o":"m 68 0 l 68 993 l 508 993 q 834 863 717 993 q 951 496 951 733 q 840 128 951 257 q 522 0 729 0 l 68 0 m 318 789 l 318 204 l 483 204 q 701 496 701 204 q 483 789 701 789 l 318 789 z "},"E":{"ha":872,"x_min":68,"x_max":829,"o":"m 318 613 l 751 613 l 751 408 l 318 408 l 318 204 l 829 204 l 829 0 l 68 0 l 68 993 l 821 993 l 821 789 l 318 789 l 318 613 z "},"F":{"ha":836,"x_min":68,"x_max":807,"o":"m 318 571 l 717 571 l 717 367 l 318 367 l 318 0 l 68 0 l 68 993 l 807 993 l 807 789 l 318 789 l 318 571 z "},"G":{"ha":1024,"x_min":29,"x_max":972,"o":"m 707 664 q 506 811 668 811 q 279 497 279 811 q 515 182 279 182 q 656 228 601 182 q 714 347 711 275 l 525 347 l 525 528 l 972 528 l 972 0 l 793 0 l 768 126 l 765 126 q 479 -22 688 -22 q 151 123 272 -22 q 29 497 29 268 q 156 872 29 728 q 510 1015 282 1015 q 821 915 704 1015 q 957 664 938 815 l 707 664 z "},"H":{"ha":976,"x_min":68,"x_max":908,"o":"m 68 993 l 318 993 l 318 604 l 658 604 l 658 993 l 908 993 l 908 0 l 658 0 l 658 400 l 318 400 l 318 0 l 68 0 l 68 993 z "},"I":{"ha":388,"x_min":69,"x_max":319,"o":"m 69 993 l 319 993 l 319 0 l 69 0 l 69 993 z "},"J":{"ha":757,"x_min":18,"x_max":699,"o":"m 699 331 q 683 193 699 253 q 631 83 668 133 q 526 5 594 32 q 358 -22 457 -22 q 191 5 260 -22 q 85 83 122 32 q 33 193 49 133 q 18 331 18 253 l 18 414 l 240 414 l 240 331 q 263 219 240 256 q 344 182 286 182 q 426 219 403 182 q 449 331 449 256 l 449 993 l 699 993 l 699 331 z "},"K":{"ha":968,"x_min":68,"x_max":969,"o":"m 68 993 l 318 993 l 318 590 l 664 993 l 956 993 l 578 556 l 969 0 l 678 0 l 418 376 l 318 263 l 318 0 l 68 0 l 68 993 z "},"L":{"ha":785,"x_min":68,"x_max":760,"o":"m 68 993 l 318 993 l 318 204 l 760 204 l 760 0 l 68 0 l 68 993 z "},"M":{"ha":1158,"x_min":68,"x_max":1090,"o":"m 68 0 l 68 993 l 374 993 l 578 360 l 581 360 l 785 993 l 1090 993 l 1090 0 l 854 0 l 854 618 l 851 618 l 667 0 l 492 0 l 307 618 l 304 618 l 304 0 l 68 0 z "},"N":{"ha":986,"x_min":68,"x_max":918,"o":"m 68 0 l 68 993 l 318 993 l 665 403 l 668 403 l 668 993 l 918 993 l 918 0 l 668 0 l 321 590 l 318 590 l 318 0 l 68 0 z "},"O":{"ha":1039,"x_min":28,"x_max":1011,"o":"m 519 -22 q 158 122 289 -22 q 28 497 28 267 q 158 872 28 728 q 519 1015 289 1015 q 880 871 749 1015 q 1011 497 1011 726 q 880 122 1011 267 q 519 -22 749 -22 m 335 268 q 363 225 335 268 q 519 182 392 182 q 704 268 647 182 q 761 497 761 354 q 704 725 761 639 q 519 811 647 811 q 335 725 392 811 q 278 497 278 639 q 335 268 278 354 z "},"P":{"ha":906,"x_min":68,"x_max":886,"o":"m 68 0 l 68 993 l 550 993 q 797 912 708 993 q 886 676 886 831 q 797 441 886 522 q 550 360 708 360 l 318 360 l 318 0 l 68 0 m 318 789 l 318 564 l 497 564 q 636 676 636 564 q 497 789 636 789 l 318 789 z "},"Q":{"ha":1039,"x_min":28,"x_max":1011,"o":"m 1011 497 q 908 156 1011 294 l 1010 54 l 875 -81 l 763 32 q 519 -22 657 -22 q 158 122 289 -22 q 28 497 28 267 q 158 872 28 728 q 519 1015 289 1015 q 880 871 749 1015 q 1011 497 1011 726 m 519 182 q 601 194 567 182 l 479 317 l 614 451 l 736 329 q 761 497 761 403 q 704 725 761 639 q 519 811 647 811 q 335 725 392 811 q 278 497 278 639 q 335 268 278 354 q 519 182 392 182 z "},"R":{"ha":932,"x_min":68,"x_max":904,"o":"m 68 0 l 68 993 l 536 993 q 797 918 703 993 q 890 704 890 843 q 837 544 890 607 q 689 461 783 482 l 689 458 q 801 397 758 446 q 856 288 843 349 q 874 166 869 226 q 884 62 879 106 q 904 14 889 18 l 904 0 l 644 0 q 629 51 632 11 q 624 140 626 92 q 613 236 622 189 q 568 315 603 283 q 474 346 533 346 l 318 346 l 318 0 l 68 0 m 318 789 l 318 550 l 488 550 q 640 669 640 550 q 488 789 640 789 l 318 789 z "},"S":{"ha":899,"x_min":21,"x_max":867,"o":"m 486 617 q 599 583 556 597 q 700 542 643 569 q 789 483 757 514 q 844 402 821 451 q 867 292 867 353 q 763 63 867 147 q 474 -22 658 -22 q 148 72 275 -22 q 21 326 21 165 l 271 326 q 327 217 271 251 q 474 182 383 182 q 579 206 542 182 q 617 268 617 229 q 611 298 617 285 q 591 323 606 311 q 565 342 576 335 q 525 360 553 350 q 481 374 497 369 q 426 390 465 379 q 369 407 388 401 q 133 520 218 451 q 49 714 49 589 q 154 942 49 868 q 432 1015 260 1015 q 728 927 610 1015 q 853 692 847 839 l 603 692 q 549 779 594 747 q 432 811 504 811 q 335 792 372 811 q 299 732 299 772 q 339 668 299 690 q 486 617 379 646 z "},"T":{"ha":874,"x_min":24,"x_max":850,"o":"m 313 0 l 313 789 l 24 789 l 24 993 l 850 993 l 850 789 l 563 789 l 563 0 l 313 0 z "},"U":{"ha":953,"x_min":61,"x_max":892,"o":"m 892 358 q 794 73 892 168 q 476 -22 696 -22 q 159 73 257 -22 q 61 358 61 168 l 61 993 l 311 993 l 311 358 q 351 223 311 264 q 476 182 392 182 q 601 223 561 182 q 642 358 642 264 l 642 993 l 892 993 l 892 358 z "},"V":{"ha":904,"x_min":-3,"x_max":906,"o":"m -3 993 l 263 993 l 450 297 l 453 297 l 642 993 l 906 993 l 583 0 l 319 0 l -3 993 z "},"W":{"ha":1306,"x_min":0,"x_max":1306,"o":"m 0 993 l 250 993 l 378 319 l 381 319 l 535 993 l 771 993 l 925 319 l 928 319 l 1056 993 l 1306 993 l 1053 0 l 803 0 l 654 619 l 651 619 l 503 0 l 253 0 l 0 993 z "},"X":{"ha":960,"x_min":4,"x_max":956,"o":"m 333 507 l 32 993 l 296 993 l 478 690 l 481 690 l 664 993 l 928 993 l 626 510 l 956 0 l 678 0 l 481 322 l 478 322 l 282 0 l 4 0 l 333 507 z "},"Y":{"ha":921,"x_min":1,"x_max":919,"o":"m 1 993 l 265 993 l 458 585 l 461 585 l 656 993 l 919 993 l 585 367 l 585 0 l 335 0 l 335 367 l 1 993 z "},"Z":{"ha":847,"x_min":36,"x_max":810,"o":"m 64 993 l 796 993 l 796 789 l 342 207 l 342 204 l 810 204 l 810 0 l 36 0 l 36 204 l 490 786 l 490 789 l 64 789 l 64 993 z "},"[":{"ha":553,"x_min":81,"x_max":507,"o":"m 81 1069 l 507 1069 l 507 879 l 317 879 l 317 0 l 507 0 l 507 -190 l 81 -190 l 81 1069 z "},"\\":{"ha":607,"x_min":17,"x_max":582,"o":"m 17 993 l 197 993 l 582 0 l 401 0 l 17 993 z "},"]":{"ha":553,"x_min":47,"x_max":474,"o":"m 474 1069 l 474 -190 l 47 -190 l 47 0 l 238 0 l 238 879 l 47 879 l 47 1069 l 474 1069 z "},"^":{"ha":647,"x_min":8,"x_max":639,"o":"m 240 993 l 407 993 l 639 611 l 431 611 l 324 799 l 322 799 l 217 611 l 8 611 l 240 993 z "},"_":{"ha":597,"x_min":-4,"x_max":601,"o":"m -4 -76 l 601 -76 l 601 -267 l -4 -267 l -4 -76 z "},"`":{"ha":860,"x_min":117,"x_max":426,"o":"m 367 1000 l 426 806 l 260 806 l 117 1000 l 367 1000 z "},"a":{"ha":768,"x_min":21,"x_max":738,"o":"m 474 514 q 383 581 474 581 q 257 482 267 581 l 49 482 q 138 663 54 593 q 385 733 221 733 q 618 664 540 733 q 696 432 696 594 l 696 106 q 738 53 696 53 l 738 0 q 608 -22 678 -22 q 481 75 481 -22 l 478 75 q 382 6 442 33 q 254 -22 322 -22 q 83 34 144 -22 q 21 182 21 90 q 90 340 21 283 q 292 422 158 396 q 444 465 414 446 q 474 514 474 485 m 332 131 q 437 168 400 131 q 474 260 474 206 l 474 346 q 360 314 433 331 q 243 214 243 288 q 332 131 243 131 z "},"b":{"ha":817,"x_min":54,"x_max":794,"o":"m 485 733 q 710 632 626 733 q 794 356 794 531 q 710 79 794 181 q 485 -22 626 -22 q 360 7 415 -22 q 279 71 304 36 l 276 71 l 276 0 l 54 0 l 54 993 l 276 993 l 276 640 l 279 640 q 360 704 304 675 q 485 733 415 733 m 319 199 q 338 172 319 199 q 426 144 357 144 q 534 199 496 144 q 572 356 572 253 q 534 513 572 458 q 426 567 496 567 q 319 513 357 567 q 281 356 281 458 q 319 199 281 253 z "},"c":{"ha":750,"x_min":22,"x_max":732,"o":"m 514 446 q 388 567 499 567 q 282 511 319 567 q 244 356 244 456 q 281 199 244 254 q 388 144 318 144 q 514 268 500 144 l 732 268 q 631 58 724 139 q 389 -22 539 -22 q 122 83 222 -22 q 22 356 22 188 q 122 628 22 522 q 383 733 221 733 q 626 653 535 733 q 732 446 718 574 l 514 446 z "},"d":{"ha":817,"x_min":22,"x_max":763,"o":"m 540 993 l 763 993 l 763 0 l 540 0 l 540 71 l 538 71 q 457 7 513 36 q 332 -22 401 -22 q 106 79 190 -22 q 22 356 22 181 q 106 632 22 531 q 332 733 190 733 q 457 704 401 733 q 538 640 513 675 l 540 640 l 540 993 m 283 199 q 302 172 283 199 q 390 144 321 144 q 498 199 460 144 q 536 356 536 253 q 498 513 536 458 q 390 567 460 567 q 283 513 321 567 q 244 356 244 458 q 283 199 244 253 z "},"e":{"ha":778,"x_min":22,"x_max":756,"o":"m 397 144 q 524 215 496 144 l 744 215 q 628 41 714 104 q 401 -22 542 -22 q 124 82 226 -22 q 22 356 22 186 q 122 627 22 521 q 389 733 222 733 q 661 615 567 733 q 756 297 756 497 l 244 297 q 289 185 244 226 q 397 144 333 144 m 494 542 q 474 561 494 542 q 389 581 454 581 q 284 542 324 581 q 244 432 244 504 l 533 432 q 494 542 533 504 z "},"f":{"ha":485,"x_min":15,"x_max":467,"o":"m 467 825 q 406 824 424 825 q 371 815 389 822 q 348 790 353 807 q 343 742 343 774 l 343 711 l 467 711 l 467 544 l 343 544 l 343 0 l 121 0 l 121 544 l 15 544 l 15 711 l 121 711 l 121 760 q 167 946 121 886 q 329 1006 213 1006 q 467 992 400 1006 l 467 825 z "},"g":{"ha":794,"x_min":22,"x_max":740,"o":"m 518 711 l 740 711 l 740 69 q 651 -172 740 -99 q 390 -246 561 -246 q 145 -179 233 -246 q 36 -15 57 -112 l 258 -15 q 385 -86 283 -86 q 488 -46 458 -86 q 518 85 518 -6 l 518 126 l 515 126 q 321 33 446 33 q 104 131 186 33 q 22 383 22 228 q 104 636 22 539 q 321 733 186 733 q 515 640 446 733 l 518 640 l 518 711 m 244 383 q 244 292 244 383 q 379 200 244 200 q 514 383 514 200 q 379 567 514 567 q 244 383 244 567 z "},"h":{"ha":792,"x_min":54,"x_max":743,"o":"m 500 733 q 678 667 614 733 q 743 481 743 601 l 743 0 l 521 0 l 521 410 q 494 521 521 489 q 406 553 467 553 q 313 517 349 553 q 276 411 276 482 l 276 0 l 54 0 l 54 993 l 276 993 l 276 608 l 279 608 q 500 733 351 733 z "},"i":{"ha":331,"x_min":54,"x_max":276,"o":"m 245 822 q 230 809 245 822 q 165 796 214 796 q 85 822 117 796 q 54 894 54 847 q 85 967 54 940 q 165 993 117 993 q 245 967 214 993 q 276 894 276 940 q 245 822 276 847 m 54 711 l 276 711 l 276 0 l 54 0 l 54 711 z "},"j":{"ha":335,"x_min":-65,"x_max":281,"o":"m 249 822 q 234 809 249 822 q 169 796 218 796 q 90 822 121 796 q 58 894 58 847 q 90 967 58 940 q 169 993 121 993 q 249 967 218 993 q 281 894 281 940 q 249 822 281 847 m 58 711 l 281 711 l 281 0 q 235 -186 281 -126 q 72 -246 189 -246 q -65 -231 8 -246 l -65 -64 q 35 -52 13 -64 q 58 17 58 -40 l 58 711 z "},"k":{"ha":778,"x_min":54,"x_max":779,"o":"m 54 993 l 276 993 l 276 471 l 485 711 l 750 711 l 499 444 l 779 0 l 515 0 l 347 283 l 276 210 l 276 0 l 54 0 l 54 993 z "},"l":{"ha":333,"x_min":56,"x_max":278,"o":"m 56 993 l 278 993 l 278 0 l 56 0 l 56 993 z "},"m":{"ha":1206,"x_min":54,"x_max":1157,"o":"m 929 733 q 1097 667 1038 733 q 1157 481 1157 601 l 1157 0 l 932 0 l 932 410 q 910 522 932 490 q 831 553 889 553 q 715 411 715 553 l 715 0 l 493 0 l 493 410 q 472 522 493 490 q 392 553 450 553 q 276 411 276 553 l 276 0 l 54 0 l 54 711 l 276 711 l 276 608 l 279 608 q 368 698 310 663 q 501 733 426 733 q 617 699 569 733 q 688 608 665 665 l 690 608 q 797 702 743 671 q 929 733 850 733 z "},"n":{"ha":792,"x_min":54,"x_max":743,"o":"m 513 733 q 681 667 618 733 q 743 481 743 600 l 743 0 l 521 0 l 521 410 q 494 520 521 488 q 410 553 467 553 q 276 411 276 553 l 276 0 l 54 0 l 54 711 l 276 711 l 276 608 l 279 608 q 513 733 351 733 z "},"o":{"ha":804,"x_min":22,"x_max":782,"o":"m 125 83 q 176 30 125 83 q 403 -22 228 -22 q 680 83 578 -22 q 782 356 782 188 q 680 628 782 524 q 403 733 578 733 q 125 628 228 733 q 22 356 22 524 q 125 83 22 188 m 403 144 q 286 199 328 144 q 244 356 244 254 q 286 512 244 457 q 403 567 328 567 q 518 512 476 567 q 560 356 560 457 q 518 199 560 254 q 403 144 476 144 z "},"p":{"ha":822,"x_min":54,"x_max":794,"o":"m 485 733 q 710 632 626 733 q 794 356 794 531 q 710 79 794 181 q 485 -22 626 -22 q 360 7 415 -22 q 279 71 304 36 l 276 71 l 276 -246 l 54 -246 l 54 711 l 276 711 l 276 640 l 279 640 q 360 704 304 675 q 485 733 415 733 m 319 199 q 338 172 319 199 q 426 144 357 144 q 534 199 496 144 q 572 356 572 253 q 534 513 572 458 q 426 567 496 567 q 319 513 357 567 q 281 356 281 458 q 319 199 281 253 z "},"q":{"ha":822,"x_min":28,"x_max":768,"o":"m 546 711 l 768 711 l 768 -246 l 546 -246 l 546 71 l 543 71 q 463 7 518 36 q 338 -22 407 -22 q 112 79 196 -22 q 28 356 28 181 q 112 632 28 531 q 338 733 196 733 q 463 704 407 733 q 543 640 518 675 l 546 640 l 546 711 m 288 199 q 307 172 288 199 q 396 144 326 144 q 503 199 465 144 q 542 356 542 253 q 503 513 542 458 q 396 567 465 567 q 288 513 326 567 q 250 356 250 458 q 288 199 250 253 z "},"r":{"ha":532,"x_min":54,"x_max":514,"o":"m 453 724 q 514 718 489 724 l 514 524 l 511 524 q 348 489 419 540 q 276 331 276 438 l 276 0 l 54 0 l 54 711 l 276 711 l 276 594 l 279 594 q 453 724 336 724 z "},"s":{"ha":700,"x_min":11,"x_max":681,"o":"m 401 449 q 485 427 450 438 q 560 398 521 417 q 624 355 599 379 q 665 294 649 331 q 681 210 681 257 q 599 38 681 97 q 369 -22 518 -22 q 103 49 189 -22 q 11 236 17 119 l 219 236 q 361 131 229 131 q 458 192 458 131 q 399 257 458 236 q 279 286 378 264 q 187 311 225 297 q 108 349 149 325 q 47 413 68 374 q 25 506 25 453 q 108 669 25 606 q 336 733 190 733 q 575 665 496 733 q 660 493 654 597 l 451 493 q 342 581 440 581 q 247 524 247 581 q 249 509 247 515 q 254 497 250 503 q 263 488 258 492 q 276 479 267 483 q 292 473 285 475 q 313 467 299 471 q 338 462 328 464 q 367 456 347 460 q 401 449 388 451 z "},"t":{"ha":488,"x_min":15,"x_max":460,"o":"m 460 544 l 336 544 l 336 250 q 359 181 336 193 q 460 169 382 169 l 460 3 q 322 -12 386 -12 q 160 47 206 -12 q 114 233 114 107 l 114 544 l 15 544 l 15 711 l 114 711 l 114 910 l 336 910 l 336 711 l 460 711 l 460 544 z "},"u":{"ha":792,"x_min":49,"x_max":738,"o":"m 515 711 l 738 711 l 738 0 l 515 0 l 515 103 l 513 103 q 279 -22 440 -22 q 111 44 174 -22 q 49 231 49 111 l 49 711 l 271 711 l 271 301 q 298 191 271 224 q 382 158 325 158 q 515 300 515 158 l 515 711 z "},"v":{"ha":728,"x_min":-4,"x_max":732,"o":"m -4 711 l 218 711 l 363 247 l 365 247 l 510 711 l 732 711 l 486 0 l 242 0 l -4 711 z "},"w":{"ha":1088,"x_min":-3,"x_max":1089,"o":"m -3 711 l 219 711 l 326 278 l 329 278 l 446 711 l 640 711 l 757 278 l 760 278 l 867 711 l 1089 711 l 890 0 l 682 0 l 544 450 l 542 450 l 404 0 l 196 0 l -3 711 z "},"x":{"ha":778,"x_min":10,"x_max":768,"o":"m 38 711 l 274 711 l 388 506 l 390 506 l 504 711 l 740 711 l 524 363 l 768 0 l 518 0 l 390 219 l 388 219 l 260 0 l 10 0 l 254 363 l 38 711 z "},"y":{"ha":735,"x_min":-4,"x_max":739,"o":"m 739 711 l 497 -14 q 392 -197 451 -149 q 219 -246 333 -246 q 96 -232 161 -246 l 96 -65 l 99 -65 q 233 -36 199 -87 q 228 103 261 7 l -4 711 l 218 711 l 379 244 l 382 244 l 517 711 l 739 711 z "},"z":{"ha":701,"x_min":33,"x_max":671,"o":"m 33 160 l 379 542 l 379 544 l 61 544 l 61 711 l 657 711 l 657 551 l 311 169 l 311 167 l 671 167 l 671 0 l 33 0 l 33 160 z "},"{":{"ha":553,"x_min":35,"x_max":507,"o":"m 35 539 q 110 556 92 538 q 129 629 129 575 l 129 800 q 150 940 129 886 q 218 1022 171 994 q 322 1060 265 1050 q 469 1069 379 1069 l 507 1069 l 507 879 l 469 879 q 365 750 365 879 l 365 593 q 342 500 365 535 q 268 444 319 465 l 268 442 q 342 386 319 421 q 365 292 365 351 l 365 135 q 469 0 365 0 l 507 0 l 507 -190 l 469 -190 q 210 -135 290 -190 q 129 85 129 -81 l 129 256 q 110 328 129 310 q 35 347 92 347 l 35 539 z "},"|":{"ha":313,"x_min":81,"x_max":233,"o":"m 81 1047 l 233 1047 l 233 -192 l 81 -192 l 81 1047 z "},"}":{"ha":554,"x_min":47,"x_max":519,"o":"m 519 539 l 519 347 q 444 328 463 347 q 425 256 425 310 l 425 85 q 344 -135 425 -81 q 85 -190 264 -190 l 47 -190 l 47 0 l 85 0 q 189 135 189 0 l 189 292 q 212 386 189 351 q 286 442 235 421 l 286 444 q 212 500 235 465 q 189 593 189 535 l 189 750 q 85 879 189 879 l 47 879 l 47 1069 l 85 1069 q 232 1060 175 1069 q 336 1022 289 1050 q 404 940 383 994 q 425 800 425 886 l 425 629 q 444 556 425 575 q 519 539 463 538 z "},"~":{"ha":615,"x_min":33,"x_max":592,"o":"m 33 332 q 199 575 33 575 q 309 544 250 575 q 396 513 368 513 q 453 575 453 513 l 592 575 q 426 332 592 332 q 316 363 375 332 q 229 394 257 394 q 172 332 172 394 l 33 332 z "},"¡":{"ha":367,"x_min":65,"x_max":301,"o":"m 183 825 q 267 792 233 825 q 301 707 301 760 q 267 622 301 654 q 183 589 233 589 q 99 622 132 589 q 65 707 65 654 q 99 792 65 760 q 183 825 132 825 m 65 -181 l 65 36 l 128 488 l 239 488 l 301 36 l 301 -181 l 65 -181 z "},"¢":{"ha":756,"x_min":22,"x_max":732,"o":"m 428 149 q 514 268 504 171 l 732 268 q 644 69 725 149 q 428 -21 563 -10 l 428 -149 l 344 -149 l 344 -19 q 109 97 196 -6 q 22 356 22 199 q 110 615 22 511 q 344 732 197 718 l 344 825 l 428 825 l 428 732 q 640 642 560 719 q 732 446 719 564 l 514 446 q 428 561 503 542 l 428 149 m 344 560 q 244 356 244 528 q 344 151 244 183 l 344 560 z "},"£":{"ha":814,"x_min":32,"x_max":796,"o":"m 561 168 q 623 180 593 168 q 667 201 653 192 q 707 232 681 211 l 789 64 q 684 -3 728 17 q 574 -22 640 -22 q 488 -8 526 -22 q 429 22 450 6 q 380 51 408 38 q 321 65 351 65 q 144 0 247 65 l 32 171 q 124 265 89 208 q 158 383 158 322 q 157 401 158 396 l 39 401 l 39 526 l 106 526 q 53 692 53 618 q 70 790 53 744 q 126 879 88 836 q 238 948 164 922 q 415 974 313 974 q 703 879 611 974 q 796 617 796 785 l 560 617 q 419 783 560 783 q 289 668 289 783 q 339 526 289 613 l 546 526 l 546 401 l 393 401 q 394 376 394 393 q 368 275 394 314 q 285 196 342 236 l 286 193 q 388 221 344 221 q 478 194 431 221 q 561 168 525 168 z "},"¤":{"ha":711,"x_min":19,"x_max":692,"o":"m 639 485 q 608 350 639 411 l 692 267 l 574 149 l 492 231 q 357 201 426 201 q 221 232 282 201 l 138 149 l 19 267 l 103 350 q 74 485 74 415 q 103 619 74 554 l 19 703 l 138 821 l 221 738 q 357 768 282 768 q 492 739 433 768 l 574 821 l 692 703 l 610 621 q 639 485 639 560 m 357 326 q 444 369 417 326 q 472 485 472 413 q 444 600 472 557 q 357 643 417 643 q 240 485 240 643 q 357 326 240 326 z "},"¥":{"ha":897,"x_min":1,"x_max":890,"o":"m 890 953 l 596 425 l 793 425 l 793 342 l 564 342 l 564 261 l 793 261 l 793 178 l 564 178 l 564 0 l 328 0 l 328 178 l 99 178 l 99 261 l 328 261 l 328 342 l 99 342 l 99 425 l 296 425 l 1 953 l 265 953 l 444 576 l 447 576 l 626 953 l 890 953 z "},"¦":{"ha":313,"x_min":81,"x_max":233,"o":"m 81 1047 l 233 1047 l 233 533 l 81 533 l 81 1047 m 81 340 l 233 340 l 233 -192 l 81 -192 l 81 340 z "},"§":{"ha":868,"x_min":40,"x_max":833,"o":"m 833 372 q 693 165 833 226 q 765 -4 765 97 q 683 -180 765 -114 q 454 -246 601 -246 q 210 -176 290 -246 q 124 6 129 -106 l 346 6 q 376 -70 351 -47 q 460 -93 401 -93 q 543 -26 543 -93 q 531 19 543 -1 q 491 58 519 39 q 440 88 463 76 q 375 118 418 99 q 301 151 350 129 q 228 183 251 172 q 169 213 206 193 q 114 249 132 232 q 76 288 96 265 q 48 338 56 311 q 40 397 40 365 q 181 604 40 543 q 108 774 108 672 q 190 949 108 883 q 419 1015 272 1015 q 664 945 583 1015 q 750 764 744 875 l 528 764 q 497 840 522 817 q 414 863 472 863 q 331 796 331 863 q 342 751 331 771 q 383 712 354 731 q 433 682 411 693 q 499 651 456 671 q 573 619 524 640 q 645 587 622 597 q 705 557 668 576 q 760 521 742 538 q 798 481 778 504 q 826 431 818 458 q 833 372 833 404 m 497 281 l 539 260 q 611 318 611 267 q 606 347 611 333 q 589 372 601 360 q 564 393 576 383 q 527 415 551 403 q 485 437 503 428 q 433 462 467 446 q 376 489 400 478 l 335 510 q 263 451 263 503 q 267 423 263 436 q 285 398 272 410 q 310 376 297 386 q 347 354 322 367 q 389 333 371 342 q 440 308 407 324 q 497 281 474 292 z "},"¨":{"ha":681,"x_min":85,"x_max":596,"o":"m 113 828 q 99 843 113 828 q 85 903 85 858 q 114 978 85 947 q 192 1008 143 1008 q 269 978 240 1008 q 297 903 297 947 q 269 828 297 858 q 192 797 240 797 q 113 828 142 797 m 412 828 q 398 843 412 828 q 383 903 383 858 q 413 978 383 947 q 490 1008 442 1008 q 567 978 539 1008 q 596 903 596 947 q 567 828 596 858 q 490 797 539 797 q 412 828 440 797 z "},"©":{"ha":1135,"x_min":56,"x_max":1079,"o":"m 940 124 q 870 51 940 124 q 568 -22 800 -22 q 196 124 336 -22 q 56 496 56 269 q 196 869 56 722 q 568 1015 336 1015 q 940 869 800 1015 q 1079 496 1079 722 q 940 124 1079 269 m 254 174 q 312 110 254 174 q 568 47 369 47 q 881 174 767 47 q 996 496 996 300 q 881 819 996 693 q 568 946 767 946 q 254 819 369 946 q 139 496 139 693 q 254 174 139 300 m 668 571 q 569 671 657 671 q 457 496 457 671 q 569 322 457 322 q 668 424 657 322 l 847 424 q 769 251 840 317 q 576 185 699 185 q 356 271 438 185 q 274 496 274 357 q 353 722 274 635 q 565 808 432 808 q 763 742 689 808 q 847 571 836 676 l 668 571 z "},"«":{"ha":563,"x_min":42,"x_max":521,"o":"m 42 246 l 42 454 l 256 654 l 256 446 l 147 351 l 147 349 l 256 254 l 256 46 l 42 246 m 307 246 l 307 454 l 521 654 l 521 446 l 413 351 l 413 349 l 521 254 l 521 46 l 307 246 z "},"¬":{"ha":728,"x_min":56,"x_max":651,"o":"m 429 407 l 56 407 l 56 597 l 651 597 l 651 186 l 429 186 l 429 407 z "},"®":{"ha":738,"x_min":36,"x_max":701,"o":"m 606 439 q 558 391 606 439 q 369 343 510 343 q 133 439 229 343 q 36 679 36 535 q 133 919 36 824 q 369 1015 229 1015 q 606 919 510 1015 q 701 679 701 824 q 606 439 701 535 m 187 485 q 220 449 187 485 q 369 413 254 413 q 551 485 485 413 q 618 681 618 558 q 551 875 618 803 q 369 947 485 947 q 187 874 254 947 q 119 681 119 801 q 187 485 119 558 m 224 500 l 224 861 l 394 861 q 488 834 454 861 q 522 757 522 807 q 450 668 522 683 l 450 667 q 497 635 481 661 q 515 582 514 610 q 519 531 517 554 q 528 506 522 507 l 528 500 l 433 500 q 428 538 428 506 q 417 599 428 571 q 371 626 406 626 l 314 626 l 314 500 l 224 500 m 314 788 l 314 700 l 376 700 q 432 743 432 700 q 376 788 432 788 l 314 788 z "},"¯":{"ha":694,"x_min":153,"x_max":550,"o":"m 153 972 l 550 972 l 550 833 l 153 833 l 153 972 z "},"°":{"ha":521,"x_min":44,"x_max":478,"o":"m 418 651 q 388 620 418 651 q 261 589 358 589 q 104 651 164 589 q 44 803 44 714 q 104 953 44 892 q 261 1015 164 1015 q 418 953 358 1015 q 478 803 478 892 q 418 651 478 714 m 197 726 q 211 713 197 726 q 261 700 225 700 q 325 726 297 700 q 353 803 353 751 q 326 879 353 854 q 261 904 299 904 q 197 879 224 904 q 169 803 169 854 q 197 726 169 751 z "},"±":{"ha":786,"x_min":56,"x_max":731,"o":"m 56 424 l 56 614 l 297 614 l 297 804 l 489 804 l 489 614 l 731 614 l 731 424 l 489 424 l 489 233 l 297 233 l 297 424 l 56 424 m 56 167 l 731 167 l 731 0 l 56 0 l 56 167 z "},"´":{"ha":664,"x_min":238,"x_max":547,"o":"m 297 1000 l 547 1000 l 404 806 l 238 806 l 297 1000 z "},"¶":{"ha":838,"x_min":38,"x_max":763,"o":"m 386 465 l 328 465 q 113 533 188 465 q 38 725 38 600 q 113 922 38 851 q 328 993 189 993 l 763 993 l 763 0 l 624 0 l 624 868 l 525 868 l 525 0 l 386 0 l 386 465 z "},"·":{"ha":325,"x_min":44,"x_max":281,"o":"m 163 313 q 78 345 111 313 q 44 431 44 378 q 78 516 44 483 q 163 549 111 549 q 247 516 213 549 q 281 431 281 483 q 247 345 281 378 q 163 313 213 313 z "},"¸":{"ha":703,"x_min":160,"x_max":497,"o":"m 394 -14 l 342 -72 l 342 -75 q 451 -92 406 -68 q 497 -168 497 -117 q 444 -246 497 -217 q 315 -275 392 -275 q 160 -235 226 -275 l 201 -186 q 297 -207 246 -207 q 339 -197 319 -207 q 358 -167 358 -186 q 306 -129 358 -129 q 257 -139 283 -129 l 233 -106 l 313 -14 l 394 -14 z "},"»":{"ha":563,"x_min":42,"x_max":521,"o":"m 256 246 l 42 46 l 42 254 l 150 349 l 150 351 l 42 446 l 42 654 l 256 454 l 256 246 m 521 246 l 307 46 l 307 254 l 415 349 l 415 351 l 307 446 l 307 654 l 521 454 l 521 246 z "},"¿":{"ha":760,"x_min":24,"x_max":743,"o":"m 397 828 q 482 795 449 828 q 515 710 515 763 q 482 624 515 657 q 397 592 449 592 q 313 624 347 592 q 279 710 279 657 q 313 795 279 763 q 397 828 347 828 m 507 131 l 743 131 q 643 -107 743 -14 q 356 -200 543 -200 q 117 -125 210 -200 q 24 69 24 -50 q 61 205 24 150 q 175 303 99 260 q 281 382 253 346 q 308 490 308 418 l 489 490 q 490 443 489 475 q 490 399 490 411 q 488 364 489 388 q 481 328 486 340 q 467 298 476 315 q 444 266 458 281 q 411 236 431 251 q 358 199 392 221 q 306 166 324 178 q 274 131 289 154 q 260 81 260 108 q 288 17 260 43 q 369 -10 317 -10 q 507 131 507 -10 z "},"À":{"ha":968,"x_min":-1,"x_max":967,"o":"m 508 1282 l 568 1088 l 401 1088 l 258 1282 l 508 1282 m 653 207 l 313 207 l 249 0 l -1 0 l 358 993 l 608 993 l 967 0 l 717 0 l 653 207 m 369 397 l 597 397 l 485 764 l 482 764 l 369 397 z "},"Á":{"ha":968,"x_min":-1,"x_max":967,"o":"m 457 1282 l 707 1282 l 564 1088 l 397 1088 l 457 1282 m 653 207 l 313 207 l 249 0 l -1 0 l 358 993 l 608 993 l 967 0 l 717 0 l 653 207 m 369 397 l 597 397 l 485 764 l 482 764 l 369 397 z "},"Â":{"ha":968,"x_min":-1,"x_max":967,"o":"m 226 1088 l 375 1282 l 592 1282 l 740 1088 l 547 1088 l 485 1183 l 482 1183 l 419 1088 l 226 1088 m 653 207 l 313 207 l 249 0 l -1 0 l 358 993 l 608 993 l 967 0 l 717 0 l 653 207 m 369 397 l 597 397 l 485 764 l 482 764 l 369 397 z "},"Ã":{"ha":968,"x_min":-1,"x_max":967,"o":"m 253 1107 q 375 1294 253 1294 q 468 1268 408 1294 q 553 1242 528 1242 q 599 1294 599 1242 l 714 1294 q 683 1151 714 1194 q 592 1107 653 1107 q 499 1133 558 1107 q 414 1158 439 1158 q 368 1107 368 1158 l 253 1107 m 653 207 l 313 207 l 249 0 l -1 0 l 358 993 l 608 993 l 967 0 l 717 0 l 653 207 m 369 397 l 597 397 l 485 764 l 482 764 l 369 397 z "},"Ä":{"ha":968,"x_min":-1,"x_max":967,"o":"m 256 1110 q 242 1125 256 1110 q 228 1185 228 1140 q 257 1260 228 1229 q 335 1290 286 1290 q 412 1260 383 1290 q 440 1185 440 1229 q 412 1110 440 1140 q 335 1079 383 1079 q 256 1110 285 1079 m 555 1110 q 541 1125 555 1110 q 526 1185 526 1140 q 556 1260 526 1229 q 633 1290 585 1290 q 710 1260 682 1290 q 739 1185 739 1229 q 710 1110 739 1140 q 633 1079 682 1079 q 555 1110 583 1079 m 653 207 l 313 207 l 249 0 l -1 0 l 358 993 l 608 993 l 967 0 l 717 0 l 653 207 m 369 397 l 597 397 l 485 764 l 482 764 l 369 397 z "},"Å":{"ha":968,"x_min":-1,"x_max":967,"o":"m 584 1110 q 564 1091 584 1110 q 483 1072 543 1072 q 383 1110 424 1072 q 342 1211 342 1149 q 383 1312 342 1274 q 483 1350 424 1350 q 584 1312 543 1350 q 625 1211 625 1274 q 584 1110 625 1149 m 483 1149 q 526 1165 510 1149 q 542 1211 542 1182 q 526 1257 542 1240 q 483 1274 510 1274 q 442 1257 458 1274 q 426 1211 426 1240 q 442 1165 426 1182 q 483 1149 458 1149 m 653 207 l 313 207 l 249 0 l -1 0 l 358 993 l 608 993 l 967 0 l 717 0 l 653 207 m 369 397 l 597 397 l 485 764 l 482 764 l 369 397 z "},"Æ":{"ha":1400,"x_min":-1,"x_max":1360,"o":"m 849 204 l 1360 204 l 1360 0 l 599 0 l 599 204 l 313 204 l 249 -3 l -1 -3 l 374 993 l 1351 993 l 1351 789 l 849 789 l 849 613 l 1282 613 l 1282 408 l 849 408 l 849 204 m 369 394 l 599 394 l 599 789 l 497 789 l 369 394 z "},"Ç":{"ha":968,"x_min":28,"x_max":949,"o":"m 499 182 q 639 232 593 182 q 699 372 685 282 l 949 372 q 832 97 932 201 q 554 -21 732 -8 l 507 -72 l 507 -75 q 617 -92 571 -68 q 663 -168 663 -117 q 610 -246 663 -217 q 481 -275 557 -275 q 325 -235 392 -275 l 367 -186 q 463 -207 411 -207 q 504 -197 485 -207 q 524 -167 524 -186 q 471 -129 524 -129 q 422 -139 449 -129 l 399 -106 l 472 -21 q 144 133 260 -8 q 28 497 28 275 q 154 872 28 728 q 510 1015 281 1015 q 819 909 707 1015 q 949 624 931 803 l 699 624 q 638 762 683 713 q 499 811 592 811 q 278 497 278 811 q 499 182 278 182 z "},"È":{"ha":872,"x_min":68,"x_max":829,"o":"m 474 1282 l 533 1088 l 367 1088 l 224 1282 l 474 1282 m 318 613 l 751 613 l 751 408 l 318 408 l 318 204 l 829 204 l 829 0 l 68 0 l 68 993 l 821 993 l 821 789 l 318 789 l 318 613 z "},"É":{"ha":872,"x_min":68,"x_max":829,"o":"m 422 1282 l 672 1282 l 529 1088 l 363 1088 l 422 1282 m 318 613 l 751 613 l 751 408 l 318 408 l 318 204 l 829 204 l 829 0 l 68 0 l 68 993 l 821 993 l 821 789 l 318 789 l 318 613 z "},"Ê":{"ha":872,"x_min":68,"x_max":829,"o":"m 192 1088 l 340 1282 l 557 1282 l 706 1088 l 513 1088 l 450 1183 l 447 1183 l 385 1088 l 192 1088 m 318 613 l 751 613 l 751 408 l 318 408 l 318 204 l 829 204 l 829 0 l 68 0 l 68 993 l 821 993 l 821 789 l 318 789 l 318 613 z "},"Ë":{"ha":872,"x_min":68,"x_max":829,"o":"m 222 1110 q 207 1125 222 1110 q 193 1185 193 1140 q 222 1260 193 1229 q 300 1290 251 1290 q 377 1260 349 1290 q 406 1185 406 1229 q 377 1110 406 1140 q 300 1079 349 1079 q 222 1110 250 1079 m 520 1110 q 506 1125 520 1110 q 492 1185 492 1140 q 521 1260 492 1229 q 599 1290 550 1290 q 676 1260 647 1290 q 704 1185 704 1229 q 676 1110 704 1140 q 599 1079 647 1079 q 520 1110 549 1079 m 318 613 l 751 613 l 751 408 l 318 408 l 318 204 l 829 204 l 829 0 l 68 0 l 68 993 l 821 993 l 821 789 l 318 789 l 318 613 z "},"Ì":{"ha":388,"x_min":-31,"x_max":319,"o":"m 219 1282 l 279 1088 l 113 1088 l -31 1282 l 219 1282 m 69 993 l 319 993 l 319 0 l 69 0 l 69 993 z "},"Í":{"ha":388,"x_min":69,"x_max":418,"o":"m 168 1282 l 418 1282 l 275 1088 l 108 1088 l 168 1282 m 69 993 l 319 993 l 319 0 l 69 0 l 69 993 z "},"Î":{"ha":388,"x_min":-62,"x_max":451,"o":"m -62 1088 l 86 1282 l 303 1282 l 451 1088 l 258 1088 l 196 1183 l 193 1183 l 131 1088 l -62 1088 m 69 993 l 319 993 l 319 0 l 69 0 l 69 993 z "},"Ï":{"ha":388,"x_min":-61,"x_max":450,"o":"m -33 1110 q -47 1125 -33 1110 q -61 1185 -61 1140 q -32 1260 -61 1229 q 46 1290 -3 1290 q 123 1260 94 1290 q 151 1185 151 1229 q 123 1110 151 1140 q 46 1079 94 1079 q -33 1110 -4 1079 m 266 1110 q 252 1125 266 1110 q 238 1185 238 1140 q 267 1260 238 1229 q 344 1290 296 1290 q 422 1260 393 1290 q 450 1185 450 1229 q 422 1110 450 1140 q 344 1079 393 1079 q 266 1110 294 1079 m 69 993 l 319 993 l 319 0 l 69 0 l 69 993 z "},"Ð":{"ha":992,"x_min":4,"x_max":964,"o":"m 521 993 q 847 863 729 993 q 964 496 964 733 q 853 128 964 257 q 535 0 742 0 l 81 0 l 81 451 l 4 451 l 4 576 l 81 576 l 81 993 l 521 993 m 496 204 q 714 496 714 204 q 496 789 714 789 l 331 789 l 331 576 l 529 576 l 529 451 l 331 451 l 331 204 l 496 204 z "},"Ñ":{"ha":986,"x_min":68,"x_max":918,"o":"m 263 1107 q 385 1294 263 1294 q 478 1268 418 1294 q 563 1242 538 1242 q 608 1294 608 1242 l 724 1294 q 693 1151 724 1194 q 601 1107 663 1107 q 508 1133 568 1107 q 424 1158 449 1158 q 378 1107 378 1158 l 263 1107 m 68 0 l 68 993 l 318 993 l 665 403 l 668 403 l 668 993 l 918 993 l 918 0 l 668 0 l 321 590 l 318 590 l 318 0 l 68 0 z "},"Ò":{"ha":1039,"x_min":28,"x_max":1011,"o":"m 544 1282 l 604 1088 l 438 1088 l 294 1282 l 544 1282 m 519 -22 q 158 122 289 -22 q 28 497 28 267 q 158 872 28 728 q 519 1015 289 1015 q 880 871 749 1015 q 1011 497 1011 726 q 880 122 1011 267 q 519 -22 749 -22 m 335 268 q 363 225 335 268 q 519 182 392 182 q 704 268 647 182 q 761 497 761 354 q 704 725 761 639 q 519 811 647 811 q 335 725 392 811 q 278 497 278 639 q 335 268 278 354 z "},"Ó":{"ha":1039,"x_min":28,"x_max":1011,"o":"m 493 1282 l 743 1282 l 600 1088 l 433 1088 l 493 1282 m 519 -22 q 158 122 289 -22 q 28 497 28 267 q 158 872 28 728 q 519 1015 289 1015 q 880 871 749 1015 q 1011 497 1011 726 q 880 122 1011 267 q 519 -22 749 -22 m 335 268 q 363 225 335 268 q 519 182 392 182 q 704 268 647 182 q 761 497 761 354 q 704 725 761 639 q 519 811 647 811 q 335 725 392 811 q 278 497 278 639 q 335 268 278 354 z "},"Ô":{"ha":1039,"x_min":28,"x_max":1011,"o":"m 263 1088 l 411 1282 l 628 1282 l 776 1088 l 583 1088 l 521 1183 l 518 1183 l 456 1088 l 263 1088 m 519 -22 q 158 122 289 -22 q 28 497 28 267 q 158 872 28 728 q 519 1015 289 1015 q 880 871 749 1015 q 1011 497 1011 726 q 880 122 1011 267 q 519 -22 749 -22 m 335 268 q 363 225 335 268 q 519 182 392 182 q 704 268 647 182 q 761 497 761 354 q 704 725 761 639 q 519 811 647 811 q 335 725 392 811 q 278 497 278 639 q 335 268 278 354 z "},"Õ":{"ha":1039,"x_min":28,"x_max":1011,"o":"m 289 1107 q 411 1294 289 1294 q 504 1268 444 1294 q 589 1242 564 1242 q 635 1294 635 1242 l 750 1294 q 719 1151 750 1194 q 628 1107 689 1107 q 535 1133 594 1107 q 450 1158 475 1158 q 404 1107 404 1158 l 289 1107 m 519 -22 q 158 122 289 -22 q 28 497 28 267 q 158 872 28 728 q 519 1015 289 1015 q 880 871 749 1015 q 1011 497 1011 726 q 880 122 1011 267 q 519 -22 749 -22 m 335 268 q 363 225 335 268 q 519 182 392 182 q 704 268 647 182 q 761 497 761 354 q 704 725 761 639 q 519 811 647 811 q 335 725 392 811 q 278 497 278 639 q 335 268 278 354 z "},"Ö":{"ha":1039,"x_min":28,"x_max":1011,"o":"m 292 1110 q 278 1125 292 1110 q 264 1185 264 1140 q 293 1260 264 1229 q 371 1290 322 1290 q 448 1260 419 1290 q 476 1185 476 1229 q 448 1110 476 1140 q 371 1079 419 1079 q 292 1110 321 1079 m 591 1110 q 577 1125 591 1110 q 563 1185 563 1140 q 592 1260 563 1229 q 669 1290 621 1290 q 747 1260 718 1290 q 775 1185 775 1229 q 747 1110 775 1140 q 669 1079 718 1079 q 591 1110 619 1079 m 519 -22 q 158 122 289 -22 q 28 497 28 267 q 158 872 28 728 q 519 1015 289 1015 q 880 871 749 1015 q 1011 497 1011 726 q 880 122 1011 267 q 519 -22 749 -22 m 335 268 q 363 225 335 268 q 519 182 392 182 q 704 268 647 182 q 761 497 761 354 q 704 725 761 639 q 519 811 647 811 q 335 725 392 811 q 278 497 278 639 q 335 268 278 354 z "},"×":{"ha":786,"x_min":54,"x_max":724,"o":"m 724 656 l 524 457 l 724 257 l 589 122 l 389 322 l 189 122 l 54 257 l 254 457 l 54 656 l 189 790 l 389 590 l 589 790 l 724 656 z "},"Ø":{"ha":1044,"x_min":28,"x_max":1017,"o":"m 1017 935 l 914 832 q 1014 497 1014 696 q 883 122 1014 267 q 522 -22 751 -22 q 183 99 313 -22 l 86 1 l 28 61 l 128 163 q 31 497 31 296 q 161 872 31 728 q 522 1015 292 1015 q 858 894 729 1015 l 957 993 l 1017 935 m 281 497 q 303 338 281 406 l 699 735 q 522 811 638 811 q 338 725 394 811 q 281 497 281 639 m 764 497 q 740 658 764 592 l 343 260 q 522 182 406 182 q 707 268 650 182 q 764 497 764 354 z "},"Ù":{"ha":953,"x_min":61,"x_max":892,"o":"m 501 1282 l 561 1088 l 394 1088 l 251 1282 l 501 1282 m 892 358 q 794 73 892 168 q 476 -22 696 -22 q 159 73 257 -22 q 61 358 61 168 l 61 993 l 311 993 l 311 358 q 351 223 311 264 q 476 182 392 182 q 601 223 561 182 q 642 358 642 264 l 642 993 l 892 993 l 892 358 z "},"Ú":{"ha":953,"x_min":61,"x_max":892,"o":"m 450 1282 l 700 1282 l 557 1088 l 390 1088 l 450 1282 m 892 358 q 794 73 892 168 q 476 -22 696 -22 q 159 73 257 -22 q 61 358 61 168 l 61 993 l 311 993 l 311 358 q 351 223 311 264 q 476 182 392 182 q 601 223 561 182 q 642 358 642 264 l 642 993 l 892 993 l 892 358 z "},"Û":{"ha":953,"x_min":61,"x_max":892,"o":"m 219 1088 l 368 1282 l 585 1282 l 733 1088 l 540 1088 l 478 1183 l 475 1183 l 413 1088 l 219 1088 m 892 358 q 794 73 892 168 q 476 -22 696 -22 q 159 73 257 -22 q 61 358 61 168 l 61 993 l 311 993 l 311 358 q 351 223 311 264 q 476 182 392 182 q 601 223 561 182 q 642 358 642 264 l 642 993 l 892 993 l 892 358 z "},"Ü":{"ha":953,"x_min":61,"x_max":892,"o":"m 249 1110 q 235 1125 249 1110 q 221 1185 221 1140 q 250 1260 221 1229 q 328 1290 279 1290 q 405 1260 376 1290 q 433 1185 433 1229 q 405 1110 433 1140 q 328 1079 376 1079 q 249 1110 278 1079 m 548 1110 q 534 1125 548 1110 q 519 1185 519 1140 q 549 1260 519 1229 q 626 1290 578 1290 q 703 1260 675 1290 q 732 1185 732 1229 q 703 1110 732 1140 q 626 1079 675 1079 q 548 1110 576 1079 m 892 358 q 794 73 892 168 q 476 -22 696 -22 q 159 73 257 -22 q 61 358 61 168 l 61 993 l 311 993 l 311 358 q 351 223 311 264 q 476 182 392 182 q 601 223 561 182 q 642 358 642 264 l 642 993 l 892 993 l 892 358 z "},"Ý":{"ha":921,"x_min":1,"x_max":919,"o":"m 435 1282 l 685 1282 l 542 1088 l 375 1088 l 435 1282 m 1 993 l 265 993 l 458 585 l 461 585 l 656 993 l 919 993 l 585 367 l 585 0 l 335 0 l 335 367 l 1 993 z "},"Þ":{"ha":903,"x_min":68,"x_max":886,"o":"m 68 0 l 68 993 l 318 993 l 318 854 l 550 854 q 797 773 708 854 q 886 538 886 692 q 797 302 886 383 q 550 221 708 221 l 318 221 l 318 0 l 68 0 m 318 650 l 318 425 l 497 425 q 636 538 636 425 q 497 650 636 650 l 318 650 z "},"ß":{"ha":800,"x_min":54,"x_max":778,"o":"m 276 707 l 276 0 l 54 0 l 54 651 q 140 916 54 817 q 393 1015 225 1015 q 628 935 535 1015 q 722 746 722 856 q 597 550 722 601 l 597 547 q 730 442 682 521 q 778 269 778 363 q 692 56 778 133 q 482 -22 606 -22 q 346 0 408 -22 l 346 167 q 556 311 556 128 q 513 431 556 386 q 381 476 469 476 l 346 476 l 346 615 l 375 615 q 466 648 432 615 q 500 735 500 681 q 472 818 500 788 q 393 849 443 849 q 276 707 276 849 z "},"à":{"ha":768,"x_min":21,"x_max":738,"o":"m 410 1000 l 469 806 l 303 806 l 160 1000 l 410 1000 m 474 514 q 383 581 474 581 q 257 482 267 581 l 49 482 q 138 663 54 593 q 385 733 221 733 q 618 664 540 733 q 696 432 696 594 l 696 106 q 738 53 696 53 l 738 0 q 608 -22 678 -22 q 481 75 481 -22 l 478 75 q 382 6 442 33 q 254 -22 322 -22 q 83 34 144 -22 q 21 182 21 90 q 90 340 21 283 q 292 422 158 396 q 444 465 414 446 q 474 514 474 485 m 332 131 q 437 168 400 131 q 474 260 474 206 l 474 346 q 360 314 433 331 q 243 214 243 288 q 332 131 243 131 z "},"á":{"ha":768,"x_min":21,"x_max":738,"o":"m 358 1000 l 608 1000 l 465 806 l 299 806 l 358 1000 m 474 514 q 383 581 474 581 q 257 482 267 581 l 49 482 q 138 663 54 593 q 385 733 221 733 q 618 664 540 733 q 696 432 696 594 l 696 106 q 738 53 696 53 l 738 0 q 608 -22 678 -22 q 481 75 481 -22 l 478 75 q 382 6 442 33 q 254 -22 322 -22 q 83 34 144 -22 q 21 182 21 90 q 90 340 21 283 q 292 422 158 396 q 444 465 414 446 q 474 514 474 485 m 332 131 q 437 168 400 131 q 474 260 474 206 l 474 346 q 360 314 433 331 q 243 214 243 288 q 332 131 243 131 z "},"â":{"ha":768,"x_min":21,"x_max":738,"o":"m 128 806 l 276 1000 l 493 1000 l 642 806 l 449 806 l 386 901 l 383 901 l 321 806 l 128 806 m 474 514 q 383 581 474 581 q 257 482 267 581 l 49 482 q 138 663 54 593 q 385 733 221 733 q 618 664 540 733 q 696 432 696 594 l 696 106 q 738 53 696 53 l 738 0 q 608 -22 678 -22 q 481 75 481 -22 l 478 75 q 382 6 442 33 q 254 -22 322 -22 q 83 34 144 -22 q 21 182 21 90 q 90 340 21 283 q 292 422 158 396 q 444 465 414 446 q 474 514 474 485 m 332 131 q 437 168 400 131 q 474 260 474 206 l 474 346 q 360 314 433 331 q 243 214 243 288 q 332 131 243 131 z "},"ã":{"ha":768,"x_min":21,"x_max":738,"o":"m 154 825 q 276 1013 154 1013 q 369 986 310 1013 q 454 960 429 960 q 500 1013 500 960 l 615 1013 q 585 869 615 913 q 493 825 554 825 q 400 851 460 825 q 315 876 340 876 q 269 825 269 876 l 154 825 m 474 514 q 383 581 474 581 q 257 482 267 581 l 49 482 q 138 663 54 593 q 385 733 221 733 q 618 664 540 733 q 696 432 696 594 l 696 106 q 738 53 696 53 l 738 0 q 608 -22 678 -22 q 481 75 481 -22 l 478 75 q 382 6 442 33 q 254 -22 322 -22 q 83 34 144 -22 q 21 182 21 90 q 90 340 21 283 q 292 422 158 396 q 444 465 414 446 q 474 514 474 485 m 332 131 q 437 168 400 131 q 474 260 474 206 l 474 346 q 360 314 433 331 q 243 214 243 288 q 332 131 243 131 z "},"ä":{"ha":768,"x_min":21,"x_max":738,"o":"m 158 828 q 143 843 158 828 q 129 903 129 858 q 158 978 129 947 q 236 1008 188 1008 q 313 978 285 1008 q 342 903 342 947 q 313 828 342 858 q 236 797 285 797 q 158 828 186 797 m 456 828 q 442 843 456 828 q 428 903 428 858 q 457 978 428 947 q 535 1008 486 1008 q 612 978 583 1008 q 640 903 640 947 q 612 828 640 858 q 535 797 583 797 q 456 828 485 797 m 474 514 q 383 581 474 581 q 257 482 267 581 l 49 482 q 138 663 54 593 q 385 733 221 733 q 618 664 540 733 q 696 432 696 594 l 696 106 q 738 53 696 53 l 738 0 q 608 -22 678 -22 q 481 75 481 -22 l 478 75 q 382 6 442 33 q 254 -22 322 -22 q 83 34 144 -22 q 21 182 21 90 q 90 340 21 283 q 292 422 158 396 q 444 465 414 446 q 474 514 474 485 m 332 131 q 437 168 400 131 q 474 260 474 206 l 474 346 q 360 314 433 331 q 243 214 243 288 q 332 131 243 131 z "},"å":{"ha":768,"x_min":21,"x_max":738,"o":"m 485 828 q 465 809 485 828 q 385 790 444 790 q 284 828 325 790 q 243 929 243 867 q 284 1030 243 992 q 385 1068 325 1068 q 485 1030 444 1068 q 526 929 526 992 q 485 828 526 867 m 385 867 q 427 883 411 867 q 443 929 443 900 q 427 975 443 958 q 385 992 411 992 q 344 975 360 992 q 328 929 328 958 q 344 883 328 900 q 385 867 360 867 m 474 514 q 383 581 474 581 q 257 482 267 581 l 49 482 q 138 663 54 593 q 385 733 221 733 q 618 664 540 733 q 696 432 696 594 l 696 106 q 738 53 696 53 l 738 0 q 608 -22 678 -22 q 481 75 481 -22 l 478 75 q 382 6 442 33 q 254 -22 322 -22 q 83 34 144 -22 q 21 182 21 90 q 90 340 21 283 q 292 422 158 396 q 444 465 414 446 q 474 514 474 485 m 332 131 q 437 168 400 131 q 474 260 474 206 l 474 346 q 360 314 433 331 q 243 214 243 288 q 332 131 243 131 z "},"æ":{"ha":1231,"x_min":21,"x_max":1207,"o":"m 849 144 q 975 215 947 144 l 1196 215 q 1079 41 1165 104 q 853 -22 993 -22 q 582 75 686 -22 q 282 -22 472 -22 q 87 33 153 -22 q 21 182 21 89 q 90 340 21 283 q 292 422 158 396 q 444 465 414 446 q 474 514 474 485 q 383 581 474 581 q 257 482 267 581 l 49 482 q 138 663 54 593 q 385 733 221 733 q 617 665 543 733 q 840 733 711 733 q 1113 615 1018 733 q 1207 297 1207 497 l 696 297 q 740 185 696 226 q 849 144 785 144 m 945 542 q 925 561 945 542 q 840 581 906 581 q 735 542 775 581 q 696 432 696 504 l 985 432 q 945 542 985 504 m 474 260 l 474 346 q 360 314 433 331 q 243 214 243 288 q 332 131 243 131 q 437 168 400 131 q 474 260 474 206 z "},"ç":{"ha":750,"x_min":22,"x_max":732,"o":"m 388 144 q 514 268 500 144 l 732 268 q 643 69 725 149 q 428 -21 561 -11 l 381 -72 l 381 -75 q 490 -92 444 -68 q 536 -168 536 -117 q 483 -246 536 -217 q 354 -275 431 -275 q 199 -235 265 -275 l 240 -186 q 336 -207 285 -207 q 378 -197 358 -207 q 397 -167 397 -186 q 344 -129 397 -129 q 296 -139 322 -129 l 272 -106 l 346 -21 q 110 96 197 -7 q 22 356 22 199 q 122 628 22 522 q 383 733 221 733 q 626 653 535 733 q 732 446 718 574 l 514 446 q 388 567 499 567 q 282 511 319 567 q 244 356 244 456 q 281 199 244 254 q 388 144 318 144 z "},"è":{"ha":778,"x_min":22,"x_max":756,"o":"m 474 806 l 307 806 l 164 1000 l 414 1000 l 474 806 m 397 144 q 524 215 496 144 l 744 215 q 628 41 714 104 q 401 -22 542 -22 q 124 82 226 -22 q 22 356 22 186 q 122 627 22 521 q 389 733 222 733 q 661 615 567 733 q 756 297 756 497 l 244 297 q 289 185 244 226 q 397 144 333 144 m 494 542 q 474 561 494 542 q 389 581 454 581 q 284 542 324 581 q 244 432 244 504 l 533 432 q 494 542 533 504 z "},"é":{"ha":778,"x_min":22,"x_max":756,"o":"m 613 1000 l 469 806 l 303 806 l 363 1000 l 613 1000 m 397 144 q 524 215 496 144 l 744 215 q 628 41 714 104 q 401 -22 542 -22 q 124 82 226 -22 q 22 356 22 186 q 122 627 22 521 q 389 733 222 733 q 661 615 567 733 q 756 297 756 497 l 244 297 q 289 185 244 226 q 397 144 333 144 m 494 542 q 474 561 494 542 q 389 581 454 581 q 284 542 324 581 q 244 432 244 504 l 533 432 q 494 542 533 504 z "},"ê":{"ha":778,"x_min":22,"x_max":756,"o":"m 388 901 l 325 806 l 132 806 l 281 1000 l 497 1000 l 646 806 l 453 806 l 390 901 l 388 901 m 397 144 q 524 215 496 144 l 744 215 q 628 41 714 104 q 401 -22 542 -22 q 124 82 226 -22 q 22 356 22 186 q 122 627 22 521 q 389 733 222 733 q 661 615 567 733 q 756 297 756 497 l 244 297 q 289 185 244 226 q 397 144 333 144 m 494 542 q 474 561 494 542 q 389 581 454 581 q 284 542 324 581 q 244 432 244 504 l 533 432 q 494 542 533 504 z "},"ë":{"ha":778,"x_min":22,"x_max":756,"o":"m 240 797 q 162 828 190 797 q 133 903 133 858 q 163 978 133 947 q 240 1008 192 1008 q 317 978 289 1008 q 346 903 346 947 q 317 828 346 858 q 240 797 289 797 m 539 797 q 460 828 489 797 q 432 903 432 858 q 461 978 432 947 q 539 1008 490 1008 q 616 978 588 1008 q 644 903 644 947 q 616 828 644 858 q 539 797 588 797 m 397 144 q 524 215 496 144 l 744 215 q 628 41 714 104 q 401 -22 542 -22 q 124 82 226 -22 q 22 356 22 186 q 122 627 22 521 q 389 733 222 733 q 661 615 567 733 q 756 297 756 497 l 244 297 q 289 185 244 226 q 397 144 333 144 m 494 542 q 474 561 494 542 q 389 581 454 581 q 284 542 324 581 q 244 432 244 504 l 533 432 q 494 542 533 504 z "},"ì":{"ha":306,"x_min":-72,"x_max":264,"o":"m 178 1000 l 238 806 l 71 806 l -72 1000 l 178 1000 m 42 711 l 264 711 l 264 0 l 42 0 l 42 711 z "},"í":{"ha":306,"x_min":42,"x_max":376,"o":"m 126 1000 l 376 1000 l 233 806 l 67 806 l 126 1000 m 42 711 l 264 711 l 264 0 l 42 0 l 42 711 z "},"î":{"ha":306,"x_min":-104,"x_max":410,"o":"m -104 806 l 44 1000 l 261 1000 l 410 806 l 217 806 l 154 901 l 151 901 l 89 806 l -104 806 m 42 711 l 264 711 l 264 0 l 42 0 l 42 711 z "},"ï":{"ha":306,"x_min":-103,"x_max":408,"o":"m -74 828 q -89 843 -74 828 q -103 903 -103 858 q -74 978 -103 947 q 4 1008 -44 1008 q 81 978 53 1008 q 110 903 110 947 q 81 828 110 858 q 4 797 53 797 q -74 828 -46 797 m 224 828 q 210 843 224 828 q 196 903 196 858 q 225 978 196 947 q 303 1008 254 1008 q 380 978 351 1008 q 408 903 408 947 q 380 828 408 858 q 303 797 351 797 q 224 828 253 797 m 42 711 l 264 711 l 264 0 l 42 0 l 42 711 z "},"ð":{"ha":804,"x_min":22,"x_max":778,"o":"m 614 875 q 778 439 778 693 q 765 300 778 365 q 724 175 753 235 q 651 72 694 115 q 541 3 607 29 q 393 -22 475 -22 q 120 81 218 -22 q 22 357 22 183 q 115 631 22 529 q 340 733 207 733 q 514 674 450 733 l 514 676 q 422 825 489 754 l 243 776 l 221 857 l 349 892 q 192 993 288 940 l 469 993 q 543 943 504 975 l 689 982 l 711 901 l 614 875 m 284 207 q 304 181 284 207 q 393 156 324 156 q 502 207 463 156 q 542 357 542 258 q 502 506 542 454 q 393 557 463 557 q 284 506 324 557 q 244 357 244 454 q 284 207 244 258 z "},"ñ":{"ha":792,"x_min":54,"x_max":743,"o":"m 371 876 q 325 825 325 876 l 210 825 q 332 1013 210 1013 q 425 986 365 1013 q 510 960 485 960 q 556 1013 556 960 l 671 1013 q 640 869 671 913 q 549 825 610 825 q 456 851 515 825 q 371 876 396 876 m 513 733 q 681 667 618 733 q 743 481 743 600 l 743 0 l 521 0 l 521 410 q 494 520 521 488 q 410 553 467 553 q 276 411 276 553 l 276 0 l 54 0 l 54 711 l 276 711 l 276 608 l 279 608 q 513 733 351 733 z "},"ò":{"ha":804,"x_min":22,"x_max":782,"o":"m 428 1000 l 488 806 l 321 806 l 178 1000 l 428 1000 m 125 83 q 176 30 125 83 q 403 -22 228 -22 q 680 83 578 -22 q 782 356 782 188 q 680 628 782 524 q 403 733 578 733 q 125 628 228 733 q 22 356 22 524 q 125 83 22 188 m 403 144 q 286 199 328 144 q 244 356 244 254 q 286 512 244 457 q 403 567 328 567 q 518 512 476 567 q 560 356 560 457 q 518 199 560 254 q 403 144 476 144 z "},"ó":{"ha":804,"x_min":22,"x_max":782,"o":"m 376 1000 l 626 1000 l 483 806 l 317 806 l 376 1000 m 125 83 q 176 30 125 83 q 403 -22 228 -22 q 680 83 578 -22 q 782 356 782 188 q 680 628 782 524 q 403 733 578 733 q 125 628 228 733 q 22 356 22 524 q 125 83 22 188 m 403 144 q 286 199 328 144 q 244 356 244 254 q 286 512 244 457 q 403 567 328 567 q 518 512 476 567 q 560 356 560 457 q 518 199 560 254 q 403 144 476 144 z "},"ô":{"ha":804,"x_min":22,"x_max":782,"o":"m 146 806 l 294 1000 l 511 1000 l 660 806 l 467 806 l 404 901 l 401 901 l 339 806 l 146 806 m 125 83 q 176 30 125 83 q 403 -22 228 -22 q 680 83 578 -22 q 782 356 782 188 q 680 628 782 524 q 403 733 578 733 q 125 628 228 733 q 22 356 22 524 q 125 83 22 188 m 403 144 q 286 199 328 144 q 244 356 244 254 q 286 512 244 457 q 403 567 328 567 q 518 512 476 567 q 560 356 560 457 q 518 199 560 254 q 403 144 476 144 z "},"õ":{"ha":804,"x_min":22,"x_max":782,"o":"m 172 825 q 294 1013 172 1013 q 388 986 328 1013 q 472 960 447 960 q 518 1013 518 960 l 633 1013 q 603 869 633 913 q 511 825 572 825 q 418 851 478 825 q 333 876 358 876 q 288 825 288 876 l 172 825 m 125 83 q 176 30 125 83 q 403 -22 228 -22 q 680 83 578 -22 q 782 356 782 188 q 680 628 782 524 q 403 733 578 733 q 125 628 228 733 q 22 356 22 524 q 125 83 22 188 m 403 144 q 286 199 328 144 q 244 356 244 254 q 286 512 244 457 q 403 567 328 567 q 518 512 476 567 q 560 356 560 457 q 518 199 560 254 q 403 144 476 144 z "},"ö":{"ha":804,"x_min":22,"x_max":782,"o":"m 176 828 q 161 843 176 828 q 147 903 147 858 q 176 978 147 947 q 254 1008 206 1008 q 331 978 303 1008 q 360 903 360 947 q 331 828 360 858 q 254 797 303 797 q 176 828 204 797 m 474 828 q 460 843 474 828 q 446 903 446 858 q 475 978 446 947 q 553 1008 504 1008 q 630 978 601 1008 q 658 903 658 947 q 630 828 658 858 q 553 797 601 797 q 474 828 503 797 m 125 83 q 176 30 125 83 q 403 -22 228 -22 q 680 83 578 -22 q 782 356 782 188 q 680 628 782 524 q 403 733 578 733 q 125 628 228 733 q 22 356 22 524 q 125 83 22 188 m 403 144 q 286 199 328 144 q 244 356 244 254 q 286 512 244 457 q 403 567 328 567 q 518 512 476 567 q 560 356 560 457 q 518 199 560 254 q 403 144 476 144 z "},"÷":{"ha":786,"x_min":56,"x_max":731,"o":"m 393 626 q 312 653 342 626 q 282 728 282 679 q 313 802 282 775 q 393 829 343 829 q 474 802 443 829 q 504 728 504 775 q 474 653 504 679 q 393 626 443 626 m 56 358 l 56 549 l 731 549 l 731 358 l 56 358 m 393 78 q 312 104 342 78 q 282 179 282 131 q 313 253 282 226 q 393 281 343 281 q 474 253 443 281 q 504 179 504 226 q 474 104 504 131 q 393 78 443 78 z "},"ø":{"ha":804,"x_min":22,"x_max":782,"o":"m 706 599 q 782 356 782 501 q 680 83 782 188 q 403 -22 578 -22 q 160 51 257 -22 l 90 -18 l 32 42 l 100 110 q 22 356 22 211 q 125 628 22 524 q 403 733 228 733 q 647 658 549 733 l 717 728 l 776 669 l 706 599 m 244 356 q 256 265 244 307 l 511 521 q 403 567 469 567 q 286 512 328 567 q 244 356 244 457 m 403 144 q 518 199 476 144 q 560 356 560 254 q 550 443 560 406 l 296 188 q 403 144 336 144 z "},"ù":{"ha":792,"x_min":49,"x_max":738,"o":"m 478 806 l 311 806 l 168 1000 l 418 1000 l 478 806 m 515 711 l 738 711 l 738 0 l 515 0 l 515 103 l 513 103 q 279 -22 440 -22 q 111 44 174 -22 q 49 231 49 111 l 49 711 l 271 711 l 271 301 q 298 191 271 224 q 382 158 325 158 q 515 300 515 158 l 515 711 z "},"ú":{"ha":792,"x_min":49,"x_max":738,"o":"m 617 1000 l 474 806 l 307 806 l 367 1000 l 617 1000 m 515 711 l 738 711 l 738 0 l 515 0 l 515 103 l 513 103 q 279 -22 440 -22 q 111 44 174 -22 q 49 231 49 111 l 49 711 l 271 711 l 271 301 q 298 191 271 224 q 382 158 325 158 q 515 300 515 158 l 515 711 z "},"û":{"ha":792,"x_min":49,"x_max":738,"o":"m 392 901 l 329 806 l 136 806 l 285 1000 l 501 1000 l 650 806 l 457 806 l 394 901 l 392 901 m 515 711 l 738 711 l 738 0 l 515 0 l 515 103 l 513 103 q 279 -22 440 -22 q 111 44 174 -22 q 49 231 49 111 l 49 711 l 271 711 l 271 301 q 298 191 271 224 q 382 158 325 158 q 515 300 515 158 l 515 711 z "},"ü":{"ha":792,"x_min":49,"x_max":738,"o":"m 244 797 q 166 828 194 797 q 138 903 138 858 q 167 978 138 947 q 244 1008 196 1008 q 322 978 293 1008 q 350 903 350 947 q 322 828 350 858 q 244 797 293 797 m 543 797 q 465 828 493 797 q 436 903 436 858 q 465 978 436 947 q 543 1008 494 1008 q 620 978 592 1008 q 649 903 649 947 q 620 828 649 858 q 543 797 592 797 m 515 711 l 738 711 l 738 0 l 515 0 l 515 103 l 513 103 q 279 -22 440 -22 q 111 44 174 -22 q 49 231 49 111 l 49 711 l 271 711 l 271 301 q 298 191 271 224 q 382 158 325 158 q 515 300 515 158 l 515 711 z "},"ý":{"ha":735,"x_min":-4,"x_max":739,"o":"m 342 1000 l 592 1000 l 449 806 l 282 806 l 342 1000 m 739 711 l 497 -14 q 392 -197 451 -149 q 219 -246 333 -246 q 96 -232 161 -246 l 96 -65 l 99 -65 q 233 -36 199 -87 q 228 103 261 7 l -4 711 l 218 711 l 379 244 l 382 244 l 517 711 l 739 711 z "},"þ":{"ha":817,"x_min":54,"x_max":794,"o":"m 485 733 q 710 632 626 733 q 794 356 794 531 q 710 79 794 181 q 485 -22 626 -22 q 279 99 331 -22 l 276 99 l 276 -246 l 54 -246 l 54 993 l 276 993 l 276 613 l 279 613 q 485 733 331 733 m 319 199 q 338 172 319 199 q 426 144 357 144 q 534 199 496 144 q 572 356 572 253 q 534 513 572 458 q 426 567 496 567 q 319 513 357 567 q 281 356 281 458 q 319 199 281 253 z "},"ÿ":{"ha":735,"x_min":-4,"x_max":739,"o":"m 141 828 q 127 843 141 828 q 113 903 113 858 q 142 978 113 947 q 219 1008 171 1008 q 297 978 268 1008 q 325 903 325 947 q 297 828 325 858 q 219 797 268 797 q 141 828 169 797 m 440 828 q 425 843 440 828 q 411 903 411 858 q 440 978 411 947 q 518 1008 469 1008 q 595 978 567 1008 q 624 903 624 947 q 595 828 624 858 q 518 797 567 797 q 440 828 468 797 m 739 711 l 497 -14 q 392 -197 451 -149 q 219 -246 333 -246 q 96 -232 161 -246 l 96 -65 l 99 -65 q 233 -36 199 -87 q 228 103 261 7 l -4 711 l 218 711 l 379 244 l 382 244 l 517 711 l 739 711 z "},"Ā":{"ha":968,"x_min":-1,"x_max":967,"o":"m 285 1254 l 682 1254 l 682 1115 l 285 1115 l 285 1254 m 653 207 l 313 207 l 249 0 l -1 0 l 358 993 l 608 993 l 967 0 l 717 0 l 653 207 m 369 397 l 597 397 l 485 764 l 482 764 l 369 397 z "},"ā":{"ha":768,"x_min":21,"x_max":738,"o":"m 186 972 l 583 972 l 583 833 l 186 833 l 186 972 m 474 514 q 383 581 474 581 q 257 482 267 581 l 49 482 q 138 663 54 593 q 385 733 221 733 q 618 664 540 733 q 696 432 696 594 l 696 106 q 738 53 696 53 l 738 0 q 608 -22 678 -22 q 481 75 481 -22 l 478 75 q 382 6 442 33 q 254 -22 322 -22 q 83 34 144 -22 q 21 182 21 90 q 90 340 21 283 q 292 422 158 396 q 444 465 414 446 q 474 514 474 485 m 332 131 q 437 168 400 131 q 474 260 474 206 l 474 346 q 360 314 433 331 q 243 214 243 288 q 332 131 243 131 z "},"Ă":{"ha":968,"x_min":-1,"x_max":967,"o":"m 640 1135 q 610 1107 640 1135 q 483 1079 579 1079 q 326 1135 388 1079 q 261 1282 264 1190 l 389 1282 q 483 1215 396 1215 q 578 1282 571 1215 l 706 1282 q 640 1135 701 1192 m 653 207 l 313 207 l 249 0 l -1 0 l 358 993 l 608 993 l 967 0 l 717 0 l 653 207 m 369 397 l 597 397 l 485 764 l 482 764 l 369 397 z "},"ă":{"ha":768,"x_min":21,"x_max":738,"o":"m 542 853 q 511 825 542 853 q 385 797 481 797 q 227 853 289 797 q 163 1000 165 908 l 290 1000 q 385 933 297 933 q 479 1000 472 933 l 607 1000 q 542 853 603 910 m 474 514 q 383 581 474 581 q 257 482 267 581 l 49 482 q 138 663 54 593 q 385 733 221 733 q 618 664 540 733 q 696 432 696 594 l 696 106 q 738 53 696 53 l 738 0 q 608 -22 678 -22 q 481 75 481 -22 l 478 75 q 382 6 442 33 q 254 -22 322 -22 q 83 34 144 -22 q 21 182 21 90 q 90 340 21 283 q 292 422 158 396 q 444 465 414 446 q 474 514 474 485 m 332 131 q 437 168 400 131 q 474 260 474 206 l 474 346 q 360 314 433 331 q 243 214 243 288 q 332 131 243 131 z "},"Ą":{"ha":968,"x_min":-1,"x_max":974,"o":"m 917 -115 q 974 -106 939 -115 l 974 -231 q 861 -246 915 -246 q 703 -129 703 -246 q 800 0 703 -46 l 717 0 l 653 207 l 313 207 l 249 0 l -1 0 l 358 993 l 608 993 l 967 0 l 940 0 q 905 -31 915 -21 q 884 -56 894 -40 q 874 -85 874 -71 q 917 -115 874 -115 m 369 397 l 597 397 l 485 764 l 482 764 l 369 397 z "},"ą":{"ha":768,"x_min":21,"x_max":771,"o":"m 714 -115 q 771 -106 736 -115 l 771 -231 q 658 -246 713 -246 q 500 -129 500 -246 q 565 -18 500 -65 q 481 75 481 -4 l 478 75 q 382 6 442 33 q 254 -22 322 -22 q 83 34 144 -22 q 21 182 21 90 q 90 340 21 283 q 292 422 158 396 q 444 465 414 446 q 474 514 474 485 q 383 581 474 581 q 257 482 267 581 l 49 482 q 138 663 54 593 q 385 733 221 733 q 618 664 540 733 q 696 432 696 594 l 696 106 q 738 53 696 53 l 738 0 q 702 -31 713 -21 q 681 -56 692 -40 q 671 -85 671 -71 q 714 -115 671 -115 m 474 260 l 474 346 q 360 314 433 331 q 243 214 243 288 q 332 131 243 131 q 437 168 400 131 q 474 260 474 206 z "},"Ć":{"ha":968,"x_min":28,"x_max":949,"o":"m 490 1282 l 740 1282 l 597 1088 l 431 1088 l 490 1282 m 699 624 q 638 762 683 713 q 499 811 592 811 q 278 497 278 811 q 499 182 278 182 q 639 232 593 182 q 699 372 685 282 l 949 372 q 820 84 932 190 q 510 -22 708 -22 q 154 122 281 -22 q 28 497 28 265 q 154 872 28 728 q 510 1015 281 1015 q 819 909 707 1015 q 949 624 931 803 l 699 624 z "},"ć":{"ha":750,"x_min":22,"x_max":732,"o":"m 357 1000 l 607 1000 l 464 806 l 297 806 l 357 1000 m 514 446 q 388 567 499 567 q 282 511 319 567 q 244 356 244 456 q 281 199 244 254 q 388 144 318 144 q 514 268 500 144 l 732 268 q 631 58 724 139 q 389 -22 539 -22 q 122 83 222 -22 q 22 356 22 188 q 122 628 22 522 q 383 733 221 733 q 626 653 535 733 q 732 446 718 574 l 514 446 z "},"Ċ":{"ha":968,"x_min":28,"x_max":949,"o":"m 438 1110 q 424 1125 438 1110 q 410 1185 410 1140 q 439 1260 410 1229 q 517 1290 468 1290 q 594 1260 565 1290 q 622 1185 622 1229 q 594 1110 622 1140 q 517 1079 565 1079 q 438 1110 467 1079 m 699 624 q 638 762 683 713 q 499 811 592 811 q 278 497 278 811 q 499 182 278 182 q 639 232 593 182 q 699 372 685 282 l 949 372 q 820 84 932 190 q 510 -22 708 -22 q 154 122 281 -22 q 28 497 28 265 q 154 872 28 728 q 510 1015 281 1015 q 819 909 707 1015 q 949 624 931 803 l 699 624 z "},"ċ":{"ha":750,"x_min":22,"x_max":732,"o":"m 305 828 q 291 843 305 828 q 276 903 276 858 q 306 978 276 947 q 383 1008 335 1008 q 460 978 432 1008 q 489 903 489 947 q 460 828 489 858 q 383 797 432 797 q 305 828 333 797 m 514 446 q 388 567 499 567 q 282 511 319 567 q 244 356 244 456 q 281 199 244 254 q 388 144 318 144 q 514 268 500 144 l 732 268 q 631 58 724 139 q 389 -22 539 -22 q 122 83 222 -22 q 22 356 22 188 q 122 628 22 522 q 383 733 221 733 q 626 653 535 733 q 732 446 718 574 l 514 446 z "},"Č":{"ha":968,"x_min":28,"x_max":949,"o":"m 260 1282 l 453 1282 l 515 1186 l 518 1186 l 581 1282 l 774 1282 l 625 1088 l 408 1088 l 260 1282 m 699 624 q 638 762 683 713 q 499 811 592 811 q 278 497 278 811 q 499 182 278 182 q 639 232 593 182 q 699 372 685 282 l 949 372 q 820 84 932 190 q 510 -22 708 -22 q 154 122 281 -22 q 28 497 28 265 q 154 872 28 728 q 510 1015 281 1015 q 819 909 707 1015 q 949 624 931 803 l 699 624 z "},"č":{"ha":750,"x_min":22,"x_max":732,"o":"m 126 1000 l 319 1000 l 382 904 l 385 904 l 447 1000 l 640 1000 l 492 806 l 275 806 l 126 1000 m 514 446 q 388 567 499 567 q 282 511 319 567 q 244 356 244 456 q 281 199 244 254 q 388 144 318 144 q 514 268 500 144 l 732 268 q 631 58 724 139 q 389 -22 539 -22 q 122 83 222 -22 q 22 356 22 188 q 122 628 22 522 q 383 733 221 733 q 626 653 535 733 q 732 446 718 574 l 514 446 z "},"Ď":{"ha":979,"x_min":68,"x_max":951,"o":"m 183 1282 l 376 1282 l 439 1186 l 442 1186 l 504 1282 l 697 1282 l 549 1088 l 332 1088 l 183 1282 m 68 0 l 68 993 l 508 993 q 834 863 717 993 q 951 496 951 733 q 840 128 951 257 q 522 0 729 0 l 68 0 m 318 789 l 318 204 l 483 204 q 701 496 701 204 q 483 789 701 789 l 318 789 z "},"ď":{"ha":817,"x_min":22,"x_max":1029,"o":"m 931 1000 q 1003 965 978 1000 q 1029 876 1029 931 q 983 756 1029 804 q 846 700 938 708 l 846 764 q 938 831 938 775 q 864 845 893 821 q 835 908 835 869 q 863 973 835 946 q 931 1000 890 1000 m 540 640 l 540 993 l 763 993 l 763 0 l 540 0 l 540 71 l 538 71 q 457 7 513 36 q 332 -22 401 -22 q 106 79 190 -22 q 22 356 22 181 q 106 632 22 531 q 332 733 190 733 q 457 704 401 733 q 538 640 513 675 l 540 640 m 283 199 q 302 172 283 199 q 390 144 321 144 q 498 199 460 144 q 536 356 536 253 q 498 513 536 458 q 390 567 460 567 q 283 513 321 567 q 244 356 244 458 q 283 199 244 253 z "},"Đ":{"ha":992,"x_min":4,"x_max":964,"o":"m 521 993 q 847 863 729 993 q 964 496 964 733 q 853 128 964 257 q 535 0 742 0 l 81 0 l 81 451 l 4 451 l 4 576 l 81 576 l 81 993 l 521 993 m 496 204 q 714 496 714 204 q 496 789 714 789 l 331 789 l 331 576 l 529 576 l 529 451 l 331 451 l 331 204 l 496 204 z "},"đ":{"ha":815,"x_min":22,"x_max":832,"o":"m 832 924 l 832 799 l 763 799 l 763 0 l 540 0 l 540 71 l 538 71 q 457 7 513 36 q 332 -22 401 -22 q 106 79 190 -22 q 22 356 22 181 q 106 632 22 531 q 332 733 190 733 q 457 704 401 733 q 538 640 513 675 l 540 640 l 540 799 l 349 799 l 349 924 l 540 924 l 540 993 l 763 993 l 763 924 l 832 924 m 283 199 q 302 172 283 199 q 390 144 321 144 q 498 199 460 144 q 536 356 536 253 q 498 513 536 458 q 390 567 460 567 q 283 513 321 567 q 244 356 244 458 q 283 199 244 253 z "},"Ē":{"ha":872,"x_min":68,"x_max":829,"o":"m 250 1254 l 647 1254 l 647 1115 l 250 1115 l 250 1254 m 318 613 l 751 613 l 751 408 l 318 408 l 318 204 l 829 204 l 829 0 l 68 0 l 68 993 l 821 993 l 821 789 l 318 789 l 318 613 z "},"ē":{"ha":778,"x_min":22,"x_max":756,"o":"m 588 972 l 588 833 l 190 833 l 190 972 l 588 972 m 397 144 q 524 215 496 144 l 744 215 q 628 41 714 104 q 401 -22 542 -22 q 124 82 226 -22 q 22 356 22 186 q 122 627 22 521 q 389 733 222 733 q 661 615 567 733 q 756 297 756 497 l 244 297 q 289 185 244 226 q 397 144 333 144 m 494 542 q 474 561 494 542 q 389 581 454 581 q 284 542 324 581 q 244 432 244 504 l 533 432 q 494 542 533 504 z "},"Ė":{"ha":872,"x_min":68,"x_max":829,"o":"m 370 1110 q 356 1125 370 1110 q 342 1185 342 1140 q 371 1260 342 1229 q 449 1290 400 1290 q 526 1260 497 1290 q 554 1185 554 1229 q 526 1110 554 1140 q 449 1079 497 1079 q 370 1110 399 1079 m 318 613 l 751 613 l 751 408 l 318 408 l 318 204 l 829 204 l 829 0 l 68 0 l 68 993 l 821 993 l 821 789 l 318 789 l 318 613 z "},"ė":{"ha":778,"x_min":22,"x_max":756,"o":"m 389 797 q 310 828 339 797 q 282 903 282 858 q 311 978 282 947 q 389 1008 340 1008 q 466 978 438 1008 q 494 903 494 947 q 466 828 494 858 q 389 797 438 797 m 397 144 q 524 215 496 144 l 744 215 q 628 41 714 104 q 401 -22 542 -22 q 124 82 226 -22 q 22 356 22 186 q 122 627 22 521 q 389 733 222 733 q 661 615 567 733 q 756 297 756 497 l 244 297 q 289 185 244 226 q 397 144 333 144 m 494 542 q 474 561 494 542 q 389 581 454 581 q 284 542 324 581 q 244 432 244 504 l 533 432 q 494 542 533 504 z "},"Ę":{"ha":872,"x_min":68,"x_max":857,"o":"m 800 -115 q 857 -106 822 -115 l 857 -231 q 744 -246 799 -246 q 586 -129 586 -246 q 683 0 586 -46 l 68 0 l 68 993 l 821 993 l 821 789 l 318 789 l 318 613 l 751 613 l 751 408 l 318 408 l 318 204 l 829 204 l 829 0 l 824 0 q 788 -31 799 -21 q 767 -56 778 -40 q 757 -85 757 -71 q 800 -115 757 -115 z "},"ę":{"ha":778,"x_min":22,"x_max":756,"o":"m 397 144 q 524 215 496 144 l 744 215 q 533 -4 697 44 q 501 -33 511 -24 q 482 -57 492 -42 q 472 -85 472 -72 q 515 -115 472 -115 q 572 -106 539 -115 l 572 -231 q 460 -246 514 -246 q 301 -129 301 -246 q 364 -21 301 -65 q 114 93 206 -10 q 22 356 22 196 q 122 627 22 521 q 389 733 222 733 q 661 615 567 733 q 756 297 756 497 l 244 297 q 289 185 244 226 q 397 144 333 144 m 494 542 q 474 561 494 542 q 389 581 454 581 q 284 542 324 581 q 244 432 244 504 l 533 432 q 494 542 533 504 z "},"Ě":{"ha":872,"x_min":68,"x_max":829,"o":"m 192 1282 l 385 1282 l 447 1186 l 450 1186 l 513 1282 l 706 1282 l 557 1088 l 340 1088 l 192 1282 m 318 613 l 751 613 l 751 408 l 318 408 l 318 204 l 829 204 l 829 0 l 68 0 l 68 993 l 821 993 l 821 789 l 318 789 l 318 613 z "},"ě":{"ha":778,"x_min":22,"x_max":756,"o":"m 497 806 l 281 806 l 132 1000 l 325 1000 l 388 904 l 390 904 l 453 1000 l 646 1000 l 497 806 m 397 144 q 524 215 496 144 l 744 215 q 628 41 714 104 q 401 -22 542 -22 q 124 82 226 -22 q 22 356 22 186 q 122 627 22 521 q 389 733 222 733 q 661 615 567 733 q 756 297 756 497 l 244 297 q 289 185 244 226 q 397 144 333 144 m 494 542 q 474 561 494 542 q 389 581 454 581 q 284 542 324 581 q 244 432 244 504 l 533 432 q 494 542 533 504 z "},"Ğ":{"ha":1024,"x_min":29,"x_max":972,"o":"m 665 1135 q 635 1107 665 1135 q 508 1079 604 1079 q 351 1135 413 1079 q 286 1282 289 1190 l 414 1282 q 508 1215 421 1215 q 603 1282 596 1215 l 731 1282 q 665 1135 726 1192 m 707 664 q 506 811 668 811 q 279 497 279 811 q 515 182 279 182 q 656 228 601 182 q 714 347 711 275 l 525 347 l 525 528 l 972 528 l 972 0 l 793 0 l 768 126 l 765 126 q 479 -22 688 -22 q 151 123 272 -22 q 29 497 29 268 q 156 872 29 728 q 510 1015 282 1015 q 821 915 704 1015 q 957 664 938 815 l 707 664 z "},"ğ":{"ha":794,"x_min":22,"x_max":740,"o":"m 525 853 q 494 825 525 853 q 368 797 464 797 q 210 853 272 797 q 146 1000 149 908 l 274 1000 q 368 933 281 933 q 463 1000 456 933 l 590 1000 q 525 853 586 910 m 518 711 l 740 711 l 740 69 q 651 -172 740 -99 q 390 -246 561 -246 q 145 -179 233 -246 q 36 -15 57 -112 l 258 -15 q 385 -86 283 -86 q 488 -46 458 -86 q 518 85 518 -6 l 518 126 l 515 126 q 321 33 446 33 q 104 131 186 33 q 22 383 22 228 q 104 636 22 539 q 321 733 186 733 q 515 640 446 733 l 518 640 l 518 711 m 244 383 q 244 292 244 383 q 379 200 244 200 q 514 383 514 200 q 379 567 514 567 q 244 383 244 567 z "},"Ġ":{"ha":1024,"x_min":29,"x_max":972,"o":"m 430 1110 q 416 1125 430 1110 q 401 1185 401 1140 q 431 1260 401 1229 q 508 1290 460 1290 q 585 1260 557 1290 q 614 1185 614 1229 q 585 1110 614 1140 q 508 1079 557 1079 q 430 1110 458 1079 m 707 664 q 506 811 668 811 q 279 497 279 811 q 515 182 279 182 q 656 228 601 182 q 714 347 711 275 l 525 347 l 525 528 l 972 528 l 972 0 l 793 0 l 768 126 l 765 126 q 479 -22 688 -22 q 151 123 272 -22 q 29 497 29 268 q 156 872 29 728 q 510 1015 282 1015 q 821 915 704 1015 q 957 664 938 815 l 707 664 z "},"ġ":{"ha":794,"x_min":22,"x_max":740,"o":"m 368 797 q 290 828 318 797 q 261 903 261 858 q 290 978 261 947 q 368 1008 319 1008 q 445 978 417 1008 q 474 903 474 947 q 445 828 474 858 q 368 797 417 797 m 518 711 l 740 711 l 740 69 q 651 -172 740 -99 q 390 -246 561 -246 q 145 -179 233 -246 q 36 -15 57 -112 l 258 -15 q 385 -86 283 -86 q 488 -46 458 -86 q 518 85 518 -6 l 518 126 l 515 126 q 321 33 446 33 q 104 131 186 33 q 22 383 22 228 q 104 636 22 539 q 321 733 186 733 q 515 640 446 733 l 518 640 l 518 711 m 244 383 q 244 292 244 383 q 379 200 244 200 q 514 383 514 200 q 379 567 514 567 q 244 383 244 567 z "},"Ģ":{"ha":1024,"x_min":29,"x_max":972,"o":"m 707 664 q 506 811 668 811 q 279 497 279 811 q 515 182 279 182 q 656 228 601 182 q 714 347 711 275 l 525 347 l 525 528 l 972 528 l 972 0 l 793 0 l 768 126 l 765 126 q 479 -22 688 -22 q 151 123 272 -22 q 29 497 29 268 q 156 872 29 728 q 510 1015 282 1015 q 821 915 704 1015 q 957 664 938 815 l 707 664 m 513 -235 q 439 -220 468 -244 q 410 -157 410 -196 q 438 -92 410 -119 q 506 -65 465 -65 q 578 -100 553 -65 q 604 -189 604 -135 q 558 -309 604 -261 q 421 -365 513 -357 l 421 -301 q 513 -235 513 -290 z "},"ģ":{"ha":794,"x_min":22,"x_max":740,"o":"m 367 790 q 286 826 315 790 q 257 914 257 861 q 303 1034 257 986 q 440 1090 349 1082 l 440 1026 q 349 960 349 1015 q 422 945 393 969 q 451 879 451 921 q 429 815 451 839 q 367 790 407 790 m 518 711 l 740 711 l 740 69 q 651 -172 740 -99 q 390 -246 561 -246 q 145 -179 233 -246 q 36 -15 57 -112 l 258 -15 q 385 -86 283 -86 q 488 -46 458 -86 q 518 85 518 -6 l 518 126 l 515 126 q 321 33 446 33 q 104 131 186 33 q 22 383 22 228 q 104 636 22 539 q 321 733 186 733 q 515 640 446 733 l 518 640 l 518 711 m 244 383 q 244 292 244 383 q 379 200 244 200 q 514 383 514 200 q 379 567 514 567 q 244 383 244 567 z "},"Ħ":{"ha":992,"x_min":-7,"x_max":985,"o":"m 985 856 l 985 731 l 910 731 l 910 0 l 660 0 l 660 400 l 319 400 l 319 0 l 69 0 l 69 731 l -7 731 l -7 856 l 69 856 l 69 993 l 319 993 l 319 856 l 660 856 l 660 993 l 910 993 l 910 856 l 985 856 m 660 604 l 660 731 l 319 731 l 319 604 l 660 604 z "},"ħ":{"ha":790,"x_min":-17,"x_max":742,"o":"m 499 733 q 677 667 613 733 q 742 481 742 601 l 742 0 l 519 0 l 519 410 q 492 521 519 489 q 404 553 465 553 q 311 517 347 553 q 275 411 275 482 l 275 0 l 53 0 l 53 799 l -17 799 l -17 924 l 53 924 l 53 993 l 275 993 l 275 924 l 478 924 l 478 799 l 275 799 l 275 608 l 278 608 q 499 733 350 733 z "},"Ī":{"ha":388,"x_min":-4,"x_max":393,"o":"m -4 1254 l 393 1254 l 393 1115 l -4 1115 l -4 1254 m 69 993 l 319 993 l 319 0 l 69 0 l 69 993 z "},"ī":{"ha":306,"x_min":-46,"x_max":351,"o":"m -46 972 l 351 972 l 351 833 l -46 833 l -46 972 m 42 711 l 264 711 l 264 0 l 42 0 l 42 711 z "},"Į":{"ha":388,"x_min":69,"x_max":351,"o":"m 294 -115 q 351 -106 317 -115 l 351 -231 q 239 -246 293 -246 q 81 -129 81 -246 q 178 0 81 -46 l 69 0 l 69 993 l 319 993 l 319 0 l 318 0 q 283 -31 293 -21 q 262 -56 272 -40 q 251 -85 251 -71 q 294 -115 251 -115 z "},"į":{"ha":306,"x_min":26,"x_max":297,"o":"m 153 797 q 74 828 103 797 q 46 903 46 858 q 75 978 46 947 q 153 1008 104 1008 q 230 978 201 1008 q 258 903 258 947 q 230 828 258 858 q 153 797 201 797 m 240 -115 q 297 -106 264 -115 l 297 -231 q 185 -246 239 -246 q 26 -129 26 -246 q 124 0 26 -46 l 42 0 l 42 711 l 264 711 l 264 0 q 228 -31 239 -21 q 208 -56 218 -40 q 197 -85 197 -71 q 240 -115 197 -115 z "},"İ":{"ha":388,"x_min":69,"x_max":319,"o":"m 116 1110 q 102 1125 116 1110 q 88 1185 88 1140 q 117 1260 88 1229 q 194 1290 146 1290 q 272 1260 243 1290 q 300 1185 300 1229 q 272 1110 300 1140 q 194 1079 243 1079 q 116 1110 144 1079 m 69 993 l 319 993 l 319 0 l 69 0 l 69 993 z "},"ı":{"ha":306,"x_min":42,"x_max":264,"o":"m 42 711 l 264 711 l 264 0 l 42 0 l 42 711 z "},"Ķ":{"ha":968,"x_min":68,"x_max":969,"o":"m 68 993 l 318 993 l 318 590 l 664 993 l 956 993 l 578 556 l 969 0 l 678 0 l 418 376 l 318 263 l 318 0 l 68 0 l 68 993 m 497 -235 q 424 -220 453 -244 q 394 -157 394 -196 q 422 -92 394 -119 q 490 -65 450 -65 q 563 -100 538 -65 q 589 -189 589 -135 q 543 -309 589 -261 q 406 -365 497 -357 l 406 -301 q 497 -235 497 -290 z "},"ķ":{"ha":778,"x_min":54,"x_max":779,"o":"m 54 993 l 276 993 l 276 471 l 485 711 l 750 711 l 499 444 l 779 0 l 515 0 l 347 283 l 276 210 l 276 0 l 54 0 l 54 993 m 394 -235 q 321 -220 350 -244 q 292 -157 292 -196 q 319 -92 292 -119 q 388 -65 347 -65 q 460 -100 435 -65 q 486 -189 486 -135 q 440 -309 486 -261 q 303 -365 394 -357 l 303 -301 q 394 -235 394 -290 z "},"Ĺ":{"ha":785,"x_min":68,"x_max":760,"o":"m 171 1282 l 421 1282 l 278 1088 l 111 1088 l 171 1282 m 68 993 l 318 993 l 318 204 l 760 204 l 760 0 l 68 0 l 68 993 z "},"ĺ":{"ha":333,"x_min":56,"x_max":397,"o":"m 147 1264 l 397 1264 l 254 1069 l 88 1069 l 147 1264 m 56 993 l 278 993 l 278 0 l 56 0 l 56 993 z "},"Ļ":{"ha":785,"x_min":68,"x_max":760,"o":"m 68 993 l 318 993 l 318 204 l 760 204 l 760 0 l 68 0 l 68 993 m 419 -235 q 346 -220 375 -244 q 317 -157 317 -196 q 344 -92 317 -119 q 413 -65 372 -65 q 485 -100 460 -65 q 511 -189 511 -135 q 465 -309 511 -261 q 328 -365 419 -357 l 328 -301 q 419 -235 419 -290 z "},"ļ":{"ha":333,"x_min":56,"x_max":278,"o":"m 56 993 l 278 993 l 278 0 l 56 0 l 56 993 m 172 -235 q 99 -220 128 -244 q 69 -157 69 -196 q 97 -92 69 -119 q 165 -65 125 -65 q 238 -100 213 -65 q 264 -189 264 -135 q 218 -309 264 -261 q 81 -365 172 -357 l 81 -301 q 172 -235 172 -290 z "},"Ľ":{"ha":785,"x_min":68,"x_max":760,"o":"m 590 831 q 517 845 546 821 q 488 908 488 869 q 515 973 488 946 q 583 1000 543 1000 q 656 965 631 1000 q 682 876 682 931 q 636 756 682 804 q 499 700 590 708 l 499 764 q 590 831 590 775 m 68 993 l 318 993 l 318 204 l 760 204 l 760 0 l 68 0 l 68 993 z "},"ľ":{"ha":333,"x_min":56,"x_max":544,"o":"m 453 831 q 379 845 408 821 q 350 908 350 869 q 378 973 350 946 q 446 1000 406 1000 q 519 965 493 1000 q 544 876 544 931 q 499 756 544 804 q 361 700 453 708 l 361 764 q 453 831 453 775 m 56 993 l 278 993 l 278 0 l 56 0 l 56 993 z "},"Ł":{"ha":785,"x_min":-15,"x_max":760,"o":"m 318 204 l 760 204 l 760 0 l 68 0 l 68 299 l -15 238 l -15 400 l 68 461 l 68 993 l 318 993 l 318 646 l 568 831 l 568 668 l 318 483 l 318 204 z "},"ł":{"ha":383,"x_min":3,"x_max":389,"o":"m 389 754 l 389 592 l 307 531 l 307 0 l 85 0 l 85 368 l 3 307 l 3 469 l 85 531 l 85 993 l 307 993 l 307 693 l 389 754 z "},"Ń":{"ha":986,"x_min":68,"x_max":918,"o":"m 467 1282 l 717 1282 l 574 1088 l 407 1088 l 467 1282 m 68 0 l 68 993 l 318 993 l 665 403 l 668 403 l 668 993 l 918 993 l 918 0 l 668 0 l 321 590 l 318 590 l 318 0 l 68 0 z "},"ń":{"ha":792,"x_min":54,"x_max":743,"o":"m 664 1000 l 521 806 l 354 806 l 414 1000 l 664 1000 m 513 733 q 681 667 618 733 q 743 481 743 600 l 743 0 l 521 0 l 521 410 q 494 520 521 488 q 410 553 467 553 q 276 411 276 553 l 276 0 l 54 0 l 54 711 l 276 711 l 276 608 l 279 608 q 513 733 351 733 z "},"Ņ":{"ha":986,"x_min":68,"x_max":918,"o":"m 68 0 l 68 993 l 318 993 l 665 403 l 668 403 l 668 993 l 918 993 l 918 0 l 668 0 l 321 590 l 318 590 l 318 0 l 68 0 m 499 -235 q 425 -220 454 -244 q 396 -157 396 -196 q 424 -92 396 -119 q 492 -65 451 -65 q 565 -100 539 -65 q 590 -189 590 -135 q 544 -309 590 -261 q 407 -365 499 -357 l 407 -301 q 499 -235 499 -290 z "},"ņ":{"ha":792,"x_min":54,"x_max":743,"o":"m 513 733 q 681 667 618 733 q 743 481 743 600 l 743 0 l 521 0 l 521 410 q 494 520 521 488 q 410 553 467 553 q 276 411 276 553 l 276 0 l 54 0 l 54 711 l 276 711 l 276 608 l 279 608 q 513 733 351 733 m 397 -65 q 470 -100 444 -65 q 496 -189 496 -135 q 450 -309 496 -261 q 313 -365 404 -357 l 313 -301 q 404 -235 404 -290 q 331 -220 360 -244 q 301 -157 301 -196 q 329 -92 301 -119 q 397 -65 357 -65 z "},"Ň":{"ha":986,"x_min":68,"x_max":918,"o":"m 236 1282 l 429 1282 l 492 1186 l 494 1186 l 557 1282 l 750 1282 l 601 1088 l 385 1088 l 236 1282 m 68 0 l 68 993 l 318 993 l 665 403 l 668 403 l 668 993 l 918 993 l 918 0 l 668 0 l 321 590 l 318 590 l 318 0 l 68 0 z "},"ň":{"ha":792,"x_min":54,"x_max":743,"o":"m 549 806 l 332 806 l 183 1000 l 376 1000 l 439 904 l 442 904 l 504 1000 l 697 1000 l 549 806 m 513 733 q 681 667 618 733 q 743 481 743 600 l 743 0 l 521 0 l 521 410 q 494 520 521 488 q 410 553 467 553 q 276 411 276 553 l 276 0 l 54 0 l 54 711 l 276 711 l 276 608 l 279 608 q 513 733 351 733 z "},"Ŋ":{"ha":986,"x_min":68,"x_max":918,"o":"m 68 0 l 68 993 l 318 993 l 665 403 l 668 403 l 668 993 l 918 993 l 918 64 q 642 -246 918 -246 q 506 -232 569 -246 l 506 -69 q 618 -54 586 -69 q 668 0 650 -39 l 321 590 l 318 590 l 318 0 l 68 0 z "},"ŋ":{"ha":792,"x_min":54,"x_max":743,"o":"m 513 733 q 681 667 618 733 q 743 481 743 600 l 743 -17 q 697 -203 743 -143 q 535 -262 651 -262 q 397 -247 471 -262 l 397 -81 q 498 -69 475 -81 q 521 0 521 -57 l 521 410 q 494 520 521 488 q 410 553 467 553 q 276 411 276 553 l 276 0 l 54 0 l 54 711 l 276 711 l 276 608 l 279 608 q 513 733 351 733 z "},"Ō":{"ha":1039,"x_min":28,"x_max":1011,"o":"m 321 1254 l 718 1254 l 718 1115 l 321 1115 l 321 1254 m 519 -22 q 158 122 289 -22 q 28 497 28 267 q 158 872 28 728 q 519 1015 289 1015 q 880 871 749 1015 q 1011 497 1011 726 q 880 122 1011 267 q 519 -22 749 -22 m 335 268 q 363 225 335 268 q 519 182 392 182 q 704 268 647 182 q 761 497 761 354 q 704 725 761 639 q 519 811 647 811 q 335 725 392 811 q 278 497 278 639 q 335 268 278 354 z "},"ō":{"ha":804,"x_min":22,"x_max":782,"o":"m 204 972 l 601 972 l 601 833 l 204 833 l 204 972 m 125 83 q 176 30 125 83 q 403 -22 228 -22 q 680 83 578 -22 q 782 356 782 188 q 680 628 782 524 q 403 733 578 733 q 125 628 228 733 q 22 356 22 524 q 125 83 22 188 m 403 144 q 286 199 328 144 q 244 356 244 254 q 286 512 244 457 q 403 567 328 567 q 518 512 476 567 q 560 356 560 457 q 518 199 560 254 q 403 144 476 144 z "},"Ő":{"ha":1039,"x_min":28,"x_max":1011,"o":"m 336 1282 l 586 1282 l 443 1088 l 276 1088 l 336 1282 m 642 1282 l 892 1282 l 749 1088 l 582 1088 l 642 1282 m 519 -22 q 158 122 289 -22 q 28 497 28 267 q 158 872 28 728 q 519 1015 289 1015 q 880 871 749 1015 q 1011 497 1011 726 q 880 122 1011 267 q 519 -22 749 -22 m 335 268 q 363 225 335 268 q 519 182 392 182 q 704 268 647 182 q 761 497 761 354 q 704 725 761 639 q 519 811 647 811 q 335 725 392 811 q 278 497 278 639 q 335 268 278 354 z "},"ő":{"ha":804,"x_min":22,"x_max":782,"o":"m 219 1000 l 469 1000 l 326 806 l 160 806 l 219 1000 m 525 1000 l 775 1000 l 632 806 l 465 806 l 525 1000 m 125 83 q 176 30 125 83 q 403 -22 228 -22 q 680 83 578 -22 q 782 356 782 188 q 680 628 782 524 q 403 733 578 733 q 125 628 228 733 q 22 356 22 524 q 125 83 22 188 m 403 144 q 286 199 328 144 q 244 356 244 254 q 286 512 244 457 q 403 567 328 567 q 518 512 476 567 q 560 356 560 457 q 518 199 560 254 q 403 144 476 144 z "},"Œ":{"ha":1524,"x_min":28,"x_max":1481,"o":"m 969 204 l 1481 204 l 1481 0 l 719 0 l 719 65 q 478 -22 621 -22 q 151 124 275 -22 q 28 497 28 269 q 151 869 28 724 q 478 1015 275 1015 q 719 928 621 1015 l 719 993 l 1472 993 l 1472 789 l 969 789 l 969 613 l 1403 613 l 1403 408 l 969 408 l 969 204 m 519 182 q 719 310 653 182 l 719 683 q 519 811 653 811 q 335 725 392 811 q 278 497 278 639 q 335 268 278 354 q 519 182 392 182 z "},"œ":{"ha":1354,"x_min":22,"x_max":1331,"o":"m 972 144 q 1099 215 1071 144 l 1319 215 q 1203 41 1289 104 q 976 -22 1117 -22 q 689 93 793 -22 q 403 -22 585 -22 q 125 83 228 -22 q 22 356 22 188 q 125 628 22 524 q 403 733 228 733 q 689 618 585 733 q 964 733 790 733 q 1236 615 1142 733 q 1331 297 1331 497 l 819 297 q 864 185 819 226 q 972 144 908 144 m 1069 542 q 1049 561 1069 542 q 964 581 1029 581 q 859 542 899 581 q 819 432 819 504 l 1108 432 q 1069 542 1108 504 m 403 144 q 518 199 476 144 q 560 356 560 254 q 518 512 560 457 q 403 567 476 567 q 286 512 328 567 q 244 356 244 457 q 286 199 244 254 q 403 144 328 144 z "},"Ŕ":{"ha":932,"x_min":68,"x_max":904,"o":"m 418 1282 l 668 1282 l 525 1088 l 358 1088 l 418 1282 m 68 0 l 68 993 l 536 993 q 797 918 703 993 q 890 704 890 843 q 837 544 890 607 q 689 461 783 482 l 689 458 q 801 397 758 446 q 856 288 843 349 q 874 166 869 226 q 884 62 879 106 q 904 14 889 18 l 904 0 l 644 0 q 629 51 632 11 q 624 140 626 92 q 613 236 622 189 q 568 315 603 283 q 474 346 533 346 l 318 346 l 318 0 l 68 0 m 318 789 l 318 550 l 488 550 q 640 669 640 550 q 488 789 640 789 l 318 789 z "},"ŕ":{"ha":532,"x_min":54,"x_max":514,"o":"m 508 1000 l 365 806 l 199 806 l 258 1000 l 508 1000 m 453 724 q 514 718 489 724 l 514 524 l 511 524 q 348 489 419 540 q 276 331 276 438 l 276 0 l 54 0 l 54 711 l 276 711 l 276 594 l 279 594 q 453 724 336 724 z "},"Ŗ":{"ha":932,"x_min":68,"x_max":904,"o":"m 68 0 l 68 993 l 536 993 q 797 918 703 993 q 890 704 890 843 q 837 544 890 607 q 689 461 783 482 l 689 458 q 801 397 758 446 q 856 288 843 349 q 874 166 869 226 q 884 62 879 106 q 904 14 889 18 l 904 0 l 644 0 q 629 51 632 11 q 624 140 626 92 q 613 236 622 189 q 568 315 603 283 q 474 346 533 346 l 318 346 l 318 0 l 68 0 m 318 789 l 318 550 l 488 550 q 640 669 640 550 q 488 789 640 789 l 318 789 m 492 -235 q 418 -220 447 -244 q 389 -157 389 -196 q 417 -92 389 -119 q 485 -65 444 -65 q 558 -100 532 -65 q 583 -189 583 -135 q 538 -309 583 -261 q 400 -365 492 -357 l 400 -301 q 492 -235 492 -290 z "},"ŗ":{"ha":532,"x_min":54,"x_max":514,"o":"m 453 724 q 514 718 489 724 l 514 524 l 511 524 q 348 489 419 540 q 276 331 276 438 l 276 0 l 54 0 l 54 711 l 276 711 l 276 594 l 279 594 q 453 724 336 724 m 172 -65 q 245 -100 219 -65 q 271 -189 271 -135 q 225 -309 271 -261 q 88 -365 179 -357 l 88 -301 q 179 -235 179 -290 q 106 -220 135 -244 q 76 -157 76 -196 q 104 -92 76 -119 q 172 -65 132 -65 z "},"Ř":{"ha":932,"x_min":68,"x_max":904,"o":"m 188 1282 l 381 1282 l 443 1186 l 446 1186 l 508 1282 l 701 1282 l 553 1088 l 336 1088 l 188 1282 m 68 0 l 68 993 l 536 993 q 797 918 703 993 q 890 704 890 843 q 837 544 890 607 q 689 461 783 482 l 689 458 q 801 397 758 446 q 856 288 843 349 q 874 166 869 226 q 884 62 879 106 q 904 14 889 18 l 904 0 l 644 0 q 629 51 632 11 q 624 140 626 92 q 613 236 622 189 q 568 315 603 283 q 474 346 533 346 l 318 346 l 318 0 l 68 0 m 318 789 l 318 550 l 488 550 q 640 669 640 550 q 488 789 640 789 l 318 789 z "},"ř":{"ha":532,"x_min":28,"x_max":542,"o":"m 393 806 l 176 806 l 28 1000 l 221 1000 l 283 904 l 286 904 l 349 1000 l 542 1000 l 393 806 m 279 594 q 453 724 336 724 q 514 718 489 724 l 514 524 l 511 524 q 348 489 419 540 q 276 331 276 438 l 276 0 l 54 0 l 54 711 l 276 711 l 276 594 l 279 594 z "},"Ś":{"ha":899,"x_min":21,"x_max":867,"o":"m 418 1282 l 668 1282 l 525 1088 l 358 1088 l 418 1282 m 486 617 q 599 583 556 597 q 700 542 643 569 q 789 483 757 514 q 844 402 821 451 q 867 292 867 353 q 763 63 867 147 q 474 -22 658 -22 q 148 72 275 -22 q 21 326 21 165 l 271 326 q 327 217 271 251 q 474 182 383 182 q 579 206 542 182 q 617 268 617 229 q 611 298 617 285 q 591 323 606 311 q 565 342 576 335 q 525 360 553 350 q 481 374 497 369 q 426 390 465 379 q 369 407 388 401 q 133 520 218 451 q 49 714 49 589 q 154 942 49 868 q 432 1015 260 1015 q 728 927 610 1015 q 853 692 847 839 l 603 692 q 549 779 594 747 q 432 811 504 811 q 335 792 372 811 q 299 732 299 772 q 339 668 299 690 q 486 617 379 646 z "},"ś":{"ha":700,"x_min":11,"x_max":681,"o":"m 319 1000 l 569 1000 l 426 806 l 260 806 l 319 1000 m 401 449 q 485 427 450 438 q 560 398 521 417 q 624 355 599 379 q 665 294 649 331 q 681 210 681 257 q 599 38 681 97 q 369 -22 518 -22 q 103 49 189 -22 q 11 236 17 119 l 219 236 q 361 131 229 131 q 458 192 458 131 q 399 257 458 236 q 279 286 378 264 q 187 311 225 297 q 108 349 149 325 q 47 413 68 374 q 25 506 25 453 q 108 669 25 606 q 336 733 190 733 q 575 665 496 733 q 660 493 654 597 l 451 493 q 342 581 440 581 q 247 524 247 581 q 249 509 247 515 q 254 497 250 503 q 263 488 258 492 q 276 479 267 483 q 292 473 285 475 q 313 467 299 471 q 338 462 328 464 q 367 456 347 460 q 401 449 388 451 z "},"Ş":{"ha":899,"x_min":21,"x_max":867,"o":"m 508 -21 l 463 -72 l 463 -75 q 572 -92 526 -68 q 618 -168 618 -117 q 565 -246 618 -217 q 436 -275 513 -275 q 281 -235 347 -275 l 322 -186 q 418 -207 367 -207 q 460 -197 440 -207 q 479 -167 479 -186 q 426 -129 479 -129 q 378 -139 404 -129 l 354 -106 l 428 -21 q 134 83 247 -10 q 21 326 21 175 l 271 326 q 327 217 271 251 q 474 182 383 182 q 579 206 542 182 q 617 268 617 229 q 611 298 617 285 q 591 323 606 311 q 565 342 576 335 q 525 360 553 350 q 481 374 497 369 q 426 390 465 379 q 369 407 388 401 q 133 520 218 451 q 49 714 49 589 q 154 942 49 868 q 432 1015 260 1015 q 728 927 610 1015 q 853 692 847 839 l 603 692 q 549 779 594 747 q 432 811 504 811 q 335 792 372 811 q 299 732 299 772 q 339 668 299 690 q 486 617 379 646 q 599 583 556 597 q 700 542 643 569 q 789 483 757 514 q 844 402 821 451 q 867 292 867 353 q 772 72 867 156 q 508 -21 678 -12 z "},"ş":{"ha":700,"x_min":11,"x_max":681,"o":"m 406 -21 l 360 -72 l 360 -75 q 469 -92 424 -68 q 515 -168 515 -117 q 463 -246 515 -217 q 333 -275 410 -275 q 178 -235 244 -275 l 219 -186 q 315 -207 264 -207 q 357 -197 338 -207 q 376 -167 376 -186 q 324 -129 376 -129 q 275 -139 301 -129 l 251 -106 l 325 -21 q 92 57 168 -12 q 11 236 17 126 l 219 236 q 361 131 229 131 q 458 192 458 131 q 399 257 458 236 q 279 286 378 264 q 187 311 225 297 q 108 349 149 325 q 47 413 68 374 q 25 506 25 453 q 108 669 25 606 q 336 733 190 733 q 575 665 496 733 q 660 493 654 597 l 451 493 q 342 581 440 581 q 247 524 247 581 q 249 509 247 515 q 254 497 250 503 q 263 488 258 492 q 276 479 267 483 q 292 473 285 475 q 313 467 299 471 q 338 462 328 464 q 367 456 347 460 q 401 449 388 451 q 485 427 450 438 q 560 398 521 417 q 624 355 599 379 q 665 294 649 331 q 681 210 681 257 q 609 46 681 106 q 406 -21 538 -14 z "},"Š":{"ha":899,"x_min":21,"x_max":867,"o":"m 188 1282 l 381 1282 l 443 1186 l 446 1186 l 508 1282 l 701 1282 l 553 1088 l 336 1088 l 188 1282 m 486 617 q 599 583 556 597 q 700 542 643 569 q 789 483 757 514 q 844 402 821 451 q 867 292 867 353 q 763 63 867 147 q 474 -22 658 -22 q 148 72 275 -22 q 21 326 21 165 l 271 326 q 327 217 271 251 q 474 182 383 182 q 579 206 542 182 q 617 268 617 229 q 611 298 617 285 q 591 323 606 311 q 565 342 576 335 q 525 360 553 350 q 481 374 497 369 q 426 390 465 379 q 369 407 388 401 q 133 520 218 451 q 49 714 49 589 q 154 942 49 868 q 432 1015 260 1015 q 728 927 610 1015 q 853 692 847 839 l 603 692 q 549 779 594 747 q 432 811 504 811 q 335 792 372 811 q 299 732 299 772 q 339 668 299 690 q 486 617 379 646 z "},"š":{"ha":700,"x_min":11,"x_max":681,"o":"m 89 1000 l 282 1000 l 344 904 l 347 904 l 410 1000 l 603 1000 l 454 806 l 238 806 l 89 1000 m 401 449 q 485 427 450 438 q 560 398 521 417 q 624 355 599 379 q 665 294 649 331 q 681 210 681 257 q 599 38 681 97 q 369 -22 518 -22 q 103 49 189 -22 q 11 236 17 119 l 219 236 q 361 131 229 131 q 458 192 458 131 q 399 257 458 236 q 279 286 378 264 q 187 311 225 297 q 108 349 149 325 q 47 413 68 374 q 25 506 25 453 q 108 669 25 606 q 336 733 190 733 q 575 665 496 733 q 660 493 654 597 l 451 493 q 342 581 440 581 q 247 524 247 581 q 249 509 247 515 q 254 497 250 503 q 263 488 258 492 q 276 479 267 483 q 292 473 285 475 q 313 467 299 471 q 338 462 328 464 q 367 456 347 460 q 401 449 388 451 z "},"Ţ":{"ha":874,"x_min":24,"x_max":850,"o":"m 481 0 l 428 -58 l 428 -61 q 538 -78 492 -54 q 583 -154 583 -103 q 531 -232 583 -203 q 401 -261 478 -261 q 246 -221 313 -261 l 288 -172 q 383 -193 332 -193 q 425 -183 406 -193 q 444 -153 444 -172 q 392 -115 444 -115 q 343 -125 369 -115 l 319 -92 l 399 0 l 313 0 l 313 789 l 24 789 l 24 993 l 850 993 l 850 789 l 563 789 l 563 0 l 481 0 z "},"ţ":{"ha":488,"x_min":15,"x_max":467,"o":"m 311 -61 q 421 -78 375 -54 q 467 -154 467 -103 q 414 -232 467 -203 q 285 -261 361 -261 q 129 -221 196 -261 l 171 -172 q 267 -193 215 -193 q 308 -183 289 -193 q 328 -153 328 -172 q 275 -115 328 -115 q 226 -125 253 -115 l 203 -92 l 274 -10 q 149 62 185 3 q 114 233 114 121 l 114 544 l 15 544 l 15 711 l 114 711 l 114 910 l 336 910 l 336 711 l 460 711 l 460 544 l 336 544 l 336 250 q 359 181 336 193 q 460 169 382 169 l 460 3 q 353 -12 401 -10 l 311 -58 l 311 -61 z "},"Ť":{"ha":874,"x_min":24,"x_max":850,"o":"m 181 1282 l 374 1282 l 436 1186 l 439 1186 l 501 1282 l 694 1282 l 546 1088 l 329 1088 l 181 1282 m 313 0 l 313 789 l 24 789 l 24 993 l 850 993 l 850 789 l 563 789 l 563 0 l 313 0 z "},"ť":{"ha":488,"x_min":15,"x_max":579,"o":"m 481 1069 q 553 1035 528 1069 q 579 946 579 1000 q 533 826 579 874 q 396 769 488 778 l 396 833 q 488 900 488 844 q 414 915 443 890 q 385 978 385 939 q 413 1042 385 1015 q 481 1069 440 1069 m 336 910 l 336 711 l 460 711 l 460 544 l 336 544 l 336 250 q 359 181 336 193 q 460 169 382 169 l 460 3 q 322 -12 386 -12 q 160 47 206 -12 q 114 233 114 107 l 114 544 l 15 544 l 15 711 l 114 711 l 114 910 l 336 910 z "},"Ŧ":{"ha":874,"x_min":24,"x_max":850,"o":"m 850 789 l 563 789 l 563 576 l 749 576 l 749 451 l 563 451 l 563 0 l 313 0 l 313 451 l 126 451 l 126 576 l 313 576 l 313 789 l 24 789 l 24 993 l 850 993 l 850 789 z "},"ŧ":{"ha":488,"x_min":15,"x_max":460,"o":"m 460 544 l 336 544 l 336 450 l 460 450 l 460 325 l 336 325 l 336 250 q 359 181 336 193 q 460 169 382 169 l 460 3 q 322 -12 386 -12 q 160 47 206 -12 q 114 233 114 107 l 114 325 l 15 325 l 15 450 l 114 450 l 114 544 l 15 544 l 15 711 l 114 711 l 114 910 l 336 910 l 336 711 l 460 711 l 460 544 z "},"Ū":{"ha":953,"x_min":61,"x_max":892,"o":"m 278 1254 l 675 1254 l 675 1115 l 278 1115 l 278 1254 m 892 358 q 794 73 892 168 q 476 -22 696 -22 q 159 73 257 -22 q 61 358 61 168 l 61 993 l 311 993 l 311 358 q 351 223 311 264 q 476 182 392 182 q 601 223 561 182 q 642 358 642 264 l 642 993 l 892 993 l 892 358 z "},"ū":{"ha":792,"x_min":49,"x_max":738,"o":"m 592 972 l 592 833 l 194 833 l 194 972 l 592 972 m 515 711 l 738 711 l 738 0 l 515 0 l 515 103 l 513 103 q 279 -22 440 -22 q 111 44 174 -22 q 49 231 49 111 l 49 711 l 271 711 l 271 301 q 298 191 271 224 q 382 158 325 158 q 515 300 515 158 l 515 711 z "},"Ů":{"ha":953,"x_min":61,"x_max":892,"o":"m 577 1110 q 557 1091 577 1110 q 476 1072 536 1072 q 376 1110 417 1072 q 335 1211 335 1149 q 376 1312 335 1274 q 476 1350 417 1350 q 577 1312 536 1350 q 618 1211 618 1274 q 577 1110 618 1149 m 476 1149 q 519 1165 503 1149 q 535 1211 535 1182 q 519 1257 535 1240 q 476 1274 503 1274 q 435 1257 451 1274 q 419 1211 419 1240 q 435 1165 419 1182 q 476 1149 451 1149 m 892 358 q 794 73 892 168 q 476 -22 696 -22 q 159 73 257 -22 q 61 358 61 168 l 61 993 l 311 993 l 311 358 q 351 223 311 264 q 476 182 392 182 q 601 223 561 182 q 642 358 642 264 l 642 993 l 892 993 l 892 358 z "},"ů":{"ha":792,"x_min":49,"x_max":738,"o":"m 494 828 q 473 809 494 828 q 393 790 453 790 q 292 828 333 790 q 251 929 251 867 q 292 1030 251 992 q 393 1068 333 1068 q 494 1030 453 1068 q 535 929 535 992 q 494 828 535 867 m 393 992 q 352 975 368 992 q 336 929 336 958 q 352 883 336 900 q 393 867 368 867 q 435 883 419 867 q 451 929 451 900 q 435 975 451 958 q 393 992 419 992 m 515 711 l 738 711 l 738 0 l 515 0 l 515 103 l 513 103 q 279 -22 440 -22 q 111 44 174 -22 q 49 231 49 111 l 49 711 l 271 711 l 271 301 q 298 191 271 224 q 382 158 325 158 q 515 300 515 158 l 515 711 z "},"Ű":{"ha":953,"x_min":61,"x_max":892,"o":"m 293 1282 l 543 1282 l 400 1088 l 233 1088 l 293 1282 m 599 1282 l 849 1282 l 706 1088 l 539 1088 l 599 1282 m 892 358 q 794 73 892 168 q 476 -22 696 -22 q 159 73 257 -22 q 61 358 61 168 l 61 993 l 311 993 l 311 358 q 351 223 311 264 q 476 182 392 182 q 601 223 561 182 q 642 358 642 264 l 642 993 l 892 993 l 892 358 z "},"ű":{"ha":792,"x_min":49,"x_max":765,"o":"m 460 1000 l 317 806 l 150 806 l 210 1000 l 460 1000 m 622 806 l 456 806 l 515 1000 l 765 1000 l 622 806 m 515 300 l 515 711 l 738 711 l 738 0 l 515 0 l 515 103 l 513 103 q 279 -22 440 -22 q 111 44 174 -22 q 49 231 49 111 l 49 711 l 271 711 l 271 301 q 298 191 271 224 q 382 158 325 158 q 515 300 515 158 z "},"Ų":{"ha":953,"x_min":61,"x_max":892,"o":"m 642 993 l 892 993 l 892 358 q 836 124 892 213 q 660 0 781 35 q 624 -31 635 -21 q 603 -56 614 -40 q 593 -85 593 -71 q 636 -115 593 -115 q 693 -106 658 -115 l 693 -231 q 581 -246 635 -246 q 422 -129 422 -246 q 482 -22 422 -67 l 476 -22 q 159 73 257 -22 q 61 358 61 168 l 61 993 l 311 993 l 311 358 q 351 223 311 264 q 476 182 392 182 q 601 223 561 182 q 642 358 642 264 l 642 993 z "},"ų":{"ha":792,"x_min":49,"x_max":771,"o":"m 714 -115 q 771 -106 736 -115 l 771 -231 q 658 -246 713 -246 q 500 -129 500 -246 q 597 0 500 -46 l 515 0 l 515 103 l 513 103 q 279 -22 440 -22 q 111 44 174 -22 q 49 231 49 111 l 49 711 l 271 711 l 271 301 q 298 191 271 224 q 382 158 325 158 q 515 300 515 158 l 515 711 l 738 711 l 738 0 q 702 -31 713 -21 q 681 -56 692 -40 q 671 -85 671 -71 q 714 -115 671 -115 z "},"Ŵ":{"ha":1306,"x_min":0,"x_max":1306,"o":"m 396 1088 l 544 1282 l 761 1282 l 910 1088 l 717 1088 l 654 1183 l 651 1183 l 589 1088 l 396 1088 m 0 993 l 250 993 l 378 319 l 381 319 l 535 993 l 771 993 l 925 319 l 928 319 l 1056 993 l 1306 993 l 1053 0 l 803 0 l 654 619 l 651 619 l 503 0 l 253 0 l 0 993 z "},"ŵ":{"ha":1088,"x_min":-3,"x_max":1089,"o":"m 286 806 l 435 1000 l 651 1000 l 800 806 l 607 806 l 544 901 l 542 901 l 479 806 l 286 806 m -3 711 l 219 711 l 326 278 l 329 278 l 446 711 l 640 711 l 757 278 l 760 278 l 867 711 l 1089 711 l 890 0 l 682 0 l 544 450 l 542 450 l 404 0 l 196 0 l -3 711 z "},"Ŷ":{"ha":921,"x_min":1,"x_max":919,"o":"m 204 1088 l 353 1282 l 569 1282 l 718 1088 l 525 1088 l 463 1183 l 460 1183 l 397 1088 l 204 1088 m 1 993 l 265 993 l 458 585 l 461 585 l 656 993 l 919 993 l 585 367 l 585 0 l 335 0 l 335 367 l 1 993 z "},"ŷ":{"ha":735,"x_min":-4,"x_max":739,"o":"m 111 806 l 260 1000 l 476 1000 l 625 806 l 432 806 l 369 901 l 367 901 l 304 806 l 111 806 m 739 711 l 497 -14 q 392 -197 451 -149 q 219 -246 333 -246 q 96 -232 161 -246 l 96 -65 l 99 -65 q 233 -36 199 -87 q 228 103 261 7 l -4 711 l 218 711 l 379 244 l 382 244 l 517 711 l 739 711 z "},"Ÿ":{"ha":921,"x_min":1,"x_max":919,"o":"m 234 1110 q 220 1125 234 1110 q 206 1185 206 1140 q 235 1260 206 1229 q 313 1290 264 1290 q 390 1260 361 1290 q 418 1185 418 1229 q 390 1110 418 1140 q 313 1079 361 1079 q 234 1110 263 1079 m 533 1110 q 518 1125 533 1110 q 504 1185 504 1140 q 533 1260 504 1229 q 611 1290 563 1290 q 688 1260 660 1290 q 717 1185 717 1229 q 688 1110 717 1140 q 611 1079 660 1079 q 533 1110 561 1079 m 1 993 l 265 993 l 458 585 l 461 585 l 656 993 l 919 993 l 585 367 l 585 0 l 335 0 l 335 367 l 1 993 z "},"Ź":{"ha":847,"x_min":36,"x_max":810,"o":"m 411 1282 l 661 1282 l 518 1088 l 351 1088 l 411 1282 m 64 993 l 796 993 l 796 789 l 342 207 l 342 204 l 810 204 l 810 0 l 36 0 l 36 204 l 490 786 l 490 789 l 64 789 l 64 993 z "},"ź":{"ha":701,"x_min":33,"x_max":671,"o":"m 333 1000 l 583 1000 l 440 806 l 274 806 l 333 1000 m 33 160 l 379 542 l 379 544 l 61 544 l 61 711 l 657 711 l 657 551 l 311 169 l 311 167 l 671 167 l 671 0 l 33 0 l 33 160 z "},"Ż":{"ha":847,"x_min":36,"x_max":810,"o":"m 359 1110 q 345 1125 359 1110 q 331 1185 331 1140 q 360 1260 331 1229 q 438 1290 389 1290 q 515 1260 486 1290 q 543 1185 543 1229 q 515 1110 543 1140 q 438 1079 486 1079 q 359 1110 388 1079 m 64 993 l 796 993 l 796 789 l 342 207 l 342 204 l 810 204 l 810 0 l 36 0 l 36 204 l 490 786 l 490 789 l 64 789 l 64 993 z "},"ż":{"ha":701,"x_min":33,"x_max":671,"o":"m 281 828 q 267 843 281 828 q 253 903 253 858 q 282 978 253 947 q 360 1008 311 1008 q 437 978 408 1008 q 465 903 465 947 q 437 828 465 858 q 360 797 408 797 q 281 828 310 797 m 33 160 l 379 542 l 379 544 l 61 544 l 61 711 l 657 711 l 657 551 l 311 169 l 311 167 l 671 167 l 671 0 l 33 0 l 33 160 z "},"Ž":{"ha":847,"x_min":36,"x_max":810,"o":"m 181 1282 l 374 1282 l 436 1186 l 439 1186 l 501 1282 l 694 1282 l 546 1088 l 329 1088 l 181 1282 m 64 993 l 796 993 l 796 789 l 342 207 l 342 204 l 810 204 l 810 0 l 36 0 l 36 204 l 490 786 l 490 789 l 64 789 l 64 993 z "},"ž":{"ha":701,"x_min":33,"x_max":671,"o":"m 103 1000 l 296 1000 l 358 904 l 361 904 l 424 1000 l 617 1000 l 468 806 l 251 806 l 103 1000 m 33 160 l 379 542 l 379 544 l 61 544 l 61 711 l 657 711 l 657 551 l 311 169 l 311 167 l 671 167 l 671 0 l 33 0 l 33 160 z "},"Ș":{"ha":899,"x_min":21,"x_max":867,"o":"m 486 617 q 599 583 556 597 q 700 542 643 569 q 789 483 757 514 q 844 402 821 451 q 867 292 867 353 q 763 63 867 147 q 474 -22 658 -22 q 148 72 275 -22 q 21 326 21 165 l 271 326 q 327 217 271 251 q 474 182 383 182 q 579 206 542 182 q 617 268 617 229 q 611 298 617 285 q 591 323 606 311 q 565 342 576 335 q 525 360 553 350 q 481 374 497 369 q 426 390 465 379 q 369 407 388 401 q 133 520 218 451 q 49 714 49 589 q 154 942 49 868 q 432 1015 260 1015 q 728 927 610 1015 q 853 692 847 839 l 603 692 q 549 779 594 747 q 432 811 504 811 q 335 792 372 811 q 299 732 299 772 q 339 668 299 690 q 486 617 379 646 m 478 -235 q 404 -220 433 -244 q 375 -157 375 -196 q 403 -92 375 -119 q 471 -65 431 -65 q 544 -100 518 -65 q 569 -189 569 -135 q 524 -309 569 -261 q 386 -365 478 -357 l 386 -301 q 478 -235 478 -290 z "},"ș":{"ha":700,"x_min":11,"x_max":681,"o":"m 401 449 q 485 427 450 438 q 560 398 521 417 q 624 355 599 379 q 665 294 649 331 q 681 210 681 257 q 599 38 681 97 q 369 -22 518 -22 q 103 49 189 -22 q 11 236 17 119 l 219 236 q 361 131 229 131 q 458 192 458 131 q 399 257 458 236 q 279 286 378 264 q 187 311 225 297 q 108 349 149 325 q 47 413 68 374 q 25 506 25 453 q 108 669 25 606 q 336 733 190 733 q 575 665 496 733 q 660 493 654 597 l 451 493 q 342 581 440 581 q 247 524 247 581 q 249 509 247 515 q 254 497 250 503 q 263 488 258 492 q 276 479 267 483 q 292 473 285 475 q 313 467 299 471 q 338 462 328 464 q 367 456 347 460 q 401 449 388 451 m 375 -235 q 301 -220 331 -244 q 272 -157 272 -196 q 300 -92 272 -119 q 368 -65 328 -65 q 441 -100 415 -65 q 467 -189 467 -135 q 421 -309 467 -261 q 283 -365 375 -357 l 283 -301 q 375 -235 375 -290 z "},"Ț":{"ha":874,"x_min":24,"x_max":850,"o":"m 313 0 l 313 789 l 24 789 l 24 993 l 850 993 l 850 789 l 563 789 l 563 0 l 313 0 m 443 -221 q 369 -206 399 -231 q 340 -143 340 -182 q 368 -78 340 -106 q 436 -51 396 -51 q 509 -86 483 -51 q 535 -175 535 -121 q 489 -295 535 -247 q 351 -351 443 -343 l 351 -287 q 443 -221 443 -276 z "},"ț":{"ha":488,"x_min":15,"x_max":460,"o":"m 460 544 l 336 544 l 336 250 q 359 181 336 193 q 460 169 382 169 l 460 3 q 322 -12 386 -12 q 160 47 206 -12 q 114 233 114 107 l 114 544 l 15 544 l 15 711 l 114 711 l 114 910 l 336 910 l 336 711 l 460 711 l 460 544 m 319 -51 q 392 -86 367 -51 q 418 -175 418 -121 q 372 -295 418 -247 q 235 -351 326 -343 l 235 -287 q 326 -221 326 -276 q 253 -206 282 -231 q 224 -143 224 -182 q 251 -78 224 -106 q 319 -51 279 -51 z "},"ˆ":{"ha":644,"x_min":90,"x_max":604,"o":"m 90 806 l 239 1000 l 456 1000 l 604 806 l 411 806 l 349 901 l 346 901 l 283 806 l 90 806 z "},"ˇ":{"ha":696,"x_min":92,"x_max":606,"o":"m 92 1000 l 285 1000 l 347 904 l 350 904 l 413 1000 l 606 1000 l 457 806 l 240 806 l 92 1000 z "},"˘":{"ha":690,"x_min":150,"x_max":594,"o":"m 529 853 q 499 825 529 853 q 372 797 468 797 q 215 853 276 797 q 150 1000 153 908 l 278 1000 q 372 933 285 933 q 467 1000 460 933 l 594 1000 q 529 853 590 910 z "},"˙":{"ha":682,"x_min":235,"x_max":447,"o":"m 263 828 q 249 843 263 828 q 235 903 235 858 q 264 978 235 947 q 342 1008 293 1008 q 419 978 390 1008 q 447 903 447 947 q 419 828 447 858 q 342 797 390 797 q 263 828 292 797 z "},"˚":{"ha":694,"x_min":206,"x_max":489,"o":"m 448 828 q 427 809 448 828 q 347 790 407 790 q 247 828 288 790 q 206 929 206 867 q 247 1030 206 992 q 347 1068 288 1068 q 448 1030 407 1068 q 489 929 489 992 q 448 828 489 867 m 347 867 q 390 883 374 867 q 406 929 406 900 q 390 975 406 958 q 347 992 374 992 q 306 975 322 992 q 290 929 290 958 q 306 883 290 900 q 347 867 322 867 z "},"˛":{"ha":708,"x_min":168,"x_max":439,"o":"m 326 -246 q 168 -129 168 -246 q 265 0 168 -46 l 406 0 q 370 -31 381 -21 q 349 -56 360 -40 q 339 -85 339 -71 q 382 -115 339 -115 q 439 -106 406 -115 l 439 -231 q 326 -246 381 -246 z "},"˜":{"ha":694,"x_min":117,"x_max":578,"o":"m 117 825 q 239 1013 117 1013 q 332 986 272 1013 q 417 960 392 960 q 463 1013 463 960 l 578 1013 q 547 869 578 913 q 456 825 517 825 q 363 851 422 825 q 278 876 303 876 q 232 825 232 876 l 117 825 z "},"˝":{"ha":751,"x_min":133,"x_max":749,"o":"m 193 1000 l 443 1000 l 300 806 l 133 806 l 193 1000 m 499 1000 l 749 1000 l 606 806 l 439 806 l 499 1000 z "},"̀":{"ha":0,"x_min":-351,"x_max":-42,"o":"m -101 1000 l -42 806 l -208 806 l -351 1000 l -101 1000 z "},"́":{"ha":0,"x_min":-351,"x_max":-42,"o":"m -292 1000 l -42 1000 l -185 806 l -351 806 l -292 1000 z "},"̂":{"ha":0,"x_min":-556,"x_max":-42,"o":"m -556 806 l -407 1000 l -190 1000 l -42 806 l -235 806 l -297 901 l -300 901 l -362 806 l -556 806 z "},"̃":{"ha":0,"x_min":-503,"x_max":-42,"o":"m -503 825 q -381 1013 -503 1013 q -287 986 -347 1013 q -203 960 -228 960 q -157 1013 -157 960 l -42 1013 q -72 869 -42 913 q -164 825 -103 825 q -257 851 -197 825 q -342 876 -317 876 q -387 825 -387 876 l -503 825 z "},"̄":{"ha":0,"x_min":-439,"x_max":-42,"o":"m -439 972 l -42 972 l -42 833 l -439 833 l -439 972 z "},"̆":{"ha":0,"x_min":-486,"x_max":-42,"o":"m -107 853 q -137 825 -107 853 q -264 797 -168 797 q -422 853 -360 797 q -486 1000 -483 908 l -358 1000 q -264 933 -351 933 q -169 1000 -176 933 l -42 1000 q -107 853 -46 910 z "},"̇":{"ha":0,"x_min":-254,"x_max":-42,"o":"m -226 828 q -240 843 -226 828 q -254 903 -254 858 q -225 978 -254 947 q -147 1008 -196 1008 q -70 978 -99 1008 q -42 903 -42 947 q -70 828 -42 858 q -147 797 -99 797 q -226 828 -197 797 z "},"̈":{"ha":0,"x_min":-553,"x_max":-42,"o":"m -524 828 q -539 843 -524 828 q -553 903 -553 858 q -524 978 -553 947 q -446 1008 -494 1008 q -369 978 -397 1008 q -340 903 -340 947 q -369 828 -340 858 q -446 797 -397 797 q -524 828 -496 797 m -226 828 q -240 843 -226 828 q -254 903 -254 858 q -225 978 -254 947 q -147 1008 -196 1008 q -70 978 -99 1008 q -42 903 -42 947 q -70 828 -42 858 q -147 797 -99 797 q -226 828 -197 797 z "},"̊":{"ha":0,"x_min":-325,"x_max":-42,"o":"m -83 828 q -103 809 -83 828 q -183 790 -124 790 q -284 828 -243 790 q -325 929 -325 867 q -284 1030 -325 992 q -183 1068 -243 1068 q -83 1030 -124 1068 q -42 929 -42 992 q -83 828 -42 867 m -183 867 q -141 883 -157 867 q -125 929 -125 900 q -141 975 -125 958 q -183 992 -157 992 q -224 975 -208 992 q -240 929 -240 958 q -224 883 -240 900 q -183 867 -208 867 z "},"̋":{"ha":0,"x_min":-657,"x_max":-42,"o":"m -597 1000 l -347 1000 l -490 806 l -657 806 l -597 1000 m -292 1000 l -42 1000 l -185 806 l -351 806 l -292 1000 z "},"̌":{"ha":0,"x_min":-556,"x_max":-42,"o":"m -556 1000 l -362 1000 l -300 904 l -297 904 l -235 1000 l -42 1000 l -190 806 l -407 806 l -556 1000 z "},"̒":{"ha":0,"x_min":-236,"x_max":-42,"o":"m -144 960 q -71 945 -100 969 q -42 879 -42 921 q -64 815 -42 839 q -126 790 -86 790 q -207 826 -178 790 q -236 914 -236 861 q -190 1034 -236 986 q -53 1090 -144 1082 l -53 1026 q -144 960 -144 1015 z "},"̦":{"ha":0,"x_min":-236,"x_max":-42,"o":"m -133 -235 q -207 -220 -178 -244 q -236 -157 -236 -196 q -208 -92 -236 -119 q -140 -65 -181 -65 q -67 -100 -93 -65 q -42 -189 -42 -135 q -87 -309 -42 -261 q -225 -365 -133 -357 l -225 -301 q -133 -235 -133 -290 z "},"̧":{"ha":0,"x_min":-371,"x_max":-33,"o":"m -136 -14 l -189 -72 l -189 -75 q -79 -92 -125 -68 q -33 -168 -33 -117 q -86 -246 -33 -217 q -215 -275 -139 -275 q -371 -235 -304 -275 l -329 -186 q -233 -207 -285 -207 q -192 -197 -211 -207 q -172 -167 -172 -186 q -225 -129 -172 -129 q -274 -139 -247 -129 l -297 -106 l -218 -14 l -136 -14 z "},"̨":{"ha":0,"x_min":-312,"x_max":-42,"o":"m -154 -246 q -312 -129 -312 -246 q -215 0 -312 -46 l -75 0 q -110 -31 -100 -21 q -131 -56 -121 -40 q -142 -85 -142 -71 q -99 -115 -142 -115 q -42 -106 -75 -115 l -42 -231 q -154 -246 -100 -246 z "},"̵":{"ha":0,"x_min":-664,"x_max":-42,"o":"m -42 576 l -42 451 l -664 451 l -664 576 l -42 576 z "},"̶":{"ha":0,"x_min":-792,"x_max":-42,"o":"m -42 601 l -42 397 l -792 397 l -792 601 l -42 601 z "},"̷":{"ha":0,"x_min":-786,"x_max":-42,"o":"m -786 42 l -728 -18 l -42 669 l -101 728 l -786 42 z "},"̸":{"ha":0,"x_min":-786,"x_max":-42,"o":"m -786 42 l -728 -18 l -42 669 l -101 728 l -786 42 z "},"Ẁ":{"ha":1306,"x_min":0,"x_max":1306,"o":"m 678 1282 l 738 1088 l 571 1088 l 428 1282 l 678 1282 m 0 993 l 250 993 l 378 319 l 381 319 l 535 993 l 771 993 l 925 319 l 928 319 l 1056 993 l 1306 993 l 1053 0 l 803 0 l 654 619 l 651 619 l 503 0 l 253 0 l 0 993 z "},"ẁ":{"ha":1088,"x_min":-3,"x_max":1089,"o":"m 568 1000 l 628 806 l 461 806 l 318 1000 l 568 1000 m -3 711 l 219 711 l 326 278 l 329 278 l 446 711 l 640 711 l 757 278 l 760 278 l 867 711 l 1089 711 l 890 0 l 682 0 l 544 450 l 542 450 l 404 0 l 196 0 l -3 711 z "},"Ẃ":{"ha":1306,"x_min":0,"x_max":1306,"o":"m 626 1282 l 876 1282 l 733 1088 l 567 1088 l 626 1282 m 0 993 l 250 993 l 378 319 l 381 319 l 535 993 l 771 993 l 925 319 l 928 319 l 1056 993 l 1306 993 l 1053 0 l 803 0 l 654 619 l 651 619 l 503 0 l 253 0 l 0 993 z "},"ẃ":{"ha":1088,"x_min":-3,"x_max":1089,"o":"m 517 1000 l 767 1000 l 624 806 l 457 806 l 517 1000 m -3 711 l 219 711 l 326 278 l 329 278 l 446 711 l 640 711 l 757 278 l 760 278 l 867 711 l 1089 711 l 890 0 l 682 0 l 544 450 l 542 450 l 404 0 l 196 0 l -3 711 z "},"Ẅ":{"ha":1306,"x_min":0,"x_max":1306,"o":"m 426 1110 q 411 1125 426 1110 q 397 1185 397 1140 q 426 1260 397 1229 q 504 1290 456 1290 q 581 1260 553 1290 q 610 1185 610 1229 q 581 1110 610 1140 q 504 1079 553 1079 q 426 1110 454 1079 m 724 1110 q 710 1125 724 1110 q 696 1185 696 1140 q 725 1260 696 1229 q 803 1290 754 1290 q 880 1260 851 1290 q 908 1185 908 1229 q 880 1110 908 1140 q 803 1079 851 1079 q 724 1110 753 1079 m 0 993 l 250 993 l 378 319 l 381 319 l 535 993 l 771 993 l 925 319 l 928 319 l 1056 993 l 1306 993 l 1053 0 l 803 0 l 654 619 l 651 619 l 503 0 l 253 0 l 0 993 z "},"ẅ":{"ha":1088,"x_min":-3,"x_max":1089,"o":"m 316 828 q 302 843 316 828 q 288 903 288 858 q 317 978 288 947 q 394 1008 346 1008 q 472 978 443 1008 q 500 903 500 947 q 472 828 500 858 q 394 797 443 797 q 316 828 344 797 m 615 828 q 600 843 615 828 q 586 903 586 858 q 615 978 586 947 q 693 1008 644 1008 q 770 978 742 1008 q 799 903 799 947 q 770 828 799 858 q 693 797 742 797 q 615 828 643 797 m -3 711 l 219 711 l 326 278 l 329 278 l 446 711 l 640 711 l 757 278 l 760 278 l 867 711 l 1089 711 l 890 0 l 682 0 l 544 450 l 542 450 l 404 0 l 196 0 l -3 711 z "},"Ỳ":{"ha":921,"x_min":1,"x_max":919,"o":"m 486 1282 l 546 1088 l 379 1088 l 236 1282 l 486 1282 m 1 993 l 265 993 l 458 585 l 461 585 l 656 993 l 919 993 l 585 367 l 585 0 l 335 0 l 335 367 l 1 993 z "},"ỳ":{"ha":735,"x_min":-4,"x_max":739,"o":"m 393 1000 l 453 806 l 286 806 l 143 1000 l 393 1000 m 739 711 l 497 -14 q 392 -197 451 -149 q 219 -246 333 -246 q 96 -232 161 -246 l 96 -65 l 99 -65 q 233 -36 199 -87 q 228 103 261 7 l -4 711 l 218 711 l 379 244 l 382 244 l 517 711 l 739 711 z "},"–":{"ha":694,"x_min":0,"x_max":694,"o":"m 0 446 l 694 446 l 694 256 l 0 256 l 0 446 z "},"—":{"ha":1389,"x_min":139,"x_max":1250,"o":"m 139 446 l 1250 446 l 1250 256 l 139 256 l 139 446 z "},"‘":{"ha":349,"x_min":47,"x_max":297,"o":"m 165 778 q 261 747 225 778 q 297 660 297 715 q 263 574 297 606 q 174 542 228 542 q 79 585 111 542 q 47 708 47 629 q 110 906 47 829 q 283 997 172 982 l 283 900 q 199 857 232 893 q 165 778 165 821 z "},"’":{"ha":342,"x_min":44,"x_max":294,"o":"m 176 769 q 81 801 117 769 q 44 888 44 832 q 79 974 44 942 q 168 1006 114 1006 q 263 962 231 1006 q 294 839 294 918 q 232 642 294 718 q 58 550 169 565 l 58 647 q 143 690 110 654 q 176 769 176 726 z "},"‚":{"ha":342,"x_min":44,"x_max":294,"o":"m 176 -12 q 81 19 117 -12 q 44 106 44 50 q 79 192 44 160 q 168 224 114 224 q 263 180 231 224 q 294 57 294 136 q 232 -140 294 -64 q 58 -232 169 -217 l 58 -135 q 143 -92 110 -128 q 176 -12 176 -56 z "},"“":{"ha":647,"x_min":47,"x_max":603,"o":"m 165 778 q 261 747 225 778 q 297 660 297 715 q 263 574 297 606 q 174 542 228 542 q 79 585 111 542 q 47 708 47 629 q 110 906 47 829 q 283 997 172 982 l 283 900 q 199 857 232 893 q 165 778 165 821 m 471 778 q 567 747 531 778 q 603 660 603 715 q 568 574 603 606 q 479 542 533 542 q 385 585 417 542 q 353 708 353 629 q 415 906 353 829 q 589 997 478 982 l 589 900 q 504 857 538 893 q 471 778 471 821 z "},"”":{"ha":647,"x_min":44,"x_max":600,"o":"m 176 769 q 81 801 117 769 q 44 888 44 832 q 79 974 44 942 q 168 1006 114 1006 q 263 962 231 1006 q 294 839 294 918 q 232 642 294 718 q 58 550 169 565 l 58 647 q 143 690 110 654 q 176 769 176 726 m 482 769 q 386 801 422 769 q 350 888 350 832 q 385 974 350 942 q 474 1006 419 1006 q 568 962 536 1006 q 600 839 600 918 q 538 642 600 718 q 364 550 475 565 l 364 647 q 449 690 415 654 q 482 769 482 726 z "},"„":{"ha":647,"x_min":44,"x_max":600,"o":"m 176 -12 q 81 19 117 -12 q 44 106 44 50 q 79 192 44 160 q 168 224 114 224 q 263 180 231 224 q 294 57 294 136 q 232 -140 294 -64 q 58 -232 169 -217 l 58 -135 q 143 -92 110 -128 q 176 -12 176 -56 m 482 -12 q 386 19 422 -12 q 350 106 350 50 q 385 192 350 160 q 474 224 419 224 q 568 180 536 224 q 600 57 600 136 q 538 -140 600 -64 q 364 -232 475 -217 l 364 -135 q 449 -92 415 -128 q 482 -12 482 -56 z "},"†":{"ha":818,"x_min":47,"x_max":771,"o":"m 292 521 l 47 521 l 47 711 l 292 711 l 292 993 l 528 993 l 528 711 l 771 711 l 771 521 l 528 521 l 528 -246 l 292 -246 l 292 521 z "},"‡":{"ha":819,"x_min":47,"x_max":771,"o":"m 292 76 l 47 76 l 47 267 l 292 267 l 292 521 l 47 521 l 47 711 l 292 711 l 292 993 l 528 993 l 528 711 l 771 711 l 771 521 l 528 521 l 528 267 l 771 267 l 771 76 l 528 76 l 528 -246 l 292 -246 l 292 76 z "},"•":{"ha":519,"x_min":51,"x_max":468,"o":"m 410 297 q 382 266 410 297 q 260 236 353 236 q 109 297 167 236 q 51 444 51 357 q 109 592 51 532 q 260 653 167 653 q 410 592 353 653 q 468 444 468 532 q 410 297 468 357 z "},"…":{"ha":908,"x_min":44,"x_max":864,"o":"m 163 -12 q 78 20 111 -12 q 44 106 44 53 q 78 191 44 158 q 163 224 111 224 q 247 191 213 224 q 281 106 281 158 q 247 20 281 53 q 163 -12 213 -12 m 454 -12 q 369 20 403 -12 q 336 106 336 53 q 369 191 336 158 q 454 224 403 224 q 538 191 504 224 q 572 106 572 158 q 538 20 572 53 q 454 -12 504 -12 m 746 -12 q 661 20 694 -12 q 628 106 628 53 q 661 191 628 158 q 746 224 694 224 q 830 191 796 224 q 864 106 864 158 q 830 20 864 53 q 746 -12 796 -12 z "},"‰":{"ha":1771,"x_min":28,"x_max":1744,"o":"m 283 425 q 94 504 160 425 q 28 703 28 583 q 94 903 28 824 q 283 982 160 982 q 473 903 408 982 q 538 703 538 824 q 473 503 538 582 q 283 425 408 425 m 925 960 l 421 0 l 282 0 l 786 960 l 925 960 m 225 585 q 233 568 225 585 q 283 550 242 550 q 341 585 325 550 q 357 703 357 621 q 341 821 357 785 q 283 857 325 857 q 225 821 242 857 q 208 703 208 785 q 225 585 208 621 m 925 -22 q 735 57 801 -22 q 669 256 669 136 q 735 456 669 376 q 925 535 801 535 q 1115 456 1050 535 q 1179 256 1179 376 q 1115 56 1179 135 q 925 -22 1050 -22 m 1490 -22 q 1301 57 1367 -22 q 1235 256 1235 136 q 1301 456 1235 376 q 1490 535 1367 535 q 1680 456 1615 535 q 1744 256 1744 376 q 1680 56 1744 135 q 1490 -22 1615 -22 m 867 138 q 875 120 867 138 q 925 103 883 103 q 983 138 967 103 q 999 256 999 174 q 983 374 999 338 q 925 410 967 410 q 867 374 883 410 q 850 256 850 338 q 867 138 850 174 m 1432 138 q 1440 120 1432 138 q 1490 103 1449 103 q 1548 138 1532 103 q 1564 256 1564 174 q 1548 374 1564 338 q 1490 410 1532 410 q 1432 374 1449 410 q 1415 256 1415 338 q 1432 138 1415 174 z "},"‹":{"ha":368,"x_min":61,"x_max":297,"o":"m 61 246 l 61 454 l 297 654 l 297 446 l 179 351 l 179 349 l 297 254 l 297 46 l 61 246 z "},"›":{"ha":368,"x_min":71,"x_max":307,"o":"m 307 246 l 71 46 l 71 254 l 189 349 l 189 351 l 71 446 l 71 654 l 307 454 l 307 246 z "},"⁄":{"ha":390,"x_min":-251,"x_max":642,"o":"m 489 993 l 642 993 l -99 0 l -251 0 l 489 993 z "},"€":{"ha":953,"x_min":42,"x_max":911,"o":"m 521 168 q 635 215 600 168 q 675 351 671 263 l 911 351 q 808 78 904 179 q 526 -22 713 -22 q 241 77 340 -22 q 115 346 142 176 l 42 346 l 42 429 l 107 429 q 106 476 106 444 l 106 510 l 42 510 l 42 593 l 113 593 q 236 871 136 768 q 526 974 336 974 q 807 874 711 974 q 911 603 903 774 l 675 603 q 634 737 669 690 q 521 783 599 783 q 349 593 375 783 l 569 593 l 569 510 l 342 510 l 342 476 q 343 429 342 444 l 569 429 l 569 346 l 350 346 q 521 168 381 168 z "},"™":{"ha":999,"x_min":43,"x_max":925,"o":"m 151 868 l 43 868 l 43 993 l 385 993 l 385 868 l 276 868 l 276 611 l 151 611 l 151 868 m 436 993 l 604 993 l 678 792 l 681 792 l 756 993 l 925 993 l 925 611 l 797 611 l 797 854 l 794 854 l 724 611 l 633 611 l 564 854 l 561 854 l 561 611 l 436 611 l 436 993 z "},"←":{"ha":1043,"x_min":42,"x_max":1001,"o":"m 440 14 l 42 444 l 440 875 l 547 765 l 325 528 l 1001 528 l 1001 361 l 325 361 l 547 124 l 440 14 z "},"↑":{"ha":944,"x_min":42,"x_max":903,"o":"m 903 561 l 793 454 l 556 676 l 556 0 l 389 0 l 389 676 l 151 454 l 42 561 l 472 960 l 903 561 z "},"→":{"ha":1043,"x_min":42,"x_max":1001,"o":"m 603 14 l 496 124 l 718 361 l 42 361 l 42 528 l 718 528 l 496 765 l 603 875 l 1001 444 l 603 14 z "},"↓":{"ha":944,"x_min":42,"x_max":903,"o":"m 903 343 l 472 -56 l 42 343 l 151 450 l 389 228 l 389 904 l 556 904 l 556 228 l 793 450 l 903 343 z "},"↔":{"ha":1583,"x_min":42,"x_max":1542,"o":"m 1143 875 l 1542 444 l 1144 14 l 1038 124 l 1260 361 l 325 361 l 547 124 l 440 13 l 42 443 l 440 875 l 547 765 l 325 528 l 1258 528 l 1038 765 l 1143 875 z "},"↕":{"ha":944,"x_min":42,"x_max":903,"o":"m 556 38 l 793 260 l 903 153 l 472 -246 l 42 153 l 151 260 l 389 38 l 389 808 l 151 586 l 42 693 l 472 1092 l 903 693 l 793 586 l 556 808 l 556 38 z "},"↖":{"ha":811,"x_min":8,"x_max":769,"o":"m 8 249 l 32 835 l 618 857 l 615 704 l 290 693 l 769 215 l 651 97 l 174 575 l 163 250 l 8 249 z "},"↗":{"ha":844,"x_min":42,"x_max":803,"o":"m 803 249 l 649 250 l 638 575 l 160 97 l 42 215 l 521 693 l 196 704 l 193 857 l 779 835 l 803 249 z "},"↘":{"ha":811,"x_min":42,"x_max":803,"o":"m 803 646 l 779 60 l 193 38 l 196 190 l 521 201 l 42 679 l 160 797 l 638 319 l 649 644 l 803 646 z "},"↙":{"ha":811,"x_min":8,"x_max":769,"o":"m 8 646 l 163 644 l 174 319 l 651 797 l 769 679 l 290 201 l 615 190 l 618 38 l 32 60 l 8 646 z "},"∂":{"ha":806,"x_min":28,"x_max":772,"o":"m 536 567 l 536 569 q 433 740 513 678 q 222 803 354 803 l 222 993 q 473 950 365 993 q 645 830 581 907 q 741 655 710 753 q 772 439 772 557 q 751 272 772 351 q 685 126 729 193 q 560 18 640 58 q 374 -22 481 -22 q 122 65 215 -22 q 28 301 28 153 q 118 548 28 442 q 335 654 208 654 q 536 567 468 654 m 379 154 q 495 206 454 154 q 536 331 536 257 q 503 435 536 393 q 407 478 471 478 q 292 427 333 478 q 250 303 250 376 q 283 197 250 239 q 379 154 315 154 z "},"∅":{"ha":1107,"x_min":42,"x_max":1065,"o":"m 950 807 q 1065 479 1065 669 q 919 119 1065 260 q 554 -22 772 -22 q 228 85 368 -22 l 138 -6 l 68 64 l 157 153 q 42 479 42 288 q 189 840 42 699 q 554 982 336 982 q 879 875 742 982 l 969 965 l 1039 896 l 950 807 m 139 479 q 226 222 139 332 l 808 804 q 554 885 700 885 q 258 771 378 885 q 139 479 139 657 m 554 75 q 849 188 729 75 q 968 479 968 301 q 881 738 968 628 l 299 156 q 554 75 407 75 z "},"∏":{"ha":999,"x_min":74,"x_max":925,"o":"m 74 993 l 925 993 l 925 -139 l 689 -139 l 689 803 l 310 803 l 310 -139 l 74 -139 l 74 993 z "},"∑":{"ha":849,"x_min":44,"x_max":808,"o":"m 44 56 l 394 438 l 394 440 l 44 800 l 44 993 l 794 993 l 794 803 l 321 803 l 321 800 l 631 492 l 631 394 l 311 54 l 311 51 l 808 51 l 808 -139 l 44 -139 l 44 56 z "},"−":{"ha":786,"x_min":56,"x_max":731,"o":"m 56 549 l 731 549 l 731 358 l 56 358 l 56 549 z "},"√":{"ha":906,"x_min":19,"x_max":896,"o":"m 19 506 l 279 506 l 413 142 l 415 142 l 660 993 l 896 993 l 525 -139 l 303 -139 l 126 315 l 19 315 l 19 506 z "},"∞":{"ha":1007,"x_min":31,"x_max":976,"o":"m 31 424 q 100 615 31 549 q 268 682 169 682 q 503 564 404 682 l 506 564 q 739 682 604 682 q 907 615 838 682 q 976 424 976 549 q 907 233 976 300 q 739 165 838 165 q 506 300 618 165 l 503 300 q 268 165 390 165 q 100 233 169 165 q 31 424 31 300 m 278 318 q 338 335 308 318 q 384 371 368 353 q 428 424 400 389 q 384 476 400 458 q 338 512 368 494 q 278 529 308 529 q 207 499 231 529 q 183 424 183 468 q 207 349 183 379 q 278 318 231 318 m 729 318 q 800 349 776 318 q 824 424 824 379 q 800 499 824 468 q 729 529 776 529 q 669 512 699 529 q 623 476 639 494 q 579 424 607 458 q 623 371 607 389 q 669 335 639 353 q 729 318 699 318 z "},"∫":{"ha":508,"x_min":-7,"x_max":518,"o":"m 374 0 q 322 -185 374 -124 q 151 -246 269 -246 q -7 -232 60 -246 l -7 -65 q 57 -63 38 -65 q 99 -51 76 -61 q 130 -18 122 -42 q 138 46 138 6 l 138 783 q 190 968 138 907 q 360 1029 242 1029 q 518 1015 451 1029 l 518 849 q 454 847 474 849 q 412 835 435 844 q 381 801 389 825 q 374 738 374 778 l 374 0 z "},"≈":{"ha":758,"x_min":47,"x_max":722,"o":"m 557 454 q 388 485 506 454 q 243 517 271 517 q 186 454 186 517 l 47 454 q 213 697 47 697 q 381 666 264 697 q 526 635 499 635 q 583 697 583 635 l 722 697 q 557 454 722 454 m 557 156 q 388 187 506 156 q 243 218 271 218 q 186 156 186 218 l 47 156 q 213 399 47 399 q 381 367 264 399 q 526 336 499 336 q 583 399 583 336 l 722 399 q 557 156 722 156 z "},"≠":{"ha":782,"x_min":71,"x_max":721,"o":"m 721 482 l 490 482 l 440 378 l 721 378 l 721 188 l 350 188 l 300 81 l 161 81 l 211 188 l 71 188 l 71 378 l 301 378 l 351 482 l 71 482 l 71 672 l 442 672 l 493 782 l 632 782 l 581 672 l 721 672 l 721 482 z "},"≤":{"ha":721,"x_min":60,"x_max":632,"o":"m 632 181 l 60 372 l 60 581 l 632 772 l 632 582 l 247 478 l 247 475 l 632 371 l 632 181 m 632 157 l 632 -10 l 60 -10 l 60 157 l 632 157 z "},"≥":{"ha":697,"x_min":65,"x_max":638,"o":"m 65 181 l 65 371 l 450 475 l 450 478 l 65 582 l 65 772 l 638 581 l 638 372 l 65 181 m 65 157 l 638 157 l 638 -10 l 65 -10 l 65 157 z "},"◊":{"ha":828,"x_min":22,"x_max":806,"o":"m 22 496 l 301 993 l 525 993 l 806 496 l 526 0 l 303 0 l 22 496 m 417 190 l 569 496 l 414 803 l 411 803 l 258 496 l 414 190 l 417 190 z "}}}
